<?xml version="1.0" encoding="utf-8"?>
<!-- Generator: Adobe Illustrator 25.0.1, SVG Export Plug-In . SVG Version: 6.00 Build 0)  -->
<svg version="1.1" id="Camada_1" xmlns="http://www.w3.org/2000/svg" xmlns:xlink="http://www.w3.org/1999/xlink" x="0px" y="0px"
	 viewBox="0 0 165.89 66.41" style="enable-background:new 0 0 165.89 66.41;" xml:space="preserve">
<style type="text/css">
	.st0{fill:#38675D;}
	.st1{fill:#FDA377;}
	.st2{fill:#4D8D7F;}
	.st3{fill:#FFFFFF;}
	.st4{fill:#FFC9B2;}
	.st5{fill:none;}
	.st6{fill:#083B30;}
</style>
<path id="Caminho_533_1_" class="st6" d="M83.05,26.55c0.75,0.08,1.42-0.47,1.5-1.22c0,0,0,0,0,0v-0.04v-0.49l-1.42,0.09
	c-0.8,0.05-1.16,0.33-1.16,0.84S82.43,26.55,83.05,26.55z"/>
<path id="Caminho_534_1_" class="st6" d="M113.35,25.33v-0.04v-0.49l-1.42,0.09c-0.8,0.05-1.16,0.33-1.16,0.84s0.45,0.83,1.08,0.83
	C112.6,26.63,113.27,26.08,113.35,25.33C113.35,25.33,113.35,25.33,113.35,25.33z"/>
<path id="Caminho_535_1_" class="st6" d="M73.75,38.03c-1.83,0-3.06,1.58-3.06,3.92c0,2.35,1.23,3.93,3.06,3.93
	c1.86,0,3.08-1.54,3.08-3.93l0,0C76.83,39.58,75.61,38.03,73.75,38.03z"/>
<path id="Caminho_536_1_" class="st6" d="M86.59,38.03c-1.83,0-3.06,1.58-3.06,3.92c0,2.35,1.23,3.93,3.06,3.93
	c1.86,0,3.08-1.54,3.08-3.93C89.68,39.58,88.46,38.03,86.59,38.03z"/>
<path id="Caminho_537_1_" class="st6" d="M105.43,26.34c0.98,0,1.57-0.74,1.57-1.9s-0.6-1.9-1.57-1.9s-1.54,0.74-1.54,1.9
	C103.89,25.6,104.45,26.34,105.43,26.34z"/>
<path id="Caminho_538_1_" class="st6" d="M59.38,24.06c0.01-0.17,0-0.33-0.02-0.5c0.18-1.33-0.75-2.55-2.08-2.73
	c-0.15-0.02-0.31-0.03-0.46-0.02h-1.45v5.52h1.45C58.15,26.41,59.3,25.39,59.38,24.06z"/>
<path id="Caminho_539_1_" class="st6" d="M59.64,34.44l-2.38,7.02h4.84l-2.38-7.02L59.64,34.44z"/>
<path id="Caminho_540_1_" class="st6" d="M64.73,22.48c-0.04,0-0.09,0-0.14,0c-0.82-0.01-1.49,0.65-1.5,1.47v0.04h2.93
	C66.08,23.21,65.51,22.54,64.73,22.48C64.73,22.48,64.73,22.48,64.73,22.48z"/>
<path id="Caminho_541_1_" class="st6" d="M100.3,23.98c0.06-0.77-0.52-1.44-1.29-1.5c0,0,0,0,0,0c-0.04,0-0.09,0-0.14,0
	c-0.82-0.01-1.49,0.65-1.5,1.47v0.04L100.3,23.98z"/>
<path id="Caminho_542_1_" class="st6" d="M124.67,37.94c-1.94,0-3.1,1.5-3.1,4.01c0,2.53,1.15,4,3.1,4s3.1-1.47,3.1-4
	S126.61,37.94,124.67,37.94z"/>
<path id="Caminho_543_1_" class="st6" d="M144.28,37.91c-0.07,0-0.14,0-0.21,0c-1.63-0.01-2.96,1.3-2.97,2.93c0,0,0,0,0,0v0.03h5.83
	C147.01,39.33,145.83,38,144.28,37.91C144.28,37.91,144.28,37.91,144.28,37.91z"/>
<path id="Caminho_544_1_" class="st6" d="M134.07,25.33v-0.04v-0.49l-1.42,0.09c-0.8,0.05-1.16,0.33-1.16,0.84s0.45,0.83,1.08,0.83
	C133.32,26.63,133.99,26.08,134.07,25.33C134.07,25.33,134.07,25.33,134.07,25.33z"/>
<path id="Caminho_545_1_" class="st6" d="M161.3,19.36c0-0.39,0-0.78,0-1.15c-0.02-0.82-0.09-1.63-0.22-2.43
	c-0.12-0.74-0.35-1.46-0.69-2.12c-0.69-1.34-1.78-2.43-3.11-3.12c-0.68-0.34-1.41-0.58-2.15-0.71c-0.79-0.13-1.59-0.2-2.4-0.21
	l-1.18-0.02H19.08l-1.16,0.01C17.11,9.63,16.3,9.7,15.5,9.83c-0.74,0.13-1.46,0.36-2.13,0.7c-0.67,0.34-1.28,0.79-1.81,1.32
	c-0.53,0.53-0.97,1.13-1.31,1.8c-0.34,0.67-0.58,1.4-0.7,2.14c-0.13,0.8-0.2,1.6-0.21,2.41c-0.01,0.26-0.02,1.15-0.02,1.15v29.78
	c0,0,0.01,0.9,0.02,1.18c0.01,0.81,0.08,1.62,0.22,2.42c0.12,0.74,0.36,1.46,0.7,2.14c0.34,0.67,0.78,1.28,1.31,1.8
	c0.53,0.53,1.13,0.97,1.8,1.31c0.67,0.34,1.39,0.58,2.14,0.71c0.8,0.13,1.6,0.2,2.41,0.21c0.39,0.01,0.77,0.01,1.17,0.01h131.07h1.4
	c0.38,0,0.78,0,1.16-0.01c0.81-0.01,1.61-0.08,2.41-0.21c0.75-0.13,1.47-0.37,2.15-0.71c0.67-0.34,1.27-0.78,1.8-1.32
	c0.53-0.52,0.97-1.13,1.31-1.79c0.34-0.68,0.58-1.4,0.7-2.15c0.13-0.79,0.2-1.59,0.22-2.39c0.01-0.4,0.01-0.78,0.01-1.2
	c0.01-0.46,0.01-0.92,0.01-1.39V20.76C161.31,20.3,161.31,19.84,161.3,19.36z M123.97,21.61h1.1v0.92h0.08
	c0.3-0.68,0.99-1.09,1.73-1.03c1.04-0.08,1.94,0.7,2.02,1.74c0,0,0,0,0,0c0.01,0.14,0.01,0.28-0.01,0.42v3.76h-1.15v-3.47
	c0-0.93-0.4-1.4-1.25-1.4c-0.74-0.03-1.36,0.54-1.39,1.28c0,0.06,0,0.13,0.01,0.19v3.4h-1.14L123.97,21.61z M105.12,21.51
	c0.75-0.03,1.45,0.37,1.82,1.02h0.09v-0.93h1.1v5.85c0,1.33-1.04,2.17-2.68,2.17c-1.45,0-2.39-0.65-2.51-1.64h1.17
	c0.1,0.42,0.58,0.69,1.36,0.69c0.95,0,1.52-0.45,1.52-1.22v-1.11h-0.09c-0.37,0.64-1.06,1.01-1.79,0.97c-1.48,0-2.4-1.14-2.4-2.88
	C102.71,22.68,103.64,21.52,105.12,21.51L105.12,21.51z M87.49,21.61h1.1v0.89h0.08c0.25-0.63,0.89-1.03,1.57-0.99
	c0.17,0,0.34,0.01,0.51,0.05v1.13c-0.21-0.05-0.42-0.07-0.64-0.07c-0.75-0.07-1.41,0.48-1.48,1.23c0,0,0,0,0,0c0,0.04,0,0.09,0,0.13
	v3.43h-1.14L87.49,21.61z M71.22,25.11l-1.01-0.24c-1.1-0.26-1.61-0.76-1.61-1.62c0-1.03,0.94-1.75,2.25-1.75s2.16,0.61,2.27,1.63
	h-1.1c-0.11-0.43-0.52-0.7-1.17-0.7s-1.12,0.3-1.12,0.75c0,0.35,0.29,0.57,0.92,0.71l0.96,0.22c1.1,0.26,1.62,0.73,1.62,1.58
	c0,1.09-1.02,1.82-2.4,1.82s-2.28-0.62-2.38-1.65h1.15c0.2,0.5,0.72,0.8,1.26,0.72c0.71,0,1.22-0.32,1.22-0.78
	C72.07,25.47,71.8,25.25,71.22,25.11L71.22,25.11z M54.18,19.73h2.78c1.87-0.14,3.5,1.27,3.64,3.15c0,0,0,0,0,0
	c0.02,0.22,0.01,0.45-0.02,0.67c0,2.46-1.33,3.87-3.62,3.87h-2.78V19.73z M33.95,20.81c1.1-1.26,2.64-2.05,4.3-2.22
	c0.13,1.69-0.41,3.37-1.49,4.68c-1.06,1.31-2.65,2.07-4.34,2.05C32.31,23.67,32.86,22.05,33.95,20.81z M42.3,44.15
	c-1.2,1.79-2.45,3.54-4.45,3.58c-1.94,0.04-2.59-1.14-4.81-1.14c-2.24,0-2.94,1.11-4.8,1.18c-1.9,0.07-3.35-1.91-4.6-3.69
	c-2.48-3.63-4.42-10.22-1.82-14.71c1.22-2.19,3.49-3.58,5.99-3.66c1.9-0.04,3.67,1.29,4.84,1.29c1.15,0,3.33-1.58,5.58-1.35
	c2.14,0.07,4.13,1.14,5.36,2.9c-1.94,1.19-3.13,3.29-3.16,5.56c0,2.57,1.54,4.9,3.91,5.9C43.87,41.49,43.19,42.89,42.3,44.15z
	 M64.19,47.78l-1.46-4.32h-6.1l-1.47,4.33h-2.58l5.78-16.01h2.68l5.78,16.01L64.19,47.78z M67.19,24.82h-4.1v0.06
	c-0.07,0.84,0.55,1.59,1.4,1.66c0,0,0,0,0,0c0.05,0,0.1,0,0.15,0c0.56,0.07,1.1-0.21,1.38-0.7h1.1c-0.32,1.09-1.38,1.8-2.51,1.68
	c-1.46,0.04-2.67-1.11-2.71-2.57c0-0.14,0-0.29,0.02-0.43c-0.2-1.46,0.83-2.81,2.29-3.01c0.13-0.02,0.25-0.03,0.38-0.02
	c1.62,0,2.59,1.1,2.59,2.93L67.19,24.82z M74.43,47.9c-1.51,0.08-2.94-0.71-3.67-2.04H70.7v5.78h-2.4V36.11h2.32v1.94h0.04
	c0.76-1.32,2.19-2.11,3.71-2.06c2.96,0,4.92,2.34,4.92,5.96S77.35,47.9,74.43,47.9L74.43,47.9z M77.2,26.5
	c0.63,0.07,1.22-0.34,1.37-0.95h1.11c-0.15,1.22-1.25,2.1-2.48,1.98c-1.47,0.05-2.7-1.11-2.75-2.58c0,0,0,0,0,0
	c-0.01-0.15,0-0.3,0.02-0.45c-0.19-1.45,0.82-2.78,2.27-2.97c0,0,0,0,0,0c0.15-0.02,0.3-0.03,0.44-0.02
	c1.24-0.11,2.34,0.78,2.49,2.01h-1.11c-0.15-0.62-0.73-1.04-1.37-0.99c-0.96,0-1.54,0.74-1.54,1.97
	C75.66,25.75,76.25,26.51,77.2,26.5L77.2,26.5z M80.82,25.77c0-1.04,0.78-1.65,2.16-1.73l1.57-0.09v-0.5c0-0.61-0.4-0.96-1.19-0.96
	c-0.64,0-1.08,0.24-1.21,0.64h-1.11c0.12-1,1.06-1.64,2.37-1.64c1.46,0,2.28,0.72,2.28,1.95v3.97h-1.1V26.6h-0.09
	c-0.37,0.6-1.04,0.94-1.74,0.91c-0.96,0.1-1.83-0.59-1.93-1.56c0,0,0,0,0,0C80.83,25.89,80.82,25.83,80.82,25.77L80.82,25.77z
	 M87.27,47.9c-1.51,0.08-2.94-0.71-3.67-2.04h-0.06v5.78h-2.4V36.11h2.32v1.94h0.04c0.76-1.32,2.19-2.11,3.72-2.06
	c2.96,0,4.92,2.34,4.92,5.96S90.2,47.9,87.27,47.9L87.27,47.9z M95.37,22.69c-0.21-0.05-0.42-0.07-0.64-0.07
	c-0.75-0.07-1.41,0.48-1.48,1.23c0,0,0,0,0,0c0,0.04-0.01,0.09,0,0.13v3.43h-1.14v-5.8h1.1v0.89h0.09c0.25-0.63,0.89-1.03,1.57-0.99
	c0.17,0,0.34,0.01,0.51,0.05L95.37,22.69z M96.17,24.96c0-0.14,0-0.29,0.02-0.43c-0.2-1.46,0.83-2.81,2.29-3.01
	c0.13-0.02,0.26-0.03,0.39-0.02c1.61,0,2.59,1.1,2.59,2.93v0.4h-4.1v0.06c-0.07,0.84,0.55,1.59,1.4,1.66c0,0,0,0,0,0
	c0.05,0,0.1,0,0.15,0c0.56,0.07,1.1-0.21,1.38-0.7h1.1c-0.32,1.09-1.38,1.8-2.51,1.68C97.42,27.56,96.22,26.41,96.17,24.96
	L96.17,24.96z M104.27,48.04c-3.55,0-5.95-1.83-6.1-4.73h2.45c0.18,1.59,1.72,2.63,3.83,2.63c2.02,0,3.47-1.04,3.47-2.47
	c0-1.24-0.88-1.99-2.95-2.5l-2.07-0.5c-2.94-0.71-4.3-2.08-4.3-4.32c0-2.76,2.41-4.66,5.82-4.66c3.38,0,5.7,1.9,5.78,4.66h-2.42
	c-0.14-1.6-1.47-2.56-3.4-2.56s-3.25,0.98-3.25,2.39c0,1.13,0.84,1.8,2.91,2.31l1.76,0.43c3.28,0.78,4.65,2.1,4.65,4.44
	C110.45,46.17,108.07,48.05,104.27,48.04L104.27,48.04z M109.63,25.95c-0.01-0.06-0.01-0.12-0.01-0.18c0-1.04,0.78-1.65,2.16-1.73
	l1.57-0.09v-0.5c0-0.61-0.4-0.96-1.19-0.96c-0.64,0-1.08,0.24-1.21,0.64h-1.11c0.12-1,1.05-1.64,2.37-1.64
	c1.46,0,2.28,0.72,2.28,1.95v3.97h-1.1V26.6h-0.09c-0.37,0.6-1.04,0.94-1.74,0.91C110.6,27.61,109.73,26.91,109.63,25.95
	C109.63,25.95,109.63,25.95,109.63,25.95z M117.84,38.01h-2.22v6.43c0,1,0.44,1.47,1.42,1.47c0.26,0,0.53-0.02,0.79-0.06v1.89
	c-0.44,0.08-0.88,0.12-1.33,0.11c-2.36,0-3.28-0.89-3.28-3.15v-6.69h-1.7v-1.9h1.7v-2.76h2.41v2.76h2.22V38.01z M117.44,23.86
	c0,0.04,0,0.09,0,0.13v3.43h-1.14v-5.8h1.1v0.89h0.09c0.25-0.63,0.89-1.03,1.57-0.99c0.17,0,0.34,0.01,0.51,0.05v1.13
	c-0.21-0.05-0.42-0.07-0.64-0.07C118.17,22.56,117.51,23.11,117.44,23.86C117.44,23.86,117.44,23.86,117.44,23.86L117.44,23.86z
	 M124.67,47.92c-3.39,0-5.53-2.3-5.53-5.98s2.16-5.98,5.54-5.98c3.37,0,5.54,2.31,5.54,5.98S128.06,47.92,124.67,47.92L124.67,47.92
	z M130.35,25.95c-0.01-0.06-0.01-0.12-0.01-0.18c0-1.04,0.78-1.65,2.16-1.73l1.57-0.09v-0.5c0-0.61-0.41-0.96-1.19-0.96
	c-0.64,0-1.08,0.24-1.21,0.64h-1.11c0.12-1,1.05-1.64,2.37-1.64c1.46,0,2.27,0.72,2.27,1.95v3.97h-1.1V26.6h-0.09
	c-0.38,0.6-1.04,0.94-1.74,0.91C131.32,27.61,130.46,26.91,130.35,25.95C130.35,25.95,130.35,25.95,130.35,25.95z M138.14,38.32
	c-0.35-0.11-0.71-0.15-1.08-0.14c-1.33-0.05-2.46,0.98-2.51,2.31c0,0,0,0,0,0c-0.01,0.12,0,0.25,0.01,0.37v6.92h-2.39V36.11h2.28
	v1.99h0.05c0.32-1.28,1.49-2.16,2.81-2.11c0.28,0,0.55,0.03,0.82,0.09L138.14,38.32z M149.32,42.55h-8.24v0.14
	c-0.15,1.67,1.08,3.15,2.76,3.3c0,0,0,0,0,0c0.13,0.01,0.25,0.01,0.38,0.01c1.16,0.11,2.26-0.56,2.69-1.64h2.27
	c-0.32,2.12-2.38,3.57-5.02,3.57c-3.4,0-5.5-2.27-5.5-5.92s2.12-6.04,5.4-6.04c3.23,0,5.26,2.22,5.26,5.76L149.32,42.55z"/>
</svg>
