<?xml version="1.0" encoding="utf-8"?>
<!-- Generator: Adobe Illustrator 25.0.1, SVG Export Plug-In . SVG Version: 6.00 Build 0)  -->
<svg version="1.1" id="Camada_1" xmlns="http://www.w3.org/2000/svg" xmlns:xlink="http://www.w3.org/1999/xlink" x="0px" y="0px"
	 viewBox="0 0 155.8 155.3" style="enable-background:new 0 0 155.8 155.3;" xml:space="preserve">
<style type="text/css">
	.st0{fill:#38675D;}
	.st1{fill:#FDA377;}
	.st2{fill:#4D8D7F;}
	.st3{fill:#FFFFFF;}
	.st4{fill:#FFC9B2;}
	.st5{fill:none;}
	.st6{fill:#083B30;}
</style>
<g id="Grupo_253" transform="translate(-492.859 -419.924)">
	<g id="Grupo_251">
		<path id="Caminho_244" class="st0" d="M580.21,444.22c-0.53-0.08-0.92,0.17-2.27,1.11h-0.02l-3.01,2.12
			c0.24,0.52,0.98,2.11,2.13,4.55c1.62,3.45,2.3,4.44,3.41,4.6l-0.07,0.46l-0.81-0.12c-2.27-0.33-3.31-1.16-4.45-3.6
			s-1.88-4.01-2.12-4.54l-0.65,0.45l-0.76,5.12c-0.12,0.92-0.05,1.19,0.39,1.25l-0.02,0.1l-3.14-0.46l0.02-0.1
			c0.48,0.07,0.6-0.21,0.77-1.33l0,0l1.44-9.75c0.12-0.92,0.05-1.19-0.39-1.25l0.02-0.1l3.14,0.46l-0.02,0.1
			c-0.47-0.07-0.6,0.22-0.77,1.33l0,0l-0.58,3.92l5.56-3.87c0.63-0.47,0.75-0.63,0.55-0.69l-0.06-0.01l0.01-0.1l1.71,0.25
			L580.21,444.22z"/>
		<path id="Caminho_245" class="st0" d="M586.89,450.46l0.03-0.06l2.35,0.25l0.39,0.17l-0.68,1.54c0.8-0.75,1.94-1,2.97-0.65
			c1.02,0.45,1.13,1.03,0.78,1.83c-0.15,0.47-0.66,0.74-1.13,0.59c-0.07-0.02-0.13-0.05-0.19-0.09c-0.62-0.27-0.99-1.31-1.6-1.58
			c-0.33-0.1-0.68-0.03-0.95,0.18l-2.33,5.29c-0.46,1.03-0.49,1.34-0.06,1.54l-0.04,0.1l-2.96-1.3l0.04-0.1
			c0.44,0.19,0.64-0.05,1.1-1.08l2.46-5.59C587.35,450.81,587.22,450.86,586.89,450.46z"/>
		<path id="Caminho_246" class="st0" d="M595.15,464.7l-2.66-1.85l0.06-0.09c0.39,0.27,0.64,0.08,1.28-0.85l3.49-5.01
			c0.43-0.64,0.29-0.61,0.05-1.06l0.03-0.05l2.26,0.7l0.34,0.24l-4.45,6.38c-0.65,0.93-0.75,1.22-0.35,1.5L595.15,464.7z
			 M599.57,452.92c0.45-0.63,1.32-0.78,1.95-0.34c0.63,0.45,0.78,1.32,0.34,1.95c-0.45,0.63-1.32,0.78-1.95,0.34c0,0,0,0,0,0
			c-0.61-0.34-0.83-1.1-0.5-1.71C599.45,453.07,599.5,452.99,599.57,452.92L599.57,452.92z"/>
		<path id="Caminho_247" class="st0" d="M609.02,464.79c2.14,2.43,2.08,4.93-0.21,6.95s-4.79,1.79-6.93-0.64s-2.06-4.94,0.22-6.96
			S606.88,462.36,609.02,464.79z M602.22,470.79c1.16,1.31,2.98,1.02,5.04-0.8s2.56-3.58,1.41-4.89s-2.96-1.03-5.03,0.79
			S601.07,469.48,602.22,470.79L602.22,470.79z"/>
		<path id="Caminho_248" class="st0" d="M608.91,481.38l-1.52-2.86l0.09-0.05c0.22,0.42,0.53,0.36,1.53-0.17
			c2.34-1.24,7.19-3.8,10.31-5.44c0.48-0.28,0.37-0.38,0.36-0.83l0.06-0.03l1.68,1.65l0.2,0.37l-12.2,6.46
			c-0.5,0.32-0.59,0.51-0.42,0.84L608.91,481.38z"/>
		<path id="Caminho_249" class="st0" d="M610.83,485.4l-0.06-0.22l3.01-0.79l9.69-2.54c0.61-0.17,0.51-0.28,0.6-0.74l0.06-0.02
			l1.27,1.99l0.11,0.41l-2.34,0.62l0,0l-3.81,0.99c0.79,0.26,1.45,1.22,1.85,2.72c0.63,2.4-0.68,4.2-3.67,4.99
			c-2.91,0.77-5-0.49-5.79-3.5c-0.3-1.13,0.16-2.03-0.07-2.9C611.59,485.95,611.27,485.56,610.83,485.4z M616.14,490.85
			c2.95-0.78,4.3-2.35,3.77-4.36c-0.19-0.72-0.54-1.17-0.97-1.28l-4.62,1.21c-1.63,0.43-2.34,1.42-2,2.74
			C612.74,490.77,614.12,491.38,616.14,490.85z"/>
		<path id="Caminho_250" class="st0" d="M613.35,502.43c0.06-2.67,1.67-4.13,4.47-4.06c3.3,0.08,5.11,1.76,5.05,4.7
			c-0.05,2.4-1.56,3.71-4.16,3.65l0.14-6.09c-2.65-0.13-4.19,1.12-4.25,3.6c0.03,0.85,0.43,1.65,1.09,2.19l-0.19,0.23
			C614.22,505.59,613.44,504.07,613.35,502.43z M620.51,504.8c1.09,0.02,1.74-0.63,1.77-1.85c0.03-1.29-1.05-2.11-3.04-2.3
			l0.22,3.14c-0.01,0.55,0.42,1,0.97,1.02C620.46,504.81,620.48,504.8,620.51,504.8z"/>
		<path id="Caminho_251" class="st0" d="M610.94,519.56c-0.57-0.85-0.67-1.93-0.26-2.87c0.1-0.72,0.76-1.22,1.48-1.13c0,0,0,0,0,0
			c-0.39-0.93-0.44-1.97-0.15-2.93c0.14-1.07,1.13-1.83,2.21-1.68c0.14,0.02,0.27,0.05,0.4,0.1c1.55,0.47,2.35,2.05,2.23,4.4
			c-0.05,0.46-0.12,0.91-0.23,1.36l1.14,0.34c1.31,0.4,2.12,0.31,2.29-0.23c0.42-0.93,0-2.03-0.94-2.44
			c-0.2-0.09-0.41-0.14-0.63-0.16l0.42-1.39c1.78,0.36,2.35,2.03,1.58,4.6c-0.48,1.61-1.84,2.19-3.8,1.6l-3.91-1.17
			c-0.85-0.26-1.35-0.25-1.55,0.41c-0.16,0.33-0.13,0.72,0.06,1.03L610.94,519.56z M616.21,515.26c0.04-0.99-0.65-1.86-1.62-2.05
			c-0.57-0.24-1.22,0.03-1.46,0.6c-0.03,0.08-0.05,0.16-0.07,0.24c-0.17,0.53-0.25,1.08-0.23,1.63c0.12,0.03,0.24,0.06,0.36,0.1
			l2.9,0.87C616.14,516.24,616.19,515.74,616.21,515.26L616.21,515.26z"/>
		<path id="Caminho_252" class="st0" d="M616.87,526.72l-1.42,2.26l-4.94-3.13c-0.81-0.69-2.04-0.59-2.73,0.22
			c-0.13,0.15-0.23,0.32-0.31,0.5c-0.36,0.43-0.51,0.99-0.4,1.54l5.09,3.2c0.96,0.6,1.26,0.69,1.51,0.28l0.09,0.06l-1.42,2.26
			l-6.47-4.07c-0.66-0.4-0.62-0.27-1.06,0l-0.05-0.03l0.59-2.29l0.22-0.36l1.18,0.74c-0.44-1.16-0.28-2.46,0.42-3.49
			c1-1.58,2.43-1.6,4.24-0.46l3.84,2.42c0.96,0.6,1.26,0.69,1.51,0.28L616.87,526.72z"/>
		<path id="Caminho_253" class="st0" d="M603.25,542.53l2.03-1.96l-4.45-4.59c-0.73-0.76-1-0.79-1.63-0.18
			c-0.45,0.58-0.69,1.29-0.67,2.03l-0.22-0.02c0.18-1.75,0.4-2.85,0.98-3.4c1.27-1.23,1.83-1.16,3.33,0.38l4.18,4.32l0.95-0.92
			l0.16,0.17c-0.53,0.73-0.53,2.14,0,3.98l-0.92-2.72l-0.01,0.02l1.13,3.33l0.02-0.02l-0.21-0.62c0.06,0.21,0.12,0.42,0.2,0.64
			l-0.26,0.25l-1.99-2.05l-2.03,1.96L603.25,542.53z"/>
		<path id="Caminho_254" class="st0" d="M591.48,551.32c0.39-0.24,0.44-0.53,0.35-1.46l-1.12-9.09c-0.02-0.48-0.08-0.95-0.17-1.42
			c-0.41-3.22-0.15-4.41,1.06-5.14c0.79-0.48,1.42-0.42,1.76,0.14c0.3,0.48,0.14,0.95-0.44,1.3c-0.54,0.22-1.11,0.36-1.69,0.41
			c-0.36,0.22-0.38,0.95-0.12,3.17c0.11,0.51,0.18,1.03,0.21,1.55l7.03,4.7c0.94,0.63,1.37,0.84,1.8,0.58l0.05,0.09l-3,1.82
			l-0.05-0.09c0.32-0.2,0.23-0.38-0.38-0.85l-5.34-3.77l0.95,6.09c0.17,0.98,0.29,1.21,0.58,1.08l0.07-0.04l0.05,0.09l-1.54,0.94
			L591.48,551.32z"/>
		<path id="Caminho_255" class="st0" d="M587.59,555.77c0.23,0.67-0.13,1.4-0.8,1.63c-0.67,0.23-1.4-0.13-1.63-0.8
			c-0.23-0.67,0.13-1.4,0.8-1.63c0.58-0.27,1.28-0.02,1.55,0.56C587.55,555.61,587.58,555.69,587.59,555.77z"/>
		<path id="Caminho_256" class="st0" d="M576.58,558.61c0.09,0.7-0.4,1.35-1.1,1.44c-0.7,0.09-1.35-0.4-1.44-1.1
			c-0.09-0.7,0.4-1.35,1.1-1.44c0,0,0,0,0,0c0.62-0.15,1.25,0.23,1.41,0.85C576.56,558.45,576.57,558.53,576.58,558.61z"/>
		<path id="Caminho_257" class="st0" d="M556.24,558.82c0.54,0.07,0.92-0.19,2.24-1.16h0.02l2.97-2.18
			c-0.26-0.52-1.02-2.09-2.22-4.51c-1.69-3.42-2.39-4.39-3.5-4.53l0.06-0.46l0.81,0.1c2.27,0.28,3.34,1.1,4.52,3.51
			s1.96,3.97,2.22,4.5l0.64-0.47l0.65-5.13c0.1-0.92,0.03-1.19-0.41-1.24l0.01-0.1l3.15,0.4l-0.01,0.1
			c-0.48-0.06-0.6,0.23-0.74,1.35l0,0l-1.24,9.78c-0.1,0.92-0.03,1.19,0.41,1.24l-0.01,0.1l-3.15-0.39l0.01-0.1
			c0.48,0.06,0.6-0.23,0.74-1.35l0,0l0.5-3.93l-5.48,3.98c-0.62,0.48-0.74,0.65-0.53,0.7l0.06,0.01l-0.01,0.1l-1.71-0.22
			L556.24,558.82z"/>
		<path id="Caminho_258" class="st0" d="M549.42,552.7l-0.02,0.06l-2.35-0.21l-0.39-0.16l0.65-1.56c-0.78,0.76-1.92,1.04-2.96,0.71
			c-1.03-0.43-1.15-1.01-0.81-1.82c0.14-0.48,0.64-0.75,1.12-0.61c0.07,0.02,0.13,0.05,0.19,0.08c0.62,0.26,1.01,1.29,1.63,1.55
			c0.33,0.09,0.68,0.02,0.95-0.2l2.23-5.34c0.43-1.04,0.47-1.35,0.03-1.54l0.04-0.1l2.99,1.25l-0.04,0.1
			c-0.44-0.18-0.64,0.06-1.07,1.1l-2.35,5.64C548.95,552.37,549.08,552.31,549.42,552.7z"/>
		<path id="Caminho_259" class="st0" d="M536.7,550.5c-0.43,0.64-1.3,0.81-1.94,0.37s-0.81-1.3-0.37-1.94s1.3-0.81,1.94-0.37
			c0,0,0,0,0,0c0.62,0.32,0.86,1.09,0.53,1.7C536.82,550.35,536.76,550.43,536.7,550.5z M540.89,538.63l2.69,1.8l-0.06,0.09
			c-0.4-0.27-0.64-0.07-1.27,0.87l-3.39,5.08c-0.42,0.64-0.28,0.61-0.03,1.06l-0.03,0.05l-2.27-0.66l-0.35-0.23l4.32-6.47
			c0.63-0.94,0.72-1.24,0.32-1.51L540.89,538.63z"/>
		<path id="Caminho_260" class="st0" d="M527.03,538.83c-2.2-2.38-2.18-4.88,0.06-6.95s4.75-1.89,6.95,0.49
			c2.2,2.38,2.17,4.9-0.07,6.96S529.22,541.21,527.03,538.83z M533.69,532.68c-1.18-1.28-3-0.95-5.02,0.92s-2.48,3.64-1.3,4.92
			s2.98,0.97,5.01-0.9S534.87,533.97,533.69,532.68z"/>
		<path id="Caminho_261" class="st0" d="M526.79,522.21l1.57,2.83l-0.09,0.05c-0.23-0.42-0.54-0.35-1.52,0.2
			c-2.32,1.28-7.11,3.94-10.2,5.64c-0.48,0.29-0.36,0.39-0.35,0.84l-0.05,0.03l-1.72-1.62l-0.2-0.37l12.07-6.7
			c0.49-0.33,0.58-0.52,0.4-0.85L526.79,522.21z"/>
		<path id="Caminho_262" class="st0" d="M524.8,518.25l0.06,0.22l-2.99,0.85l-9.63,2.72c-0.6,0.19-0.5,0.29-0.59,0.76l-0.06,0.02
			l-1.3-1.97l-0.11-0.4l2.32-0.66l0,0l3.78-1.07c-0.8-0.24-1.48-1.19-1.9-2.68c-0.68-2.39,0.6-4.21,3.57-5.06
			c2.89-0.82,5.01,0.39,5.86,3.38c0.32,1.12-0.12,2.04,0.12,2.89C524.02,517.71,524.36,518.09,524.8,518.25z M519.39,512.9
			c-2.93,0.83-4.25,2.43-3.68,4.43c0.2,0.72,0.56,1.16,1,1.26l4.59-1.3c1.62-0.46,2.32-1.47,1.94-2.78
			C522.78,512.92,521.39,512.33,519.39,512.9z"/>
		<path id="Caminho_263" class="st0" d="M521.94,501.26c-0.01,2.67-1.59,4.16-4.39,4.15c-3.3-0.01-5.15-1.65-5.14-4.6
			c0.01-2.4,1.48-3.74,4.09-3.73l-0.02,6.09c2.65,0.08,4.17-1.2,4.17-3.68c-0.05-0.85-0.46-1.64-1.13-2.17l0.19-0.23
			C521.01,498.11,521.82,499.62,521.94,501.26z M514.74,499.03c-1.09,0-1.73,0.67-1.73,1.89c0,1.29,1.09,2.09,3.08,2.23l-0.28-3.13
			c0-0.55-0.45-1-1.01-0.99C514.78,499.03,514.76,499.03,514.74,499.03L514.74,499.03z"/>
		<path id="Caminho_264" class="st0" d="M524.01,484.09c0.59,0.84,0.7,1.92,0.31,2.86c-0.25,0.9-0.73,1.19-1.45,1.16
			c0.4,0.92,0.48,1.96,0.2,2.93c-0.39,1.4-1.32,1.99-2.58,1.64c-1.56-0.44-2.39-2-2.32-4.36c0.04-0.46,0.1-0.91,0.2-1.36l-1.15-0.32
			c-1.32-0.37-2.13-0.27-2.28,0.28c-0.4,0.94,0.04,2.03,0.98,2.42c0.2,0.09,0.42,0.13,0.64,0.14l-0.39,1.4
			c-1.79-0.32-2.39-1.98-1.67-4.57c0.45-1.62,1.8-2.23,3.77-1.68l3.93,1.1c0.85,0.24,1.36,0.23,1.54-0.44
			c0.15-0.33,0.12-0.72-0.08-1.03L524.01,484.09z M518.83,488.49c-0.02,0.99,0.69,1.85,1.66,2.02c0.57,0.23,1.22-0.06,1.44-0.63
			c0.03-0.08,0.05-0.16,0.06-0.24c0.16-0.53,0.22-1.08,0.19-1.64c-0.12-0.03-0.24-0.06-0.36-0.09l-2.91-0.81
			C518.88,487.52,518.84,488.02,518.83,488.49L518.83,488.49z"/>
		<path id="Caminho_265" class="st0" d="M517.95,477.04l1.38-2.29l5,3.03c0.83,0.68,2.04,0.56,2.72-0.27
			c0.13-0.15,0.23-0.33,0.3-0.51c0.35-0.43,0.48-1,0.37-1.55l-5.15-3.1c-0.97-0.58-1.27-0.66-1.52-0.25l-0.09-0.05l1.38-2.29
			l6.54,3.94c0.66,0.39,0.63,0.25,1.06-0.02l0.05,0.03l-0.55,2.3l-0.22,0.36l-1.19-0.72c0.46,1.15,0.33,2.46-0.35,3.49
			c-0.97,1.6-2.39,1.65-4.23,0.55l-3.89-2.34c-0.97-0.58-1.27-0.66-1.52-0.25L517.95,477.04z"/>
		<path id="Caminho_266" class="st0" d="M531.25,460.99l-1.98,2l4.53,4.5c0.75,0.74,1.01,0.77,1.64,0.14
			c0.44-0.59,0.66-1.31,0.63-2.04l0.22,0.01c-0.14,1.76-0.35,2.86-0.91,3.42c-1.24,1.25-1.81,1.2-3.33-0.32l-4.27-4.24l-0.93,0.94
			l-0.16-0.16c0.52-0.74,0.48-2.14-0.08-3.98l0.97,2.7l0.01-0.02l-1.19-3.31l-0.02,0.02l0.22,0.62c-0.06-0.21-0.13-0.42-0.21-0.63
			l0.25-0.25l2.03,2.02l1.98-2L531.25,460.99z"/>
		<path id="Caminho_267" class="st0" d="M542.86,451.94c-0.39,0.24-0.43,0.55-0.32,1.47l1.3,9.07c0.03,0.48,0.1,0.95,0.2,1.42
			c0.47,3.21,0.23,4.41-0.96,5.17c-0.78,0.5-1.41,0.45-1.76-0.1c-0.3-0.48-0.15-0.95,0.41-1.31c0.54-0.23,1.1-0.38,1.68-0.45
			c0.35-0.23,0.37-0.95,0.05-3.17c-0.12-0.51-0.2-1.03-0.24-1.55l-7.13-4.56c-0.95-0.61-1.39-0.81-1.82-0.54l-0.06-0.09l2.97-1.88
			l0.06,0.09c-0.32,0.2-0.23,0.38,0.4,0.85l5.41,3.67l-1.07-6.07c-0.19-0.98-0.32-1.21-0.6-1.07l-0.07,0.05l-0.06-0.09l1.53-0.97
			L542.86,451.94z"/>
		<path id="Caminho_268" class="st0" d="M546.64,447.44c-0.24-0.67,0.1-1.4,0.77-1.64c0.67-0.24,1.4,0.1,1.64,0.77
			c0.24,0.67-0.1,1.4-0.77,1.64c-0.58,0.28-1.27,0.05-1.56-0.53C546.69,447.6,546.66,447.52,546.64,447.44z"/>
		<path id="Caminho_269" class="st0" d="M557.58,444.38c-0.11-0.7,0.37-1.35,1.07-1.46c0.7-0.11,1.35,0.37,1.46,1.07
			c0.11,0.7-0.37,1.35-1.07,1.46c-0.62,0.17-1.26-0.2-1.42-0.82C557.6,444.55,557.58,444.46,557.58,444.38z"/>
	</g>
	<g id="Grupo_252">
		<path id="Caminho_270" class="st0" d="M559.41,501.45c-5.41-5.42-12.75-8.46-20.41-8.47c-0.01,5.26,1.43,10.43,4.16,14.92
			c1.21,1.99,2.66,3.83,4.31,5.48c7.64-0.01,14.97,3.03,20.37,8.44C562.43,516.42,559.39,509.09,559.41,501.45z"/>
		<path id="Caminho_271" class="st0" d="M582.55,496.69c-2.3,1.3-4.41,2.9-6.28,4.78c0.01,7.64-3.03,14.96-8.43,20.36
			c5.39-5.4,12.72-8.44,20.36-8.43c5.44-5.4,8.49-12.75,8.49-20.41C591.73,492.97,586.86,494.25,582.55,496.69z"/>
		<path id="Caminho_272" class="st0" d="M567.84,521.82c-5.4-5.41-12.73-8.45-20.37-8.44C552.86,518.79,560.2,521.83,567.84,521.82z
			"/>
		<path id="Caminho_273" class="st0" d="M567.84,484.26c8.33,9.93,8.33,24.4,0,34.33C559.51,508.66,559.51,494.19,567.84,484.26
			 M567.84,481.03c-3.51,3.5-6.05,7.84-7.37,12.61c-2.8,10.03,0.02,20.79,7.37,28.17C579.1,510.55,579.1,492.3,567.84,481.03z"/>
		<path id="Caminho_274" class="st0" d="M588.19,513.39c-7.64-0.01-14.96,3.03-20.36,8.43C575.47,521.83,582.8,518.79,588.19,513.39
			z"/>
	</g>
</g>
</svg>
