<?xml version="1.0" encoding="utf-8"?>
<!-- Generator: Adobe Illustrator 25.0.1, SVG Export Plug-In . SVG Version: 6.00 Build 0)  -->
<svg version="1.1" id="Camada_1" xmlns="http://www.w3.org/2000/svg" xmlns:xlink="http://www.w3.org/1999/xlink" x="0px" y="0px"
	 viewBox="0 0 58.72 60.78" style="enable-background:new 0 0 58.72 60.78;" xml:space="preserve">
<style type="text/css">
	.st0{fill:#38675D;}
	.st1{fill:#FDA377;}
	.st2{fill:#4D8D7F;}
	.st3{fill:#FFFFFF;}
	.st4{fill:#FFC9B2;}
	.st5{fill:none;}
	.st6{fill:#083B30;}
</style>
<ellipse id="Elipse_42_3_" class="st1" cx="28.98" cy="31.35" rx="26.5" ry="26"/>
<path id="Caminho_264_1_" class="st5" d="M11.08,15h35.11v35.11H11.08V15z"/>
<path id="Caminho_265_1_" class="st0" d="M35.22,19.39c-2.53,0.02-4.93,1.13-6.58,3.06c-1.65-1.92-4.05-3.04-6.58-3.06
	c-4.4-0.04-8,3.49-8.05,7.89c0,0.05,0,0.1,0,0.16c0,5.53,4.97,10.04,12.51,16.88l2.12,1.92l2.12-1.93
	c7.53-6.83,12.51-11.34,12.51-16.87c0.04-4.4-3.49-8-7.89-8.05C35.32,19.39,35.27,19.39,35.22,19.39z M28.78,42.14l-0.15,0.15
	l-0.15-0.15c-6.97-6.31-11.56-10.48-11.56-14.7c-0.07-2.76,2.12-5.05,4.88-5.12c0.08,0,0.16,0,0.25,0c2.27,0.01,4.32,1.37,5.22,3.45
	h2.74c0.89-2.09,2.94-3.45,5.21-3.45c2.76-0.07,5.05,2.12,5.12,4.88c0,0.08,0,0.16,0,0.25C40.34,31.66,35.75,35.83,28.78,42.14z"/>
</svg>
