<?xml version="1.0" encoding="utf-8"?>
<!-- Generator: Adobe Illustrator 25.0.1, SVG Export Plug-In . SVG Version: 6.00 Build 0)  -->
<svg version="1.1" id="Camada_1" xmlns="http://www.w3.org/2000/svg" xmlns:xlink="http://www.w3.org/1999/xlink" x="0px" y="0px"
	 viewBox="0 0 55.75 53" style="enable-background:new 0 0 55.75 53;" xml:space="preserve">
<style type="text/css">
	.st0{fill:#38675D;}
	.st1{fill:#FDA377;}
	.st2{fill:#4D8D7F;}
	.st3{fill:#FFFFFF;}
	.st4{fill:#FFC9B2;}
	.st5{fill:none;}
	.st6{fill:#083B30;}
</style>
<ellipse id="Elipse_42" class="st1" cx="27.97" cy="26.8" rx="26.5" ry="26"/>
<path id="Caminho_136" class="st5" d="M12.36,11.02h32v32h-32V11.02z"/>
<path id="Caminho_137" class="st0" d="M41.69,18.65l-6.13-5.15l-1.72,2.04l6.13,5.15L41.69,18.65z M22.86,15.54l-1.71-2.04
	l-6.13,5.13l1.72,2.04L22.86,15.54z M28.35,16.36c-6.63,0-12,5.37-12,12s5.37,12,12,12s12-5.37,12-12
	C40.35,21.73,34.98,16.36,28.35,16.36L28.35,16.36z M28.35,37.69c-5.16,0-9.33-4.18-9.33-9.33s4.18-9.33,9.33-9.33
	s9.33,4.18,9.33,9.33l0,0c0,5.15-4.17,9.33-9.32,9.33C28.36,37.69,28.36,37.69,28.35,37.69L28.35,37.69z M26.41,30.4l-2.84-2.84
	l-1.41,1.41l4.24,4.24l8-8l-1.41-1.41L26.41,30.4L26.41,30.4z"/>
</svg>
