<?xml version="1.0" encoding="utf-8"?>
<!-- Generator: Adobe Illustrator 25.0.1, SVG Export Plug-In . SVG Version: 6.00 Build 0)  -->
<svg version="1.1" id="Camada_1" xmlns="http://www.w3.org/2000/svg" xmlns:xlink="http://www.w3.org/1999/xlink" x="0px" y="0px"
	 viewBox="0 0 42.19 47.3" style="enable-background:new 0 0 42.19 47.3;" xml:space="preserve">
<style type="text/css">
	.st0{fill:#38675D;}
	.st1{fill:#FDA377;}
	.st2{fill:#4D8D7F;}
	.st3{fill:#FFFFFF;}
	.st4{fill:#FFC9B2;}
	.st5{fill:none;}
	.st6{fill:#083B30;}
</style>
<path id="Caminho_74" class="st0" d="M27.49,7H13.67C8.04,7,3.48,11.56,3.48,17.18v13.82c0.01,5.62,4.56,10.18,10.19,10.19h13.82
	c5.63-0.01,10.18-4.56,10.19-10.19V17.18C37.67,11.56,33.11,7,27.49,7z M34.24,31.01c0,3.73-3.02,6.75-6.75,6.75H13.67
	c-3.73,0-6.75-3.02-6.75-6.75V17.18c0-3.73,3.02-6.75,6.75-6.75h13.82c3.73,0,6.75,3.02,6.75,6.75V31.01z"/>
<path id="Caminho_75" class="st0" d="M20.58,15.25c-4.88,0-8.85,3.96-8.85,8.85s3.96,8.85,8.85,8.85s8.85-3.96,8.85-8.85
	C29.42,19.21,25.46,15.25,20.58,15.25z M20.58,29.5c-2.98,0-5.4-2.42-5.4-5.4s2.42-5.4,5.4-5.4c2.98,0,5.4,2.42,5.4,5.4v0
	C25.98,27.08,23.56,29.5,20.58,29.5z"/>
<ellipse id="Elipse_5" class="st0" cx="29.44" cy="15.32" rx="2.12" ry="2.12"/>
</svg>
