<?xml version="1.0" encoding="utf-8"?>
<!-- Generator: Adobe Illustrator 25.0.1, SVG Export Plug-In . SVG Version: 6.00 Build 0)  -->
<svg version="1.1" id="Camada_1" xmlns="http://www.w3.org/2000/svg" xmlns:xlink="http://www.w3.org/1999/xlink" x="0px" y="0px"
	 viewBox="0 0 58.72 61.71" style="enable-background:new 0 0 58.72 61.71;" xml:space="preserve">
<style type="text/css">
	.st0{fill:#38675D;}
	.st1{fill:#FDA377;}
	.st2{fill:#4D8D7F;}
	.st3{fill:#FFFFFF;}
	.st4{fill:#FFC9B2;}
	.st5{fill:none;}
	.st6{fill:#083B30;}
</style>
<ellipse id="Elipse_42_2_" class="st1" cx="30.73" cy="30.92" rx="26.5" ry="26"/>
<g id="Bounding_Boxes" transform="translate(8.594 10.529)">
	<path id="Caminho_2439" class="st5" d="M4.23,4.92h35.8v35.8H4.23V4.92z"/>
</g>
<g id="Outline" transform="translate(16.053 13.513)">
	<g id="Grupo_86">
		<path id="Caminho_2440" class="st0" d="M14.67,4.92c-5.76,0-10.44,4.66-10.44,10.43c0,0.01,0,0.01,0,0.02
			c0,7.83,10.44,19.39,10.44,19.39S25.11,23.2,25.11,15.37c0-5.76-4.66-10.44-10.43-10.44C14.68,4.92,14.68,4.92,14.67,4.92z
			 M7.21,15.37c0-4.12,3.34-7.46,7.46-7.46s7.46,3.34,7.46,7.46c0,0,0,0,0,0c0,4.3-4.3,10.73-7.46,14.74
			C11.57,26.12,7.21,19.62,7.21,15.37z"/>
		<circle id="Elipse_87" class="st0" cx="14.67" cy="15.36" r="3.73"/>
	</g>
</g>
</svg>
