<?xml version="1.0" encoding="utf-8"?>
<!-- Generator: Adobe Illustrator 24.3.0, SVG Export Plug-In . SVG Version: 6.00 Build 0)  -->
<svg version="1.1" id="Camada_1" xmlns="http://www.w3.org/2000/svg" xmlns:xlink="http://www.w3.org/1999/xlink" x="0px" y="0px"
	 viewBox="0 0 800 800" style="enable-background:new 0 0 800 800;" xml:space="preserve">
<style type="text/css">
	.st0{fill:none;stroke:#4F4F4F;stroke-width:0.25;stroke-miterlimit:10;}
	.st1{fill:none;stroke:#468174;stroke-width:0.25;stroke-miterlimit:10;}
	.st2{fill:none;stroke:#020101;stroke-width:0.25;stroke-miterlimit:10;stroke-dasharray:2.9857,2.9857;}
	.st3{fill:none;stroke:#020101;stroke-width:0.25;stroke-miterlimit:10;}
	.st4{opacity:0.66;}
	.st5{fill:#DEDFE0;}
	.st6{fill:#D3D3D3;}
	.st7{fill:#FDA377;}
	.st8{fill:#38675D;}
	.st9{fill:#468174;}
	.st10{fill:#FFAE8C;}
	.st11{fill:#FFC9B2;}
	.st12{fill:#4D8D7F;}
	.st13{fill:#FFE4D9;}
	.st14{fill:#58A292;}
	.st15{fill:none;stroke:#B5B5B5;stroke-width:0.25;stroke-miterlimit:10;stroke-dasharray:3;}
	.st16{fill:none;stroke:#38675D;stroke-width:0.25;stroke-miterlimit:10;stroke-dasharray:3;}
	.st17{fill:none;stroke:#020101;stroke-width:0.25;stroke-miterlimit:10;stroke-dasharray:2;}
	.st18{fill:#B7B6B6;}
	.st19{fill:#013401;}
	.st20{fill:#033801;}
	.st21{fill:#023D01;}
	.st22{fill:#024401;}
	.st23{fill:#0C4701;}
	.st24{fill:#084701;}
	.st25{fill:#063F01;}
	.st26{fill:#023B01;}
	.st27{fill:#054201;}
	.st28{fill:#126101;}
	.st29{fill:#0D5501;}
	.st30{fill:#3F8D2D;}
	.st31{fill:#0B5402;}
	.st32{fill:#054B01;}
	.st33{fill:#479637;}
	.st34{fill:#053A04;}
	.st35{fill:#044101;}
	.st36{fill:#134B02;}
	.st37{fill:#044302;}
	.st38{fill:#186309;}
	.st39{fill:#0A5201;}
	.st40{fill:#499539;}
	.st41{fill:#054703;}
	.st42{fill:#090806;}
	.st43{fill:#135902;}
	.st44{fill:#4B9235;}
	.st45{fill:#115F02;}
	.st46{fill:#063C01;}
	.st47{fill:#064403;}
	.st48{fill:#0B6C02;}
	.st49{fill:#0C5A02;}
	.st50{fill:#105402;}
	.st51{fill:#39711F;}
	.st52{fill:#2F5708;}
	.st53{fill:#094701;}
	.st54{fill:#1B7203;}
	.st55{fill:#283E05;}
	.st56{fill:#2E510A;}
	.st57{fill:#509F39;}
	.st58{fill:#2A7720;}
	.st59{fill:#1A6103;}
	.st60{fill:#2E5108;}
	.st61{fill:#2F7C20;}
	.st62{fill:#084F01;}
	.st63{fill:#469439;}
	.st64{fill:#3A8A2D;}
	.st65{fill:#226F17;}
	.st66{fill:#110E06;}
	.st67{fill:#247504;}
	.st68{fill:#073606;}
	.st69{fill:#135A06;}
	.st70{fill:#054A03;}
	.st71{fill:#479333;}
	.st72{fill:#317B1B;}
	.st73{fill:#166303;}
	.st74{fill:#074204;}
	.st75{fill:#0F5102;}
	.st76{fill:#042F02;}
	.st77{fill:#364505;}
	.st78{fill:#7CAD5E;}
	.st79{fill:#083E04;}
	.st80{fill:#094B01;}
	.st81{fill:#176D02;}
	.st82{fill:#0D5D04;}
	.st83{fill:#165E0A;}
	.st84{fill:#126406;}
	.st85{fill:#094601;}
	.st86{fill:#074D02;}
	.st87{fill:#739D4A;}
	.st88{fill:#0C5802;}
	.st89{fill:#449138;}
	.st90{fill:#1C6F02;}
	.st91{fill:#287F09;}
	.st92{fill:#44923A;}
	.st93{fill:#0C5102;}
	.st94{fill:#0C5806;}
	.st95{fill:#1A640F;}
	.st96{fill:#2A810F;}
	.st97{fill:#42882B;}
	.st98{fill:#7AB46D;}
	.st99{fill:#1F7218;}
	.st100{fill:#7EB970;}
	.st101{fill:#105F04;}
	.st102{fill:#3D8C29;}
	.st103{fill:#196A02;}
	.st104{fill:#70B366;}
	.st105{fill:#456E27;}
	.st106{fill:#8BBE7C;}
	.st107{fill:#073F05;}
	.st108{fill:#3F8B23;}
	.st109{fill:#69A849;}
	.st110{fill:#609252;}
	.st111{fill:#368426;}
	.st112{fill:#1B6410;}
	.st113{fill:#5FAF58;}
	.st114{fill:#3D7B2C;}
	.st115{fill:#115A03;}
	.st116{fill:#408730;}
	.st117{fill:#589638;}
	.st118{fill:#509C41;}
	.st119{fill:#79B85F;}
	.st120{fill:#1C2109;}
	.st121{fill:#166502;}
	.st122{fill:#288806;}
	.st123{fill:#619850;}
	.st124{fill:#458230;}
	.st125{fill:#185702;}
	.st126{fill:#608049;}
	.st127{fill:#1C6C0D;}
	.st128{fill:#3B842B;}
	.st129{fill:#67AA4C;}
	.st130{fill:#318619;}
	.st131{fill:#579D4A;}
	.st132{fill:#135201;}
	.st133{fill:#409331;}
	.st134{fill:#0B4108;}
	.st135{fill:#27791F;}
	.st136{fill:#084D04;}
	.st137{fill:#56A13E;}
	.st138{fill:#1D1806;}
	.st139{fill:#628D38;}
	.st140{fill:#59A151;}
	.st141{fill:#2D4B0A;}
	.st142{fill:#3A6F1C;}
	.st143{fill:#110D0A;}
	.st144{fill:#146202;}
	.st145{fill:#3B8412;}
	.st146{fill:#3A7913;}
	.st147{fill:#1D7506;}
	.st148{fill:#1C6D07;}
	.st149{fill:#73AE5F;}
	.st150{fill:#78B470;}
	.st151{fill:#0A4A02;}
	.st152{fill:#6C9E4F;}
	.st153{fill:#225106;}
	.st154{fill:#5C7045;}
	.st155{fill:#318E14;}
	.st156{fill:#478D25;}
	.st157{fill:#124406;}
	.st158{fill:#28440B;}
	.st159{fill:#399C1B;}
	.st160{fill:#489239;}
	.st161{fill:#85B467;}
	.st162{fill:#257C06;}
	.st163{fill:#247017;}
	.st164{fill:#5B7844;}
	.st165{fill:#498D37;}
	.st166{fill:#51983F;}
	.st167{fill:#1B6718;}
	.st168{fill:#16180A;}
	.st169{fill:#287E07;}
	.st170{fill:#598F3D;}
	.st171{fill:#2A7F08;}
	.st172{fill:#4A963C;}
	.st173{fill:#6DAF5F;}
	.st174{fill:#419229;}
	.st175{fill:#458737;}
	.st176{fill:#27870D;}
	.st177{fill:#368D0C;}
	.st178{fill:#459132;}
	.st179{fill:#2C751E;}
	.st180{fill:#579C4A;}
	.st181{fill:#60A843;}
	.st182{fill:#379D21;}
	.st183{fill:#4A9E31;}
	.st184{fill:#0C2E09;}
	.st185{fill:#4F9130;}
	.st186{fill:#044301;}
	.st187{fill:#A4C88F;}
	.st188{fill:#4D9130;}
	.st189{fill:#206A12;}
	.st190{fill:#17610D;}
	.st191{fill:#2F8A0D;}
	.st192{fill:#5B9B41;}
	.st193{fill:#69AE5B;}
	.st194{fill:#96C08F;}
	.st195{fill:#4C8B4F;}
	.st196{fill:#6CAE5F;}
	.st197{fill:#051903;}
	.st198{fill:#277314;}
	.st199{fill:#449123;}
	.st200{fill:#348230;}
	.st201{fill:#2F8513;}
	.st202{fill:#165807;}
	.st203{fill:#2F4B0D;}
	.st204{fill:#619533;}
	.st205{fill:#4A9339;}
	.st206{fill:#6CAB4B;}
	.st207{fill:#509D3F;}
	.st208{fill:#12570C;}
	.st209{fill:#146209;}
	.st210{fill:#55B32A;}
	.st211{fill:#406215;}
	.st212{fill:#2C520B;}
	.st213{fill:#1A430F;}
	.st214{fill:#7BB773;}
	.st215{fill:#3D7D2B;}
	.st216{fill:#075003;}
	.st217{fill:#4B943A;}
	.st218{fill:#115903;}
	.st219{fill:#1E3303;}
	.st220{fill:#49841B;}
	.st221{fill:#053905;}
	.st222{fill:#267417;}
	.st223{fill:#073603;}
	.st224{fill:#77A369;}
	.st225{fill:#92C582;}
	.st226{fill:#689F56;}
	.st227{fill:#90B485;}
	.st228{fill:#255B15;}
	.st229{fill:#53863D;}
	.st230{fill:#69A94F;}
	.st231{fill:#70AB6F;}
	.st232{fill:#1B7800;}
	.st233{fill:#538821;}
	.st234{fill:#A6BD8E;}
	.st235{fill:#368028;}
	.st236{fill:#86BB6A;}
	.st237{fill:#45A022;}
	.st238{fill:#20760B;}
	.st239{fill:#82B676;}
	.st240{fill:#28711B;}
	.st241{fill:#4C742C;}
	.st242{fill:#3E9226;}
	.st243{fill:#6CA46A;}
	.st244{fill:#498B2F;}
	.st245{fill:#316319;}
	.st246{fill:#65A547;}
	.st247{fill:#2E8714;}
	.st248{fill:#499B55;}
	.st249{fill:#3A8E13;}
	.st250{fill:#6BAD6C;}
	.st251{fill:#8DBA87;}
	.st252{fill:#35420C;}
	.st253{fill:#60894F;}
	.st254{fill:#45722A;}
	.st255{fill:#87AE81;}
	.st256{fill:#0F4D0F;}
	.st257{fill:#7DB17F;}
	.st258{fill:#1F912D;}
	.st259{fill:#316624;}
	.st260{fill:#4E7E3E;}
	.st261{fill:#45763A;}
	.st262{fill:#18580E;}
	.st263{fill:#002B00;}
	.st264{fill:#033901;}
	.st265{fill:#012F00;}
	.st266{fill:#3C9204;}
	.st267{fill:#0E4C02;}
	.st268{fill:#0C4402;}
	.st269{fill:#105102;}
	.st270{fill:#175901;}
	.st271{fill:#125203;}
	.st272{fill:#125103;}
	.st273{fill:#105405;}
	.st274{fill:#013000;}
	.st275{fill:#023501;}
	.st276{fill:#033E01;}
	.st277{fill:#012800;}
	.st278{fill:#012201;}
	.st279{fill:#074901;}
	.st280{fill:#023900;}
	.st281{fill:#084401;}
	.st282{fill:#0D4D01;}
	.st283{fill:#0E4B01;}
	.st284{fill:#115001;}
	.st285{fill:#0F5B02;}
	.st286{fill:#044001;}
	.st287{fill:#0E5102;}
	.st288{fill:#075101;}
	.st289{fill:#044C01;}
	.st290{fill:#0F5303;}
	.st291{fill:#094A01;}
	.st292{fill:#074601;}
	.st293{fill:#094901;}
	.st294{fill:#135D01;}
	.st295{fill:#126402;}
	.st296{fill:#42941B;}
	.st297{fill:#1D720B;}
	.st298{fill:#1B6906;}
	.st299{fill:#033F01;}
	.st300{fill:#044A00;}
	.st301{fill:#378025;}
	.st302{fill:#41852D;}
	.st303{fill:#39842B;}
	.st304{fill:#479334;}
	.st305{fill:#438E36;}
	.st306{fill:#0E5801;}
	.st307{fill:#0A4C01;}
	.st308{fill:#146101;}
	.st309{fill:#0D5601;}
	.st310{fill:#085201;}
	.st311{fill:#0B5001;}
	.st312{fill:#115A01;}
	.st313{fill:#408E30;}
	.st314{fill:#418E34;}
	.st315{fill:#3B862B;}
	.st316{fill:#449136;}
	.st317{fill:#519C41;}
	.st318{fill:#0A5101;}
	.st319{fill:#0F5C02;}
	.st320{fill:#084B01;}
	.st321{fill:#1D6B03;}
	.st322{fill:#125B01;}
	.st323{fill:#104201;}
	.st324{fill:#0F4601;}
	.st325{fill:#0C3F01;}
	.st326{fill:#0D5701;}
	.st327{fill:#084E01;}
	.st328{fill:#115F01;}
	.st329{fill:#145A07;}
	.st330{fill:#1E6E0E;}
	.st331{fill:#125303;}
	.st332{fill:#3D872E;}
	.st333{fill:#348329;}
	.st334{fill:#368227;}
	.st335{fill:#3D8A30;}
	.st336{fill:#418F39;}
	.st337{fill:#3E8B2C;}
	.st338{fill:#408B33;}
	.st339{fill:#075401;}
	.st340{fill:#073C01;}
	.st341{fill:#0A4201;}
	.st342{fill:#0E4B02;}
	.st343{fill:#408A30;}
	.st344{fill:#459131;}
	.st345{fill:#67A049;}
	.st346{fill:#6AA14A;}
	.st347{fill:#6BA34E;}
	.st348{fill:#7DAF62;}
	.st349{fill:#83B163;}
	.st350{fill:#0F5001;}
	.st351{fill:#0D4A01;}
	.st352{fill:#0B4801;}
	.st353{fill:#105301;}
	.st354{fill:#308417;}
	.st355{fill:#207D09;}
	.st356{fill:#5EA901;}
	.st357{fill:#319406;}
	.st358{fill:#267B02;}
	.st359{fill:#136002;}
	.st360{fill:#4B7C26;}
	.st361{fill:#55882C;}
	.st362{fill:#385F04;}
	.st363{fill:#345D04;}
	.st364{fill:#054101;}
	.st365{fill:#0D5203;}
	.st366{fill:#105005;}
	.st367{fill:#252215;}
	.st368{fill:#539E40;}
	.st369{fill:#57A041;}
	.st370{fill:#6EAF58;}
	.st371{fill:#61A74F;}
	.st372{fill:#59A546;}
	.st373{fill:#76B258;}
	.st374{fill:#62AA4B;}
	.st375{fill:#88C072;}
	.st376{fill:#338028;}
	.st377{fill:#4C973F;}
	.st378{fill:#37812A;}
	.st379{fill:#17650F;}
	.st380{fill:#266E14;}
	.st381{fill:#216910;}
	.st382{fill:#478E38;}
	.st383{fill:#2D7120;}
	.st384{fill:#26731E;}
	.st385{fill:#0F5101;}
	.st386{fill:#3B8D2E;}
	.st387{fill:#328628;}
	.st388{fill:#55A044;}
	.st389{fill:#529F42;}
	.st390{fill:#277B1C;}
	.st391{fill:#308324;}
	.st392{fill:#2B8221;}
	.st393{fill:#449535;}
	.st394{fill:#17660B;}
	.st395{fill:#1A6801;}
	.st396{fill:#145A09;}
	.st397{fill:#104F03;}
	.st398{fill:#236B12;}
	.st399{fill:#438B2E;}
	.st400{fill:#60A048;}
	.st401{fill:#0D5101;}
	.st402{fill:#11640C;}
	.st403{fill:#84AD60;}
	.st404{fill:#85AE60;}
	.st405{fill:#7BA453;}
	.st406{fill:#8AB567;}
	.st407{fill:#43913A;}
	.st408{fill:#4E973E;}
	.st409{fill:#4E993E;}
	.st410{fill:#55A046;}
	.st411{fill:#186201;}
	.st412{fill:#136101;}
	.st413{fill:#36862D;}
	.st414{fill:#36852B;}
	.st415{fill:#17670E;}
	.st416{fill:#14670E;}
	.st417{fill:#2D891C;}
	.st418{fill:#338C14;}
	.st419{fill:#448A2F;}
	.st420{fill:#6AA649;}
	.st421{fill:#4F9137;}
	.st422{fill:#66A042;}
	.st423{fill:#60A751;}
	.st424{fill:#59A24C;}
	.st425{fill:#86BE79;}
	.st426{fill:#6AAD59;}
	.st427{fill:#25781E;}
	.st428{fill:#196B11;}
	.st429{fill:#37872E;}
	.st430{fill:#116307;}
	.st431{fill:#328326;}
	.st432{fill:#338624;}
	.st433{fill:#135A01;}
	.st434{fill:#2B821E;}
	.st435{fill:#47973C;}
	.st436{fill:#55993C;}
	.st437{fill:#589D42;}
	.st438{fill:#3D8927;}
	.st439{fill:#428C2A;}
	.st440{fill:#34801E;}
	.st441{fill:#16670B;}
	.st442{fill:#156305;}
	.st443{fill:#297A1F;}
	.st444{fill:#0E5201;}
	.st445{fill:#2D7622;}
	.st446{fill:#165D0C;}
	.st447{fill:#1E6912;}
	.st448{fill:#165B0A;}
	.st449{fill:#267914;}
	.st450{fill:#2F7221;}
	.st451{fill:#277617;}
	.st452{fill:#569D40;}
	.st453{fill:#3D882E;}
	.st454{fill:#4D953D;}
	.st455{fill:#458F34;}
	.st456{fill:#619D41;}
	.st457{fill:#3B8224;}
	.st458{fill:#377D1F;}
	.st459{fill:#439333;}
	.st460{fill:#3C8C2F;}
	.st461{fill:#409134;}
	.st462{fill:#2C8A18;}
	.st463{fill:#1D7B02;}
	.st464{fill:#2E7821;}
	.st465{fill:#246F15;}
	.st466{fill:#317A23;}
	.st467{fill:#206C15;}
	.st468{fill:#247312;}
	.st469{fill:#307821;}
	.st470{fill:#3C832A;}
	.st471{fill:#398229;}
	.st472{fill:#74B35A;}
	.st473{fill:#227509;}
	.st474{fill:#257503;}
	.st475{fill:#5CA44D;}
	.st476{fill:#1D7410;}
	.st477{fill:#257A17;}
	.st478{fill:#0F5003;}
	.st479{fill:#75A14C;}
	.st480{fill:#4B983F;}
	.st481{fill:#153F05;}
	.st482{fill:#4D922D;}
	.st483{fill:#176801;}
	.st484{fill:#26840E;}
	.st485{fill:#257914;}
	.st486{fill:#105B02;}
	.st487{fill:#165B07;}
	.st488{fill:#195B08;}
	.st489{fill:#4B912F;}
	.st490{fill:#649839;}
	.st491{fill:#369220;}
	.st492{fill:#3B892D;}
	.st493{fill:#5E9E4C;}
	.st494{fill:#8EC662;}
	.st495{fill:#217516;}
	.st496{fill:#227419;}
	.st497{fill:#3B7D25;}
	.st498{fill:#318325;}
	.st499{fill:#89C87B;}
	.st500{fill:#257A03;}
	.st501{fill:#5CA53A;}
	.st502{fill:#86BD6D;}
	.st503{fill:#0F5B05;}
	.st504{fill:#31842A;}
	.st505{fill:#030D05;}
	.st506{fill:#509B2F;}
	.st507{fill:#429020;}
	.st508{fill:#1A6B04;}
	.st509{fill:#136503;}
	.st510{fill:#719D43;}
	.st511{fill:#33811E;}
	.st512{fill:#1C6D13;}
	.st513{fill:#115F09;}
	.st514{fill:#3F8736;}
	.st515{fill:#0A4A01;}
	.st516{fill:#1E6C18;}
	.st517{fill:#276D16;}
	.st518{fill:#27751C;}
	.st519{fill:#4B8E40;}
	.st520{fill:#1D6304;}
	.st521{fill:#409607;}
	.st522{fill:#378B02;}
	.st523{fill:#539D39;}
	.st524{fill:#4B9D0B;}
	.st525{fill:#1A5F01;}
	.st526{fill:#54A62B;}
	.st527{fill:#1D6504;}
	.st528{fill:#2E7A04;}
	.st529{fill:#69A148;}
	.st530{fill:#308107;}
	.st531{fill:#012D00;}
	.st532{fill:#206704;}
	.st533{fill:#195B05;}
	.st534{fill:#1B5C05;}
	.st535{fill:#023401;}
	.st536{fill:#064601;}
	.st537{fill:#0C4A04;}
	.st538{fill:#114803;}
	.st539{fill:#0B4E02;}
	.st540{fill:#0B2D01;}
	.st541{fill:#0D5201;}
	.st542{fill:#125802;}
	.st543{fill:#145B03;}
	.st544{fill:#1C6C0B;}
	.st545{fill:#033B01;}
	.st546{fill:#0C5001;}
	.st547{fill:#0E5701;}
	.st548{fill:#145702;}
	.st549{fill:#124A01;}
	.st550{fill:#186207;}
	.st551{fill:#165E05;}
	.st552{fill:#145507;}
	.st553{fill:#308216;}
	.st554{fill:#39861C;}
	.st555{fill:#24750A;}
	.st556{fill:#3B8D1C;}
	.st557{fill:#2E7D14;}
	.st558{fill:#105204;}
	.st559{fill:#125408;}
	.st560{fill:#0A5001;}
	.st561{fill:#185D04;}
	.st562{fill:#195D05;}
	.st563{fill:#1E6304;}
	.st564{fill:#338A19;}
	.st565{fill:#53A61E;}
	.st566{fill:#1F700C;}
	.st567{fill:#459910;}
	.st568{fill:#0E5C02;}
	.st569{fill:#1D780B;}
	.st570{fill:#227D14;}
	.st571{fill:#176F02;}
	.st572{fill:#51A11B;}
	.st573{fill:#82BD5E;}
	.st574{fill:#3A942B;}
	.st575{fill:#247F1A;}
	.st576{fill:#3A832A;}
	.st577{fill:#488A31;}
	.st578{fill:#337920;}
	.st579{fill:#2D791D;}
	.st580{fill:#508F3B;}
	.st581{fill:#347A27;}
	.st582{fill:#2B6D1D;}
	.st583{fill:#0C5100;}
	.st584{fill:#1B6A08;}
	.st585{fill:#1D6E0E;}
	.st586{fill:#1A6702;}
	.st587{fill:#3C8429;}
	.st588{fill:#589F47;}
	.st589{fill:#286A15;}
	.st590{fill:#337C23;}
	.st591{fill:#327720;}
	.st592{fill:#2B6F1D;}
	.st593{fill:#337B1F;}
	.st594{fill:#0F5601;}
	.st595{fill:#156002;}
	.st596{fill:#156201;}
	.st597{fill:#0C5A01;}
	.st598{fill:#146306;}
	.st599{fill:#1A6B0E;}
	.st600{fill:#186306;}
	.st601{fill:#247118;}
	.st602{fill:#186608;}
	.st603{fill:#22570B;}
	.st604{fill:#0A4F01;}
	.st605{fill:#1C6611;}
	.st606{fill:#185F0C;}
	.st607{fill:#2E7A20;}
	.st608{fill:#4A9139;}
	.st609{fill:#206A16;}
	.st610{fill:#307C23;}
	.st611{fill:#28751C;}
	.st612{fill:#408E35;}
	.st613{fill:#2D771E;}
	.st614{fill:#468F36;}
	.st615{fill:#033D01;}
	.st616{fill:#0C5501;}
	.st617{fill:#126102;}
	.st618{fill:#074A01;}
	.st619{fill:#0D5C02;}
	.st620{fill:#093C02;}
	.st621{fill:#82B678;}
	.st622{fill:#418A29;}
	.st623{fill:#81AE5B;}
	.st624{fill:#79A64E;}
	.st625{fill:#7CAD59;}
	.st626{fill:#0F5901;}
	.st627{fill:#155E02;}
	.st628{fill:#599F36;}
	.st629{fill:#32900D;}
	.st630{fill:#3B8D1D;}
	.st631{fill:#10710C;}
	.st632{fill:#4B9D03;}
	.st633{fill:#337D02;}
	.st634{fill:#87B403;}
	.st635{fill:#076E03;}
	.st636{fill:#246C07;}
	.st637{fill:#1F6905;}
	.st638{fill:#5DA74E;}
	.st639{fill:#469739;}
	.st640{fill:#58A348;}
	.st641{fill:#69AD55;}
	.st642{fill:#4B9438;}
	.st643{fill:#3C902E;}
	.st644{fill:#76B460;}
	.st645{fill:#69AF5F;}
	.st646{fill:#317B1C;}
	.st647{fill:#589F4D;}
	.st648{fill:#2C7517;}
	.st649{fill:#27730F;}
	.st650{fill:#367C23;}
	.st651{fill:#2F7C18;}
	.st652{fill:#2B7520;}
	.st653{fill:#2A7F21;}
	.st654{fill:#308522;}
	.st655{fill:#338626;}
	.st656{fill:#23791B;}
	.st657{fill:#469634;}
	.st658{fill:#227716;}
	.st659{fill:#1E700E;}
	.st660{fill:#1D7312;}
	.st661{fill:#19620B;}
	.st662{fill:#105501;}
	.st663{fill:#0E5A02;}
	.st664{fill:#226B07;}
	.st665{fill:#17600D;}
	.st666{fill:#0E5601;}
	.st667{fill:#257C1B;}
	.st668{fill:#23791C;}
	.st669{fill:#59A542;}
	.st670{fill:#4D923F;}
	.st671{fill:#5DA44D;}
	.st672{fill:#61A852;}
	.st673{fill:#5EAA41;}
	.st674{fill:#458F29;}
	.st675{fill:#67AC5E;}
	.st676{fill:#277721;}
	.st677{fill:#216A15;}
	.st678{fill:#24781A;}
	.st679{fill:#1C6F15;}
	.st680{fill:#238113;}
	.st681{fill:#499138;}
	.st682{fill:#317B21;}
	.st683{fill:#489237;}
	.st684{fill:#529D44;}
	.st685{fill:#6CB05F;}
	.st686{fill:#4E993F;}
	.st687{fill:#328220;}
	.st688{fill:#499530;}
	.st689{fill:#58A04B;}
	.st690{fill:#0B5701;}
	.st691{fill:#054701;}
	.st692{fill:#186C09;}
	.st693{fill:#115E02;}
	.st694{fill:#3C8D30;}
	.st695{fill:#116302;}
	.st696{fill:#0B5401;}
	.st697{fill:#2B7E19;}
	.st698{fill:#428E31;}
	.st699{fill:#68A94C;}
	.st700{fill:#458E2D;}
	.st701{fill:#186C0E;}
	.st702{fill:#115E08;}
	.st703{fill:#1E6D19;}
	.st704{fill:#216611;}
	.st705{fill:#125807;}
	.st706{fill:#589439;}
	.st707{fill:#398627;}
	.st708{fill:#3C8C2A;}
	.st709{fill:#328020;}
	.st710{fill:#449429;}
	.st711{fill:#479528;}
	.st712{fill:#116103;}
	.st713{fill:#55A636;}
	.st714{fill:#6DAF55;}
	.st715{fill:#65A94E;}
	.st716{fill:#4C9635;}
	.st717{fill:#59A142;}
	.st718{fill:#4B9638;}
	.st719{fill:#409030;}
	.st720{fill:#569F47;}
	.st721{fill:#66AA50;}
	.st722{fill:#59A041;}
	.st723{fill:#4E9033;}
	.st724{fill:#529137;}
	.st725{fill:#449438;}
	.st726{fill:#449336;}
	.st727{fill:#4C993F;}
	.st728{fill:#3E982B;}
	.st729{fill:#3D932B;}
	.st730{fill:#338E22;}
	.st731{fill:#1F7912;}
	.st732{fill:#368D26;}
	.st733{fill:#459D2F;}
	.st734{fill:#3D822B;}
	.st735{fill:#276A19;}
	.st736{fill:#2B6F1A;}
	.st737{fill:#469731;}
	.st738{fill:#1B6D01;}
	.st739{fill:#136607;}
	.st740{fill:#176B07;}
	.st741{fill:#217713;}
	.st742{fill:#11620A;}
	.st743{fill:#0C5E02;}
	.st744{fill:#89AD5C;}
	.st745{fill:#57A741;}
	.st746{fill:#20770B;}
	.st747{fill:#297B1D;}
	.st748{fill:#37872C;}
	.st749{fill:#1D7004;}
	.st750{fill:#2E8220;}
	.st751{fill:#318525;}
	.st752{fill:#0C4E01;}
	.st753{fill:#25700D;}
	.st754{fill:#338019;}
	.st755{fill:#2E8B1A;}
	.st756{fill:#47A131;}
	.st757{fill:#12610A;}
	.st758{fill:#227B0C;}
	.st759{fill:#88AE57;}
	.st760{fill:#2C8021;}
	.st761{fill:#1E7116;}
	.st762{fill:#4A9641;}
	.st763{fill:#35812C;}
	.st764{fill:#297321;}
	.st765{fill:#2C7501;}
	.st766{fill:#4BA322;}
	.st767{fill:#5DA441;}
	.st768{fill:#65AB4F;}
	.st769{fill:#469131;}
	.st770{fill:#58AC1F;}
	.st771{fill:#3C9002;}
	.st772{fill:#206A03;}
	.st773{fill:#2A8B15;}
	.st774{fill:#3A8F23;}
	.st775{fill:#32891B;}
	.st776{fill:#1F610C;}
	.st777{fill:#57A042;}
	.st778{fill:#4E9D38;}
	.st779{fill:#002901;}
	.st780{fill:#002501;}
	.st781{fill:#034100;}
	.st782{fill:#4DA61B;}
	.st783{fill:#48A00F;}
	.st784{fill:#277205;}
	.st785{fill:#50A621;}
	.st786{fill:#011F01;}
	.st787{fill:#136009;}
	.st788{fill:#135C02;}
	.st789{fill:#2B7716;}
	.st790{fill:#206E0C;}
	.st791{fill:#266F1E;}
	.st792{fill:#24781E;}
	.st793{fill:#3A8A33;}
	.st794{fill:#246609;}
	.st795{fill:#136306;}
	.st796{fill:#0F5801;}
	.st797{fill:#0B5901;}
	.st798{fill:#286F05;}
	.st799{fill:#2F8A1C;}
	.st800{fill:#136902;}
	.st801{fill:#0F6301;}
	.st802{fill:#329110;}
	.st803{fill:#51A925;}
	.st804{fill:#1A7105;}
	.st805{fill:#5EBA2A;}
	.st806{fill:#5CB537;}
	.st807{fill:#59AA2A;}
	.st808{fill:#58A91D;}
	.st809{fill:#227C11;}
	.st810{fill:#388F25;}
	.st811{fill:#499E35;}
	.st812{fill:#29851A;}
	.st813{fill:#227413;}
	.st814{fill:#217107;}
	.st815{fill:#226517;}
	.st816{fill:#2E741C;}
	.st817{fill:#1E610A;}
	.st818{fill:#40842D;}
	.st819{fill:#2E6F1C;}
	.st820{fill:#3F842A;}
	.st821{fill:#1F670F;}
	.st822{fill:#074501;}
	.st823{fill:#0B4C01;}
	.st824{fill:#094D01;}
	.st825{fill:#0D5A07;}
	.st826{fill:#0C5703;}
	.st827{fill:#348019;}
	.st828{fill:#327C18;}
	.st829{fill:#196311;}
	.st830{fill:#5FA656;}
	.st831{fill:#358129;}
	.st832{fill:#4F993E;}
	.st833{fill:#347A13;}
	.st834{fill:#206706;}
	.st835{fill:#054502;}
	.st836{fill:#20730E;}
	.st837{fill:#266E0D;}
	.st838{fill:#317E10;}
	.st839{fill:#308121;}
	.st840{fill:#186D0C;}
	.st841{fill:#0B4F03;}
	.st842{fill:#1B710E;}
	.st843{fill:#408C1A;}
	.st844{fill:#126405;}
	.st845{fill:#1C7211;}
	.st846{fill:#136903;}
	.st847{fill:#1E710A;}
	.st848{fill:#29760F;}
	.st849{fill:#6BAB49;}
	.st850{fill:#519D33;}
	.st851{fill:#1A7515;}
	.st852{fill:#247E1C;}
	.st853{fill:#2D821F;}
	.st854{fill:#1F7E18;}
	.st855{fill:#187D0D;}
	.st856{fill:#177C03;}
	.st857{fill:#4FA726;}
	.st858{fill:#287809;}
	.st859{fill:#236D06;}
	.st860{fill:#469437;}
	.st861{fill:#64A959;}
	.st862{fill:#4C993A;}
	.st863{fill:#7FBD78;}
	.st864{fill:#3E902E;}
	.st865{fill:#83B868;}
	.st866{fill:#8FC178;}
	.st867{fill:#57A142;}
	.st868{fill:#176E13;}
	.st869{fill:#529D45;}
	.st870{fill:#60A955;}
	.st871{fill:#338629;}
	.st872{fill:#479535;}
	.st873{fill:#489836;}
	.st874{fill:#409135;}
	.st875{fill:#267015;}
	.st876{fill:#307B1C;}
	.st877{fill:#307F23;}
	.st878{fill:#308122;}
	.st879{fill:#186205;}
	.st880{fill:#186911;}
	.st881{fill:#459832;}
	.st882{fill:#33892B;}
	.st883{fill:#75B468;}
	.st884{fill:#5EA14D;}
	.st885{fill:#6DAF5D;}
	.st886{fill:#5EA049;}
	.st887{fill:#64A957;}
	.st888{fill:#64AC54;}
	.st889{fill:#6EB265;}
	.st890{fill:#67AB59;}
	.st891{fill:#569F44;}
	.st892{fill:#6EB35F;}
	.st893{fill:#489531;}
	.st894{fill:#34831B;}
	.st895{fill:#6AAC63;}
	.st896{fill:#7CB975;}
	.st897{fill:#135A0B;}
	.st898{fill:#388C2C;}
	.st899{fill:#106009;}
	.st900{fill:#3E9333;}
	.st901{fill:#439535;}
	.st902{fill:#56A631;}
	.st903{fill:#18640E;}
	.st904{fill:#439335;}
	.st905{fill:#469136;}
	.st906{fill:#64A955;}
	.st907{fill:#166604;}
	.st908{fill:#54AB1C;}
	.st909{fill:#105D02;}
	.st910{fill:#4EA622;}
	.st911{fill:#51AC24;}
	.st912{fill:#084C02;}
	.st913{fill:#0C5301;}
	.st914{fill:#4FA423;}
	.st915{fill:#064E01;}
	.st916{fill:#449E22;}
	.st917{fill:#56AD29;}
	.st918{fill:#24710E;}
	.st919{fill:#2C740A;}
	.st920{fill:#166B05;}
	.st921{fill:#156803;}
	.st922{fill:#1E7511;}
	.st923{fill:#0C5901;}
	.st924{fill:#116102;}
	.st925{fill:#176009;}
	.st926{fill:#4E9F39;}
	.st927{fill:#469934;}
	.st928{fill:#0F5305;}
	.st929{fill:#479132;}
	.st930{fill:#509B33;}
	.st931{fill:#5EA443;}
	.st932{fill:#57A340;}
	.st933{fill:#4F9C35;}
	.st934{fill:#46962F;}
	.st935{fill:#6EB15A;}
	.st936{fill:#74B55E;}
	.st937{fill:#70B157;}
	.st938{fill:#318721;}
	.st939{fill:#4EA23A;}
	.st940{fill:#3D922B;}
	.st941{fill:#469B34;}
	.st942{fill:#277F19;}
	.st943{fill:#2D841E;}
	.st944{fill:#318824;}
	.st945{fill:#237B11;}
	.st946{fill:#368B28;}
	.st947{fill:#227319;}
	.st948{fill:#3A9029;}
	.st949{fill:#569E4A;}
	.st950{fill:#0A4103;}
	.st951{fill:#084603;}
	.st952{fill:#186107;}
	.st953{fill:#54A049;}
	.st954{fill:#549B3E;}
	.st955{fill:#4EA714;}
	.st956{fill:#358804;}
	.st957{fill:#0E5400;}
	.st958{fill:#3E932B;}
	.st959{fill:#318A22;}
	.st960{fill:#5DA451;}
	.st961{fill:#5FAB47;}
	.st962{fill:#62A94C;}
	.st963{fill:#61AB4E;}
	.st964{fill:#5AA245;}
	.st965{fill:#4C9E36;}
	.st966{fill:#2C7E12;}
	.st967{fill:#489D0C;}
	.st968{fill:#66BA2A;}
	.st969{fill:#1C720C;}
	.st970{fill:#247B13;}
	.st971{fill:#56A92E;}
	.st972{fill:#5AB235;}
	.st973{fill:#176F0C;}
	.st974{fill:#0E5C01;}
	.st975{fill:#27810F;}
	.st976{fill:#298019;}
	.st977{fill:#146505;}
	.st978{fill:#217716;}
	.st979{fill:#3E8D32;}
	.st980{fill:#37800D;}
	.st981{fill:#489A31;}
	.st982{fill:#5EAB30;}
	.st983{fill:#3E922E;}
	.st984{fill:#48961F;}
	.st985{fill:#28801A;}
	.st986{fill:#368C2B;}
	.st987{fill:#459736;}
	.st988{fill:#2D8523;}
	.st989{fill:#338D24;}
	.st990{fill:#4C9F3B;}
	.st991{fill:#54A13F;}
	.st992{fill:#3B9226;}
	.st993{fill:#318912;}
	.st994{fill:#39891F;}
	.st995{fill:#307F0C;}
	.st996{fill:#70B167;}
	.st997{fill:#78B678;}
	.st998{fill:#7FBF72;}
	.st999{fill:#64AE59;}
	.st1000{fill:#4F9F40;}
	.st1001{fill:#3B862E;}
	.st1002{fill:#367F21;}
	.st1003{fill:#469330;}
	.st1004{fill:#55A047;}
	.st1005{fill:#1F6816;}
	.st1006{fill:#38811D;}
	.st1007{fill:#3B8818;}
	.st1008{fill:#4EA13B;}
	.st1009{fill:#50A236;}
	.st1010{fill:#64AA51;}
	.st1011{fill:#68AD57;}
	.st1012{fill:#53973F;}
	.st1013{fill:#62A957;}
	.st1014{fill:#4E9F41;}
	.st1015{fill:#388017;}
	.st1016{fill:#73B462;}
	.st1017{fill:#77B674;}
	.st1018{fill:#1B6A05;}
	.st1019{fill:#106304;}
	.st1020{fill:#2C8205;}
	.st1021{fill:#489B25;}
	.st1022{fill:#146105;}
	.st1023{fill:#51A145;}
	.st1024{fill:#075100;}
	.st1025{fill:#196604;}
	.st1026{fill:#247604;}
	.st1027{fill:#3F930B;}
	.st1028{fill:#287E08;}
	.st1029{fill:#59A82E;}
	.st1030{fill:#5CAD2E;}
	.st1031{fill:#55A527;}
	.st1032{fill:#217901;}
	.st1033{fill:#6FC036;}
	.st1034{fill:#64B634;}
	.st1035{fill:#297403;}
	.st1036{fill:#459E0F;}
	.st1037{fill:#2F8007;}
	.st1038{fill:#469C17;}
	.st1039{fill:#449518;}
	.st1040{fill:#258119;}
	.st1041{fill:#2A811B;}
	.st1042{fill:#136704;}
	.st1043{fill:#1F6D0E;}
	.st1044{fill:#489A34;}
	.st1045{fill:#60A847;}
	.st1046{fill:#296C0F;}
	.st1047{fill:#65AD4D;}
	.st1048{fill:#196204;}
	.st1049{fill:#0F5800;}
	.st1050{fill:#2D831E;}
	.st1051{fill:#207713;}
	.st1052{fill:#277C19;}
	.st1053{fill:#368C26;}
	.st1054{fill:#1C7612;}
	.st1055{fill:#277A04;}
	.st1056{fill:#125400;}
	.st1057{fill:#56A440;}
	.st1058{fill:#4A9B36;}
	.st1059{fill:#61A74D;}
	.st1060{fill:#6BB157;}
	.st1061{fill:#1A6A02;}
	.st1062{fill:#247A1B;}
	.st1063{fill:#156A02;}
	.st1064{fill:#1C7006;}
	.st1065{fill:#136A05;}
	.st1066{fill:#267C18;}
	.st1067{fill:#328926;}
	.st1068{fill:#3D9130;}
	.st1069{fill:#1F7104;}
	.st1070{fill:#328A25;}
	.st1071{fill:#48983D;}
	.st1072{fill:#5BA54E;}
	.st1073{fill:#419531;}
	.st1074{fill:#78B570;}
	.st1075{fill:#7AB872;}
	.st1076{fill:#5BA64E;}
	.st1077{fill:#105905;}
	.st1078{fill:#80BC72;}
	.st1079{fill:#62A858;}
	.st1080{fill:#39912B;}
	.st1081{fill:#176D01;}
	.st1082{fill:#217708;}
	.st1083{fill:#166A05;}
	.st1084{fill:#126602;}
	.st1085{fill:#338B23;}
	.st1086{fill:#419733;}
</style>
<g>
	<g>
		<g>
			<path class="st7" d="M253.12,365.83c-3.81,0-6.88,2.33-16.38,10.71h-0.23l-25.31,22.14c1.76,2.26,8.88,11.39,22.24,28.25
				c19.61,24.76,26.35,31.5,33.38,31.5v2.36h-4.57c-13.39,0-22.21-5.98-37.95-25.83c-12.57-15.82-20.39-25.71-22.35-28.2l-3.87,3.38
				l-0.07,40.22c0.13,6.93,0.91,8.84,4.24,8.84V460h-19.21v-0.79c3.6,0,4.25-2.25,4.25-10.71h0.02l0.12-73.83
				c-0.13-6.94-0.91-8.84-4.24-8.84v-0.79h19.21v0.79c-3.6,0-4.25,2.25-4.25,10.71h-0.02l-0.05,29.92l41.93-36.22
				c3.3-3.13,3.76-4.19,2.39-4.4h-0.47v-0.79h11.18V365.83z"/>
			<path class="st7" d="M274.86,394.8v-0.47l13.07-4.09h2.2v13.94c5.52-9.44,12.69-14.73,20-14.73c9.13,0,11.81,2.68,11.81,7.4
				c0,3.31-1.89,5.2-5.35,5.2c-4.88,0-10.39-4.41-15.28-4.41c-4.03,0-7.93,2.82-11.18,8.03v42.84c0,8.46,0.65,10.71,4.25,10.71V460
				h-19.53v-0.79c3.6,0,4.25-2.25,4.25-10.71v-47.05C279.06,395.77,278.31,396.53,274.86,394.8z"/>
			<path class="st7" d="M349.52,460h-19.53v-0.79c3.6,0,4.25-2.25,4.25-10.71v-47.05c-0.06-5.68-0.8-4.92-4.25-6.64v-0.47
				l13.07-4.09h2.2v58.26c0,8.46,0.65,10.71,4.25,10.71V460z M331.88,371.81c0-4.73,2.68-7.4,7.4-7.4c4.73,0,7.4,2.68,7.4,7.4
				c0,4.72-2.68,7.4-7.4,7.4C334.56,379.21,331.88,376.53,331.88,371.81z"/>
			<path class="st7" d="M401.18,389.45c23.94,0,37.32,12.76,37.32,35.59c0,22.83-13.39,35.75-37.32,35.75s-37.32-12.91-37.32-35.75
				C363.86,402.2,377.25,389.45,401.18,389.45z M401.18,458.27c16.06,0,25.04-11.97,25.04-33.23c0-21.26-8.97-33.23-25.04-33.23
				s-25.04,11.97-25.04,33.23C376.15,446.3,385.12,458.27,401.18,458.27z"/>
			<path class="st7" d="M472.22,460h-19.53v-0.79c3.6,0,4.25-2.25,4.25-10.71c0.01-20.04,0.03-61.81,0.13-88.6
				c-0.15-4.13-1.19-3.74-4.22-5.26v-0.47l13.07-4.09h2.2v103.39c0.36,4.43,1.32,5.74,4.09,5.74V460z"/>
		</g>
	</g>
	<g>
		<path class="st8" d="M205.58,552.62h-1.26v-20.47l0.14-79.11c-0.11-4.7-1.04-4.17-4.24-5.77v-0.47l13.07-4.09h2.2v16.69h-0.03
			l-0.06,32.23c6.58-6.07,15.55-9.56,24.96-9.56c19.68,0,30.86,13.07,30.86,36.22c0,22.52-12.91,35.12-36.06,35.12
			c-8.69,0-15.31-4.41-22.68-4.41C209.2,549,206.69,550.26,205.58,552.62z M259.6,523.17c0-23.15-9.92-36.22-27.72-36.22
			c-5.95,0-11.91,2.34-16.46,6.7l-0.07,38.49c0,11.65,7.09,18.27,19.84,18.27C250.78,550.42,259.6,540.65,259.6,523.17z"/>
		<path class="st8" d="M318.81,485.06c-11.58,0-18.7,8.57-20.29,23.92l32.25-1.78c2.8-0.39,4.39-2.17,4.56-4.93l-0.14,4.69v4.09
			h-36.84c-1.53,22.17,7.9,35.59,26.92,35.59c7.4,0,14.17-2.99,18.89-8.19l1.26,1.1c-8.03,8.82-18.58,13.86-29.45,13.86
			c-18.9,0-29.45-11.97-29.45-33.23c0-24.41,11.81-38.11,32.91-38.11c16.69,0,26.14,10.39,26.14,28.98h-10.39l0.15-9l-0.01,0.22
			C336,491.25,329.16,485.06,318.81,485.06z"/>
		<path class="st8" d="M424.15,547.89c-4.09,4.09-8.03,6.3-16.69,6.3c-7.36,0-9.65-3.66-10.13-10.35
			c-6.82,6.18-14.72,9.56-22.63,9.56c-10.71,0-16.85-5.51-16.85-15.12c0-11.65,9.13-20.47,25.51-24.57
			c2.53-0.66,9.02-1.2,13.86-1.53v-9.33c0-11.34-3.31-17.8-9.13-17.8c-12.13,0-18.43,5.98-17.48,16.69h-7.72
			c-1.1-12.6,8.82-19.68,27.56-19.68c11.81,0,18.43,8.35,18.43,23.31v33.86c0,6.3,1.1,9.76,6.14,9.76c4.41,0,6.3-0.95,7.87-2.52
			L424.15,547.89z M383.37,517.34c-9.45,2.36-14.65,8.82-14.65,17.95c0,6.93,4.09,10.71,11.5,10.71c6.44,0,12.29-1.68,17.01-4.84
			c0-0.22,0-0.44,0-0.67v-25.51C393.02,515.49,387.39,516.29,383.37,517.34z"/>
		<path class="st8" d="M427.46,482.86h15.28l-0.16,44.25c0,12.12,5.67,19.05,19.21,19.05c9.54,0,14.28-1.98,17.17-5.52v-46.29
			c0-8.46-0.66-10.71-4.25-10.71v-0.79h15.28v58.55c0.05,5.67,0.8,4.92,4.25,6.64v0.47l-13.07,4.09h-2.2v-9.97
			c-5.65,6.89-13.07,10.76-25.83,10.76c-15.12,0-21.42-9.13-21.42-25.2v-33.86c0-8.46-0.66-10.71-4.25-10.71V482.86z"/>
		<path class="st8" d="M546.2,487.11h-21.57c0,0-0.16,34.8-0.16,51.18c0,8.51,1.42,10.24,8.34,10.24c5.04,0,9.14-2.68,14.65-7.24
			l0.79,0.95c-8.51,7.08-14.65,11.18-20.95,11.18c-11.34,0-13.7-2.84-13.7-17.01c0-15.75-0.16-49.29-0.16-49.29h-11.02v-1.26
			c6.82-1,12.88-6.61,17.12-16.03l-5.21,14.42l0.17-0.02l8.24-22.77h1.89v21.42h21.57V487.11z M520.68,466.64l-1.15,3.18
			c0.46-1.01,0.89-2.08,1.31-3.18H520.68z"/>
		<path class="st8" d="M569.66,483.65c-2.82,0-3.06,1.5-1.24,6.89l19.82,50.51l18.45-46.69c3.07-8.13,3.47-10.42,0.92-10.71h-0.63
			v-0.79h11.81v0.79c-3.62,0-5.11,2.32-8.66,10.71h-0.1l-25.1,59.84c0,0-2.05,3.94-4.09,9.76c-9.29,22.21-14.65,28.82-23.31,28.82
			c-6.14,0-9.61-2.36-9.61-6.46c0-2.99,2.05-4.57,5.67-4.57c3.47,0,10.71,3.78,10.71,3.78c3.31,0,6.46-5.19,13.7-22.52
			c1.62-4.85,3.38-8.6,4.34-10.48l-25.31-59.71c-3.12-7.14-4.62-9.18-8.16-9.18v-0.79h20.79V483.65z"/>
	</g>
	<g>
		<path class="st7" d="M248.93,274.97c-5.65-5.65-12-10.6-18.91-14.7c-14.29-8.54-30.98-13.41-48.81-13.41
			c0,18.12,5.03,35.07,13.8,49.52c4.02,6.63,8.85,12.72,14.31,18.17c24.46,0,48.92,9.33,67.6,28.01
			C258.24,323.9,248.93,299.43,248.93,274.97z"/>
		<path class="st7" d="M325.72,259.17c-7.67,4.31-14.66,9.67-20.83,15.85c-0.02,24.44-9.32,48.89-27.98,67.54
			c18.66-18.66,43.1-27.95,67.54-27.98c6.38-6.37,11.89-13.6,16.27-21.55c7.57-13.7,11.89-29.42,11.89-46.18
			C355.6,246.87,339.59,251.32,325.72,259.17z"/>
		<path class="st8" d="M276.91,342.57c-18.68-18.68-43.14-28.02-67.6-28.01C226.64,331.85,250.52,342.57,276.91,342.57z"/>
		<path class="st7" d="M276.91,220.49c7.17,8.93,12.55,19.24,15.73,30.26c2.25,7.78,3.39,15.94,3.38,24.27
			c-0.02,20.01-6.74,38.97-19.11,54.3c-12.38-15.35-19.11-34.32-19.11-54.34c0-8.03,1.07-15.93,3.2-23.52
			C264.12,240.19,269.56,229.64,276.91,220.49 M276.91,207.22c-12.03,12.03-20.21,26.5-24.46,41.86
			c-2.37,8.45-3.52,17.17-3.52,25.89c0,24.46,9.31,48.92,27.98,67.6c18.66-18.66,27.95-43.1,27.98-67.54
			c0.01-9.01-1.21-18.02-3.73-26.74C296.82,233.24,288.76,219.07,276.91,207.22L276.91,207.22z"/>
		<path class="st8" d="M344.46,314.59c-24.44,0.02-48.89,9.32-67.54,27.98C303.3,342.57,327.15,331.86,344.46,314.59z"/>
	</g>
</g>
</svg>
