<?xml version="1.0" encoding="utf-8"?>
<!-- Generator: Adobe Illustrator 25.0.1, SVG Export Plug-In . SVG Version: 6.00 Build 0)  -->
<svg version="1.1" id="Camada_1" xmlns="http://www.w3.org/2000/svg" xmlns:xlink="http://www.w3.org/1999/xlink" x="0px" y="0px"
	 viewBox="0 0 409.53 79.05" style="enable-background:new 0 0 409.53 79.05;" xml:space="preserve">
<style type="text/css">
	.st0{fill:#38675D;}
	.st1{fill:#FDA377;}
	.st2{fill:#4D8D7F;}
	.st3{fill:#FFFFFF;}
	.st4{fill:#FFC9B2;}
	.st5{fill:none;}
	.st6{fill:#083B30;}
</style>
<g id="Grupo_492" transform="translate(0 0)">
	<g id="Grupo_259_1_" transform="translate(250.028 29.171)">
		<g id="Grupo_254_1_" transform="translate(20.569 0.245)">
			<path id="Caminho_275_1_" class="st1" d="M17.48,8.59c3.76,3.78,8.88,5.9,14.21,5.89h0.15l0.1,0.1c1.19,1.19,2.24,2.51,3.11,3.95
				c1.97,3.25,3,6.97,3,10.77v0.35H37.7c-5.53-0.01-10.82-2.2-14.73-6.11l-0.1-0.1V23.3c0.02-5.33-2.1-10.45-5.88-14.21L17.48,8.59z
				 M31.55,15.18c-4.15-0.02-8.2-1.28-11.61-3.64c2.35,3.42,3.62,7.47,3.63,11.61c3.68,3.63,8.62,5.71,13.79,5.81
				c-0.06-3.55-1.06-7.02-2.9-10.06C33.63,17.55,32.66,16.3,31.55,15.18z"/>
		</g>
		<g id="Grupo_255_1_" transform="translate(0 0.245)">
			<path id="Caminho_276_1_" class="st1" d="M37.56,8.59l0.49,0.49c-3.78,3.76-5.89,8.87-5.88,14.2v0.14l-0.1,0.1
				c-1.35,1.35-2.87,2.51-4.53,3.45l0,0c-3.11,1.76-6.63,2.68-10.2,2.68h-0.35V29.3c0-5.53,2.2-10.83,6.12-14.73l0.1-0.1h0.14
				C28.69,14.49,33.8,12.37,37.56,8.59z M31.47,23.14c0.02-4.15,1.29-8.19,3.64-11.61c-3.41,2.35-7.46,3.61-11.6,3.64
				c-3.65,3.67-5.73,8.61-5.82,13.79c3.33-0.06,6.6-0.94,9.51-2.58l0,0C28.76,25.49,30.2,24.4,31.47,23.14z"/>
		</g>
		<g id="Grupo_256_1_" transform="translate(19.977 0.143)">
			<path id="Caminho_277_1_" class="st1" d="M16.98,8.59h0.84c5.52-0.01,10.81,2.18,14.7,6.09l0.59,0.59h-0.84
				c-5.52,0.01-10.81-2.18-14.7-6.09L16.98,8.59z M31.39,14.57c-3.47-3.2-7.97-5.06-12.69-5.26C22.18,12.51,26.68,14.37,31.39,14.57
				L31.39,14.57z"/>
		</g>
		<g id="Grupo_257_1_" transform="translate(14.484)">
			<path id="Caminho_278_1_" class="st1" d="M23.32,8.59l0.24,0.24c8.12,8.13,8.12,21.31,0,29.44l-0.24,0.24l-0.24-0.24
				c-8.11-8.14-8.11-21.3,0-29.44L23.32,8.59z M23.32,37.53c7.52-7.8,7.52-20.15,0-27.95c-4.99,5.19-6.84,12.65-4.85,19.57l0,0
				C19.38,32.3,21.04,35.18,23.32,37.53L23.32,37.53z"/>
		</g>
		<g id="Grupo_258_1_" transform="translate(5.53 0.143)">
			<path id="Caminho_279_1_" class="st1" d="M32.27,8.59h0.84l-0.59,0.59c-3.89,3.91-9.18,6.1-14.69,6.09h-0.84l0.6-0.59
				C21.48,10.77,26.76,8.58,32.27,8.59z M18.72,14.56c4.71-0.2,9.2-2.06,12.68-5.25C26.68,9.5,22.19,11.36,18.72,14.56z"/>
		</g>
	</g>
	<g id="Grupo_265_1_" transform="translate(208.356 29.171)">
		<g id="Grupo_260_1_" transform="translate(20.569 0.245)">
			<path id="Caminho_280_1_" class="st1" d="M17.48,8.59c3.76,3.78,8.88,5.9,14.21,5.89h0.15l0.1,0.1c1.19,1.19,2.24,2.51,3.11,3.95
				c1.97,3.25,3,6.97,3,10.77v0.35H37.7c-5.53-0.01-10.82-2.2-14.73-6.11l-0.1-0.1V23.3c0.02-5.33-2.1-10.45-5.88-14.21L17.48,8.59z
				 M31.55,15.18c-4.15-0.02-8.2-1.29-11.61-3.64c2.35,3.42,3.62,7.46,3.63,11.61c3.68,3.63,8.62,5.71,13.79,5.81
				C37.27,23.79,35.19,18.85,31.55,15.18z"/>
		</g>
		<g id="Grupo_261_1_" transform="translate(0 0.245)">
			<path id="Caminho_281_1_" class="st1" d="M37.56,8.59l0.49,0.49c-3.78,3.76-5.89,8.87-5.88,14.2v0.14l-0.1,0.1
				c-1.35,1.35-2.87,2.51-4.53,3.45l0,0c-3.11,1.76-6.63,2.68-10.2,2.68h-0.35V29.3c0-5.53,2.2-10.83,6.12-14.73l0.1-0.1h0.14
				C28.69,14.49,33.8,12.37,37.56,8.59z M31.47,23.14c0.02-4.15,1.29-8.19,3.64-11.61c-3.41,2.35-7.46,3.61-11.6,3.64
				c-3.65,3.67-5.73,8.61-5.82,13.79c3.34-0.06,6.6-0.94,9.51-2.58l0,0C28.76,25.49,30.2,24.4,31.47,23.14z"/>
		</g>
		<g id="Grupo_262_1_" transform="translate(19.977 0.143)">
			<path id="Caminho_282_1_" class="st1" d="M16.99,8.59h0.84c5.52-0.01,10.81,2.18,14.7,6.09l0.59,0.59h-0.84
				c-5.52,0.01-10.81-2.18-14.7-6.09L16.99,8.59z M31.4,14.57c-3.47-3.2-7.97-5.06-12.69-5.26C22.18,12.51,26.68,14.37,31.4,14.57
				L31.4,14.57z"/>
		</g>
		<g id="Grupo_263_1_" transform="translate(14.484)">
			<path id="Caminho_283_1_" class="st1" d="M23.32,8.59l0.25,0.24c8.12,8.13,8.12,21.3,0,29.44l-0.25,0.24l-0.24-0.24
				c-8.11-8.14-8.11-21.3,0-29.44L23.32,8.59z M23.32,37.53c7.52-7.8,7.52-20.15,0-27.95c-4.99,5.19-6.84,12.65-4.85,19.57l0,0
				C19.38,32.3,21.04,35.18,23.32,37.53L23.32,37.53z"/>
		</g>
		<g id="Grupo_264_1_" transform="translate(5.53 0.143)">
			<path id="Caminho_284_1_" class="st1" d="M32.27,8.59h0.84l-0.59,0.59c-3.89,3.91-9.18,6.1-14.69,6.09h-0.84l0.6-0.59
				C21.48,10.77,26.76,8.58,32.27,8.59z M18.71,14.56c4.71-0.2,9.2-2.06,12.68-5.25C26.68,9.5,22.19,11.36,18.71,14.56z"/>
		</g>
	</g>
	<g id="Grupo_271_1_" transform="translate(166.686 29.171)">
		<g id="Grupo_266_1_" transform="translate(20.568 0.245)">
			<path id="Caminho_285_1_" class="st1" d="M17.48,8.59c3.76,3.78,8.88,5.9,14.21,5.89h0.15l0.1,0.1c1.19,1.19,2.24,2.51,3.11,3.95
				c1.97,3.25,3,6.97,3,10.77v0.35H37.7c-5.53-0.01-10.82-2.21-14.73-6.11l-0.1-0.1V23.3c0.02-5.33-2.1-10.45-5.88-14.21L17.48,8.59
				z M31.55,15.18c-4.15-0.02-8.2-1.29-11.61-3.64c2.35,3.42,3.61,7.47,3.63,11.61c3.68,3.63,8.62,5.71,13.79,5.81
				C37.27,23.79,35.19,18.85,31.55,15.18L31.55,15.18z"/>
		</g>
		<g id="Grupo_267_1_" transform="translate(0 0.245)">
			<path id="Caminho_286_1_" class="st1" d="M37.56,8.59l0.49,0.49c-3.78,3.76-5.89,8.87-5.88,14.2v0.14l-0.1,0.1
				c-1.34,1.35-2.87,2.51-4.53,3.45l0,0c-3.11,1.76-6.63,2.68-10.2,2.68h-0.35V29.3c-0.01-5.53,2.2-10.83,6.12-14.73l0.1-0.1h0.14
				C28.69,14.49,33.8,12.37,37.56,8.59z M31.47,23.14c0.02-4.15,1.29-8.19,3.64-11.61c-3.41,2.35-7.46,3.61-11.6,3.64
				c-3.65,3.67-5.73,8.61-5.82,13.79c3.34-0.06,6.6-0.94,9.51-2.58l0,0C28.76,25.49,30.2,24.4,31.47,23.14z"/>
		</g>
		<g id="Grupo_268_1_" transform="translate(19.975 0.143)">
			<path id="Caminho_287_1_" class="st1" d="M16.99,8.59h0.84c5.52-0.01,10.81,2.18,14.7,6.09l0.59,0.59h-0.84
				c-5.52,0.01-10.81-2.18-14.7-6.09L16.99,8.59z M31.4,14.57c-3.47-3.2-7.97-5.06-12.69-5.26C22.19,12.51,26.68,14.37,31.4,14.57
				L31.4,14.57z"/>
		</g>
		<g id="Grupo_269_1_" transform="translate(14.483)">
			<path id="Caminho_288_1_" class="st1" d="M23.32,8.59l0.25,0.24c8.12,8.13,8.12,21.3,0,29.44l-0.25,0.24l-0.24-0.24
				c-8.11-8.14-8.11-21.3,0-29.44L23.32,8.59z M23.32,37.53c7.52-7.8,7.52-20.15,0-27.95c-4.99,5.19-6.84,12.65-4.85,19.57l0,0
				C19.38,32.3,21.04,35.18,23.32,37.53L23.32,37.53z"/>
		</g>
		<g id="Grupo_270_1_" transform="translate(5.528 0.143)">
			<path id="Caminho_289_1_" class="st1" d="M32.27,8.59h0.84l-0.59,0.59c-3.89,3.91-9.18,6.1-14.69,6.09h-0.84l0.6-0.59
				C21.48,10.77,26.76,8.58,32.27,8.59z M18.72,14.56c4.71-0.2,9.2-2.06,12.68-5.25C26.68,9.5,22.19,11.36,18.72,14.56z"/>
		</g>
	</g>
	<g id="Grupo_277_1_" transform="translate(125.014 29.171)">
		<g id="Grupo_272_1_" transform="translate(20.568 0.245)">
			<path id="Caminho_290_1_" class="st1" d="M17.48,8.59c3.76,3.78,8.88,5.9,14.21,5.89h0.15l0.1,0.1c1.19,1.19,2.24,2.51,3.11,3.95
				c1.97,3.25,3,6.97,3,10.77v0.35H37.7c-5.53-0.01-10.82-2.2-14.73-6.11l-0.1-0.1V23.3c0.02-5.33-2.1-10.45-5.88-14.21L17.48,8.59z
				 M31.55,15.18c-4.15-0.02-8.2-1.29-11.61-3.64c2.35,3.42,3.61,7.47,3.63,11.61c3.68,3.63,8.62,5.71,13.79,5.81
				C37.27,23.79,35.19,18.85,31.55,15.18L31.55,15.18z"/>
		</g>
		<g id="Grupo_273_1_" transform="translate(0 0.245)">
			<path id="Caminho_291_1_" class="st1" d="M37.56,8.59l0.49,0.49c-3.78,3.76-5.89,8.87-5.88,14.2v0.14l-0.1,0.1
				c-1.34,1.35-2.87,2.51-4.53,3.45l0,0c-3.11,1.76-6.63,2.68-10.2,2.68h-0.35V29.3c-0.01-5.53,2.2-10.83,6.12-14.73l0.1-0.1h0.14
				C28.69,14.49,33.8,12.37,37.56,8.59z M31.47,23.14c0.02-4.15,1.29-8.19,3.64-11.61c-3.41,2.35-7.46,3.61-11.6,3.64
				c-3.65,3.67-5.73,8.61-5.82,13.79c3.34-0.06,6.6-0.94,9.51-2.58l0,0C28.76,25.49,30.2,24.4,31.47,23.14L31.47,23.14z"/>
		</g>
		<g id="Grupo_274_1_" transform="translate(19.975 0.143)">
			<path id="Caminho_292_1_" class="st1" d="M16.99,8.59h0.84c5.52-0.01,10.81,2.18,14.7,6.09l0.59,0.59h-0.84
				c-5.52,0.01-10.81-2.18-14.7-6.09L16.99,8.59z M31.4,14.57c-3.47-3.2-7.97-5.06-12.69-5.26C22.18,12.51,26.68,14.37,31.4,14.57
				L31.4,14.57z"/>
		</g>
		<g id="Grupo_275_1_" transform="translate(14.483)">
			<path id="Caminho_293_1_" class="st1" d="M23.32,8.59l0.24,0.24c8.12,8.13,8.12,21.3,0,29.44l-0.24,0.24l-0.25-0.24
				c-8.11-8.14-8.11-21.3,0-29.44L23.32,8.59z M23.32,37.53c7.52-7.8,7.52-20.15,0-27.95c-4.99,5.19-6.84,12.65-4.85,19.57l0,0
				C19.38,32.3,21.04,35.18,23.32,37.53L23.32,37.53z"/>
		</g>
		<g id="Grupo_276_1_" transform="translate(5.528 0.143)">
			<path id="Caminho_294_1_" class="st1" d="M32.28,8.59h0.84l-0.59,0.59c-3.89,3.91-9.18,6.1-14.69,6.09h-0.84l0.6-0.59
				C21.48,10.77,26.77,8.58,32.28,8.59z M18.72,14.56c4.71-0.2,9.2-2.06,12.67-5.25C26.68,9.5,22.19,11.36,18.72,14.56L18.72,14.56z
				"/>
		</g>
	</g>
	<g id="Grupo_283_1_" transform="translate(83.343 29.171)">
		<g id="Grupo_278_1_" transform="translate(20.569 0.245)">
			<path id="Caminho_295_1_" class="st1" d="M17.48,8.59c3.76,3.78,8.88,5.9,14.21,5.89h0.15l0.1,0.1c1.19,1.19,2.24,2.51,3.11,3.95
				c1.97,3.25,3,6.97,3,10.77v0.35H37.7c-5.53-0.01-10.82-2.2-14.73-6.11l-0.1-0.1V23.3c0.02-5.33-2.1-10.45-5.88-14.21L17.48,8.59z
				 M31.54,15.18c-4.15-0.02-8.2-1.29-11.61-3.64c2.35,3.42,3.61,7.47,3.63,11.61c3.68,3.63,8.62,5.71,13.79,5.81
				C37.27,23.79,35.19,18.85,31.54,15.18L31.54,15.18z"/>
		</g>
		<g id="Grupo_279_1_" transform="translate(0 0.245)">
			<path id="Caminho_296_1_" class="st1" d="M37.56,8.59l0.49,0.49c-3.78,3.76-5.89,8.87-5.88,14.2v0.14l-0.1,0.1
				c-1.34,1.35-2.87,2.51-4.53,3.45l0,0c-3.11,1.76-6.63,2.68-10.2,2.68h-0.35V29.3c-0.01-5.53,2.2-10.83,6.12-14.73l0.1-0.1h0.14
				C28.68,14.49,33.8,12.37,37.56,8.59z M31.47,23.14c0.02-4.15,1.29-8.19,3.64-11.61c-3.42,2.35-7.46,3.62-11.61,3.64
				c-3.65,3.67-5.73,8.61-5.82,13.79c3.34-0.06,6.6-0.94,9.51-2.58l0,0C28.76,25.49,30.2,24.4,31.47,23.14z"/>
		</g>
		<g id="Grupo_280_1_" transform="translate(19.977 0.143)">
			<path id="Caminho_297_1_" class="st1" d="M16.99,8.59h0.84c5.52-0.01,10.81,2.18,14.7,6.09l0.59,0.59h-0.84
				c-5.52,0.01-10.81-2.18-14.7-6.09L16.99,8.59z M31.4,14.57c-3.47-3.2-7.97-5.06-12.69-5.26C22.18,12.51,26.68,14.37,31.4,14.57z"
				/>
		</g>
		<g id="Grupo_281_1_" transform="translate(14.483)">
			<path id="Caminho_298_1_" class="st1" d="M23.32,8.59l0.24,0.24c8.12,8.13,8.12,21.3,0,29.44l-0.24,0.24l-0.24-0.24
				c-8.12-8.13-8.12-21.3,0-29.44L23.32,8.59z M23.32,37.53c7.52-7.8,7.52-20.15,0-27.95c-4.99,5.19-6.84,12.65-4.85,19.57l0,0
				C19.38,32.3,21.04,35.18,23.32,37.53L23.32,37.53z"/>
		</g>
		<g id="Grupo_282_1_" transform="translate(5.528 0.143)">
			<path id="Caminho_299_1_" class="st1" d="M32.27,8.59h0.84l-0.59,0.59c-3.89,3.91-9.18,6.1-14.69,6.09h-0.84l0.6-0.59
				C21.48,10.77,26.76,8.58,32.27,8.59z M18.72,14.56c4.71-0.2,9.2-2.06,12.67-5.25C26.68,9.5,22.19,11.36,18.72,14.56L18.72,14.56z
				"/>
		</g>
	</g>
	<g id="Grupo_289_1_" transform="translate(41.671 29.171)">
		<g id="Grupo_284_1_" transform="translate(20.569 0.245)">
			<path id="Caminho_300_1_" class="st1" d="M17.48,8.59c3.76,3.78,8.88,5.9,14.21,5.89h0.15l0.1,0.1c1.19,1.19,2.24,2.51,3.11,3.95
				c1.97,3.25,3,6.97,3,10.77v0.35H37.7c-5.53-0.01-10.82-2.2-14.73-6.11l-0.1-0.1V23.3c0.02-5.33-2.1-10.45-5.88-14.21L17.48,8.59z
				 M31.55,15.18c-4.15-0.02-8.2-1.29-11.61-3.64c2.35,3.42,3.61,7.47,3.63,11.61c3.68,3.63,8.62,5.71,13.79,5.81
				C37.27,23.79,35.19,18.85,31.55,15.18L31.55,15.18z"/>
		</g>
		<g id="Grupo_285_1_" transform="translate(0 0.245)">
			<path id="Caminho_301_1_" class="st1" d="M37.56,8.59l0.49,0.49c-3.78,3.76-5.89,8.87-5.88,14.2v0.14l-0.1,0.1
				c-1.35,1.35-2.87,2.51-4.53,3.45l0,0c-3.11,1.76-6.63,2.68-10.2,2.68h-0.35V29.3c-0.01-5.53,2.2-10.83,6.12-14.73l0.1-0.1h0.14
				C28.68,14.49,33.8,12.37,37.56,8.59z M31.47,23.14c0.02-4.15,1.29-8.19,3.64-11.61c-3.42,2.35-7.46,3.62-11.61,3.64
				c-3.65,3.67-5.73,8.61-5.82,13.79c3.34-0.06,6.6-0.94,9.51-2.58l0,0C28.76,25.49,30.2,24.4,31.47,23.14z"/>
		</g>
		<g id="Grupo_286_1_" transform="translate(19.977 0.143)">
			<path id="Caminho_302_1_" class="st1" d="M16.99,8.59h0.84c5.52-0.01,10.81,2.18,14.7,6.09l0.59,0.59h-0.84
				c-5.52,0.01-10.81-2.18-14.7-6.09L16.99,8.59z M31.4,14.57c-3.47-3.2-7.97-5.06-12.69-5.26C22.18,12.51,26.68,14.37,31.4,14.57
				L31.4,14.57z"/>
		</g>
		<g id="Grupo_287_1_" transform="translate(14.483)">
			<path id="Caminho_303_1_" class="st1" d="M23.32,8.59l0.24,0.24c8.12,8.13,8.12,21.3,0,29.44l-0.24,0.24l-0.24-0.24
				c-8.12-8.13-8.12-21.3,0-29.44L23.32,8.59z M23.32,37.53c7.52-7.8,7.52-20.15,0-27.95c-4.99,5.19-6.84,12.65-4.85,19.57l0,0
				C19.38,32.3,21.04,35.18,23.32,37.53L23.32,37.53z"/>
		</g>
		<g id="Grupo_288_1_" transform="translate(5.53 0.143)">
			<path id="Caminho_304_1_" class="st1" d="M32.27,8.59h0.84l-0.59,0.59c-3.89,3.91-9.18,6.1-14.69,6.09h-0.84l0.59-0.59
				C21.47,10.77,26.76,8.58,32.27,8.59z M18.71,14.56c4.71-0.2,9.2-2.06,12.67-5.25C26.68,9.5,22.19,11.36,18.71,14.56L18.71,14.56z
				"/>
		</g>
	</g>
	<g id="Grupo_295_1_" transform="translate(0 29.171)">
		<g id="Grupo_290_1_" transform="translate(20.569 0.245)">
			<path id="Caminho_305_1_" class="st1" d="M17.48,8.59c3.76,3.78,8.88,5.9,14.21,5.89h0.15l0.1,0.1c1.19,1.19,2.24,2.51,3.11,3.95
				c1.97,3.25,3,6.97,3,10.77v0.35H37.7c-5.53-0.01-10.82-2.2-14.73-6.11l-0.1-0.1V23.3c0.02-5.33-2.1-10.45-5.88-14.21L17.48,8.59z
				 M31.54,15.18c-4.15-0.02-8.2-1.29-11.61-3.64c2.35,3.42,3.61,7.47,3.63,11.61c3.68,3.63,8.62,5.71,13.79,5.81
				C37.27,23.78,35.19,18.85,31.54,15.18L31.54,15.18z"/>
		</g>
		<g id="Grupo_291_1_" transform="translate(0 0.245)">
			<path id="Caminho_306_1_" class="st1" d="M37.56,8.59l0.49,0.49c-3.78,3.76-5.89,8.87-5.88,14.2v0.14l-0.1,0.1
				c-1.35,1.35-2.87,2.51-4.53,3.45l0,0c-3.11,1.76-6.63,2.68-10.2,2.68h-0.35V29.3c-0.01-5.53,2.2-10.83,6.12-14.73l0.1-0.1h0.14
				C28.68,14.49,33.8,12.37,37.56,8.59z M31.47,23.14c0.02-4.15,1.29-8.19,3.64-11.61c-3.42,2.35-7.46,3.62-11.61,3.64
				c-3.65,3.67-5.73,8.61-5.82,13.79c3.33-0.06,6.6-0.94,9.51-2.58l0,0C28.76,25.49,30.2,24.4,31.47,23.14z"/>
		</g>
		<g id="Grupo_292_1_" transform="translate(19.977 0.143)">
			<path id="Caminho_307_1_" class="st1" d="M16.99,8.59h0.84c5.52-0.01,10.81,2.18,14.7,6.09l0.59,0.59h-0.84
				c-5.52,0.01-10.81-2.18-14.7-6.09L16.99,8.59z M31.4,14.57c-3.47-3.2-7.97-5.06-12.69-5.26C22.18,12.51,26.68,14.37,31.4,14.57
				L31.4,14.57z"/>
		</g>
		<g id="Grupo_293_1_" transform="translate(14.484)">
			<path id="Caminho_308_1_" class="st1" d="M23.32,8.59l0.24,0.24c8.12,8.13,8.12,21.31,0,29.44l-0.24,0.24l-0.24-0.24
				c-8.11-8.13-8.11-21.3,0-29.44L23.32,8.59z M23.32,37.53c7.52-7.8,7.52-20.15,0-27.95c-3.63,3.74-5.65,8.74-5.64,13.95
				c0,1.9,0.26,3.79,0.78,5.62l0,0C19.38,32.3,21.04,35.18,23.32,37.53L23.32,37.53z"/>
		</g>
		<g id="Grupo_294_1_" transform="translate(5.53 0.143)">
			<path id="Caminho_309_1_" class="st1" d="M32.27,8.59h0.84l-0.59,0.59c-3.89,3.91-9.18,6.1-14.69,6.09h-0.84l0.59-0.59
				C21.47,10.77,26.76,8.58,32.27,8.59z M18.71,14.56c4.71-0.2,9.2-2.06,12.67-5.25C26.68,9.5,22.19,11.36,18.71,14.56L18.71,14.56z
				"/>
		</g>
	</g>
	<g id="Grupo_301_1_" transform="translate(0)">
		<g id="Grupo_296_1_" transform="translate(0 8.622)">
			<path id="Caminho_310_1_" class="st1" d="M37.56,29.65c-3.76-3.78-8.88-5.9-14.21-5.89H23.2l-0.1-0.1
				c-1.19-1.19-2.24-2.51-3.11-3.95c-1.97-3.25-3-6.97-3-10.77V8.59h0.35c5.53,0.01,10.82,2.21,14.73,6.11l0.1,0.1v0.14
				c-0.02,5.33,2.1,10.45,5.88,14.21L37.56,29.65z M23.49,23.07c4.15,0.02,8.2,1.29,11.61,3.64c-2.35-3.42-3.62-7.46-3.63-11.61
				c-3.68-3.63-8.62-5.71-13.79-5.81C17.77,14.46,19.85,19.4,23.49,23.07L23.49,23.07z"/>
		</g>
		<g id="Grupo_297_1_" transform="translate(20.569 8.622)">
			<path id="Caminho_311_1_" class="st1" d="M17.48,29.65l-0.49-0.49c3.78-3.76,5.89-8.87,5.88-14.2v-0.14l0.1-0.1
				c1.35-1.35,2.87-2.51,4.53-3.45l0,0c3.11-1.76,6.63-2.68,10.2-2.68h0.35v0.35c0,5.53-2.2,10.83-6.12,14.73l-0.1,0.1h-0.14
				C26.35,23.76,21.24,25.88,17.48,29.65z M23.56,15.11c-0.02,4.15-1.29,8.19-3.64,11.61c3.41-2.35,7.46-3.61,11.6-3.64
				c3.65-3.67,5.73-8.61,5.82-13.79c-3.34,0.06-6.6,0.94-9.51,2.58l0,0C26.28,12.76,24.84,13.84,23.56,15.11z"/>
		</g>
		<g id="Grupo_298_1_" transform="translate(5.52 23.099)">
			<path id="Caminho_312_1_" class="st1" d="M33.12,15.28h-0.84c-5.52,0.01-10.81-2.18-14.7-6.09l-0.59-0.59h0.84
				c5.52-0.01,10.81,2.18,14.7,6.09L33.12,15.28z M18.71,9.31c3.47,3.2,7.97,5.06,12.69,5.26C27.93,11.37,23.43,9.5,18.71,9.31
				L18.71,9.31z"/>
		</g>
		<g id="Grupo_299_1_" transform="translate(14.484)">
			<path id="Caminho_313_1_" class="st1" d="M23.32,38.52l-0.25-0.25c-8.12-8.13-8.12-21.3,0-29.43l0.25-0.25l0.24,0.25
				c8.11,8.13,8.11,21.3,0,29.43L23.32,38.52z M23.32,9.58c-7.52,7.8-7.52,20.15,0,27.95c4.99-5.19,6.84-12.65,4.85-19.57l0,0
				C27.26,14.81,25.59,11.94,23.32,9.58z"/>
		</g>
		<g id="Grupo_300_1_" transform="translate(19.977 23.105)">
			<path id="Caminho_314_1_" class="st1" d="M17.83,15.27h-0.84l0.59-0.59c3.89-3.91,9.18-6.1,14.69-6.09h0.84l-0.6,0.59
				C28.62,13.09,23.34,15.28,17.83,15.27z M31.39,9.31c-4.71,0.2-9.2,2.06-12.67,5.25C23.42,14.36,27.92,12.5,31.39,9.31L31.39,9.31
				z"/>
		</g>
	</g>
	<g id="Grupo_307_1_" transform="translate(41.671)">
		<g id="Grupo_302_1_" transform="translate(0 8.622)">
			<path id="Caminho_315_1_" class="st1" d="M37.56,29.65c-3.76-3.78-8.88-5.9-14.21-5.89H23.2l-0.1-0.1
				c-1.19-1.19-2.24-2.51-3.11-3.95c-1.97-3.25-3-6.97-3-10.77V8.59h0.35c5.53,0.01,10.82,2.21,14.73,6.11l0.1,0.1v0.14
				c-0.02,5.33,2.1,10.45,5.88,14.21L37.56,29.65z M23.49,23.07c4.15,0.02,8.2,1.29,11.61,3.64c-2.35-3.42-3.61-7.47-3.63-11.61
				c-3.68-3.63-8.62-5.71-13.79-5.81C17.77,14.46,19.85,19.4,23.49,23.07L23.49,23.07z"/>
		</g>
		<g id="Grupo_303_1_" transform="translate(20.569 8.622)">
			<path id="Caminho_316_1_" class="st1" d="M17.48,29.65l-0.49-0.49c3.78-3.76,5.89-8.87,5.88-14.2v-0.14l0.1-0.1
				c1.34-1.35,2.87-2.51,4.53-3.45l0,0c3.11-1.76,6.63-2.68,10.2-2.68h0.35v0.35c0.01,5.53-2.2,10.83-6.12,14.73l-0.1,0.1h-0.14
				C26.36,23.76,21.24,25.88,17.48,29.65z M23.57,15.11c-0.02,4.15-1.29,8.19-3.64,11.61c3.41-2.35,7.46-3.61,11.6-3.64
				c3.65-3.67,5.73-8.61,5.82-13.79c-3.34,0.06-6.6,0.94-9.51,2.58l0,0C26.28,12.76,24.84,13.84,23.57,15.11L23.57,15.11z"/>
		</g>
		<g id="Grupo_304_1_" transform="translate(5.52 23.099)">
			<path id="Caminho_317_1_" class="st1" d="M33.12,15.28h-0.84c-5.52,0.01-10.81-2.18-14.7-6.09l-0.59-0.59h0.84
				c5.52-0.01,10.81,2.18,14.7,6.09L33.12,15.28z M18.71,9.31c3.47,3.2,7.97,5.06,12.69,5.26C27.93,11.37,23.43,9.5,18.71,9.31
				L18.71,9.31z"/>
		</g>
		<g id="Grupo_305_1_" transform="translate(14.483)">
			<path id="Caminho_318_1_" class="st1" d="M23.32,38.52l-0.24-0.25c-8.12-8.13-8.12-21.3,0-29.43l0.24-0.25l0.25,0.25
				c8.11,8.13,8.11,21.3,0,29.43L23.32,38.52z M23.32,9.58c-7.52,7.8-7.52,20.15,0,27.95c4.99-5.19,6.84-12.65,4.85-19.57l0,0
				C27.26,14.81,25.6,11.94,23.32,9.58z"/>
		</g>
		<g id="Grupo_306_1_" transform="translate(19.977 23.105)">
			<path id="Caminho_319_1_" class="st1" d="M17.83,15.27h-0.84l0.59-0.59c3.89-3.91,9.18-6.1,14.69-6.09h0.84l-0.6,0.59
				C28.62,13.09,23.34,15.28,17.83,15.27z M31.39,9.31c-4.71,0.2-9.2,2.06-12.68,5.25C23.42,14.36,27.92,12.5,31.39,9.31L31.39,9.31
				z"/>
		</g>
	</g>
	<g id="Grupo_313_1_" transform="translate(83.343)">
		<g id="Grupo_308_1_" transform="translate(0 8.622)">
			<path id="Caminho_320_1_" class="st1" d="M37.56,29.65c-3.76-3.78-8.88-5.9-14.21-5.89H23.2l-0.1-0.1
				c-1.19-1.19-2.24-2.51-3.11-3.95c-1.97-3.25-3-6.97-3-10.77V8.59h0.35c5.53,0.01,10.82,2.21,14.73,6.11l0.1,0.1v0.14
				c-0.02,5.33,2.1,10.45,5.88,14.21L37.56,29.65z M23.49,23.07c4.15,0.02,8.2,1.29,11.61,3.64c-2.35-3.42-3.61-7.47-3.63-11.61
				c-3.68-3.63-8.62-5.71-13.79-5.81C17.77,14.46,19.85,19.4,23.49,23.07L23.49,23.07z"/>
		</g>
		<g id="Grupo_309_1_" transform="translate(20.569 8.622)">
			<path id="Caminho_321_1_" class="st1" d="M17.48,29.65l-0.49-0.49c3.78-3.76,5.89-8.87,5.88-14.2v-0.14l0.1-0.1
				c1.34-1.35,2.87-2.51,4.53-3.45l0,0c3.11-1.76,6.63-2.68,10.2-2.68h0.35v0.35c0.01,5.53-2.2,10.83-6.12,14.73l-0.1,0.1h-0.14
				C26.35,23.76,21.24,25.88,17.48,29.65z M23.56,15.11c-0.02,4.15-1.29,8.19-3.64,11.61c3.41-2.35,7.46-3.61,11.6-3.64
				c3.65-3.67,5.73-8.61,5.82-13.79c-3.34,0.06-6.6,0.94-9.51,2.58l0,0C26.28,12.76,24.84,13.84,23.56,15.11z"/>
		</g>
		<g id="Grupo_310_1_" transform="translate(5.52 23.099)">
			<path id="Caminho_322_1_" class="st1" d="M33.12,15.28h-0.84c-5.52,0.01-10.81-2.18-14.7-6.09l-0.59-0.59h0.84
				c5.52-0.01,10.81,2.18,14.7,6.09L33.12,15.28z M18.71,9.31c3.47,3.2,7.97,5.06,12.69,5.26C27.93,11.37,23.43,9.5,18.71,9.31z"/>
		</g>
		<g id="Grupo_311_1_" transform="translate(14.483)">
			<path id="Caminho_323_1_" class="st1" d="M23.32,38.52l-0.24-0.25c-8.12-8.13-8.12-21.3,0-29.43l0.24-0.25l0.25,0.25
				c8.11,8.13,8.11,21.3,0,29.43L23.32,38.52z M23.32,9.58c-7.52,7.8-7.52,20.15,0,27.95c3.63-3.74,5.65-8.74,5.64-13.95
				c0.01-1.9-0.26-3.79-0.78-5.62l0,0C27.26,14.81,25.6,11.94,23.32,9.58z"/>
		</g>
		<g id="Grupo_312_1_" transform="translate(19.977 23.105)">
			<path id="Caminho_324_1_" class="st1" d="M17.83,15.27h-0.84l0.59-0.59c3.89-3.91,9.18-6.1,14.69-6.09h0.84l-0.6,0.59
				C28.63,13.09,23.34,15.28,17.83,15.27z M31.39,9.31c-4.71,0.2-9.2,2.06-12.67,5.25C23.42,14.36,27.91,12.5,31.39,9.31L31.39,9.31
				z"/>
		</g>
	</g>
	<g id="Grupo_319_1_" transform="translate(125.014)">
		<g id="Grupo_314_1_" transform="translate(0 8.622)">
			<path id="Caminho_325_1_" class="st1" d="M37.56,29.65c-3.76-3.78-8.88-5.9-14.21-5.89H23.2l-0.1-0.1
				c-1.19-1.19-2.24-2.51-3.11-3.95c-1.97-3.25-3-6.97-3-10.77V8.59h0.35c5.53,0.01,10.82,2.2,14.73,6.11l0.1,0.1v0.14
				c-0.02,5.33,2.1,10.45,5.88,14.21L37.56,29.65z M23.49,23.07c4.15,0.02,8.2,1.29,11.61,3.64c-2.35-3.42-3.61-7.47-3.63-11.61
				c-3.68-3.63-8.62-5.71-13.79-5.81C17.77,14.46,19.85,19.4,23.49,23.07L23.49,23.07z"/>
		</g>
		<g id="Grupo_315_1_" transform="translate(20.569 8.622)">
			<path id="Caminho_326_1_" class="st1" d="M17.48,29.65l-0.49-0.49c3.78-3.76,5.89-8.87,5.88-14.2v-0.14l0.1-0.1
				c1.34-1.35,2.87-2.51,4.53-3.45l0,0c3.11-1.76,6.63-2.68,10.2-2.68h0.35v0.35c0.01,5.53-2.2,10.83-6.12,14.73l-0.1,0.1h-0.14
				C26.35,23.76,21.24,25.88,17.48,29.65z M23.56,15.11c-0.02,4.15-1.29,8.19-3.64,11.61c3.42-2.35,7.46-3.62,11.61-3.64
				c3.65-3.67,5.73-8.61,5.82-13.79c-3.34,0.06-6.6,0.94-9.51,2.58l0,0C26.28,12.76,24.84,13.84,23.56,15.11L23.56,15.11z"/>
		</g>
		<g id="Grupo_316_1_" transform="translate(5.519 23.099)">
			<path id="Caminho_327_1_" class="st1" d="M33.12,15.28h-0.84c-5.52,0.01-10.81-2.18-14.7-6.09l-0.59-0.59h0.84
				c5.52-0.01,10.81,2.18,14.7,6.09L33.12,15.28z M18.71,9.31c3.47,3.2,7.97,5.06,12.69,5.26C27.93,11.37,23.43,9.5,18.71,9.31z"/>
		</g>
		<g id="Grupo_317_1_" transform="translate(14.483)">
			<path id="Caminho_328_1_" class="st1" d="M23.32,38.52l-0.24-0.25c-8.12-8.13-8.12-21.3,0-29.43l0.24-0.25l0.24,0.25
				c8.11,8.13,8.11,21.3,0,29.43L23.32,38.52z M23.32,9.58c-7.52,7.8-7.52,20.15,0,27.95c4.99-5.19,6.84-12.65,4.85-19.57l0,0
				C27.26,14.81,25.6,11.94,23.32,9.58z"/>
		</g>
		<g id="Grupo_318_1_" transform="translate(19.977 23.105)">
			<path id="Caminho_329_1_" class="st1" d="M17.83,15.27h-0.84l0.59-0.59c3.89-3.91,9.18-6.1,14.69-6.09h0.84l-0.6,0.59
				C28.63,13.09,23.34,15.28,17.83,15.27z M31.39,9.31c-4.71,0.2-9.2,2.06-12.67,5.25C23.42,14.36,27.91,12.5,31.39,9.31L31.39,9.31
				z"/>
		</g>
	</g>
	<g id="Grupo_325_1_" transform="translate(166.686)">
		<g id="Grupo_320_1_" transform="translate(0 8.622)">
			<path id="Caminho_330_1_" class="st1" d="M37.56,29.65c-3.76-3.78-8.88-5.9-14.21-5.89H23.2l-0.1-0.1
				c-1.19-1.19-2.24-2.51-3.11-3.95c-1.97-3.25-3-6.97-3-10.77V8.59h0.35c5.53,0.01,10.82,2.2,14.73,6.11l0.1,0.1v0.14
				c-0.02,5.33,2.1,10.45,5.88,14.21L37.56,29.65z M23.49,23.07c4.15,0.02,8.2,1.29,11.61,3.64c-2.35-3.42-3.61-7.47-3.63-11.61
				c-3.68-3.63-8.62-5.71-13.79-5.81C17.77,14.46,19.85,19.4,23.49,23.07L23.49,23.07z"/>
		</g>
		<g id="Grupo_321_1_" transform="translate(20.569 8.622)">
			<path id="Caminho_331_1_" class="st1" d="M17.48,29.65l-0.49-0.49c3.78-3.76,5.89-8.87,5.88-14.2v-0.14l0.1-0.1
				c1.35-1.35,2.87-2.51,4.53-3.45l0,0c3.11-1.76,6.63-2.68,10.2-2.68h0.35v0.35c0.01,5.53-2.2,10.83-6.12,14.73l-0.1,0.1h-0.14
				C26.35,23.76,21.24,25.88,17.48,29.65z M23.56,15.11c-0.02,4.15-1.29,8.19-3.64,11.61c3.42-2.35,7.46-3.62,11.61-3.64
				c3.65-3.67,5.73-8.61,5.82-13.79c-3.34,0.06-6.6,0.94-9.51,2.58l0,0C26.28,12.76,24.84,13.84,23.56,15.11z"/>
		</g>
		<g id="Grupo_322_1_" transform="translate(5.519 23.099)">
			<path id="Caminho_332_1_" class="st1" d="M33.13,15.28h-0.84c-5.52,0.01-10.81-2.18-14.7-6.09l-0.59-0.59h0.84
				c5.52-0.01,10.81,2.18,14.7,6.09L33.13,15.28z M18.72,9.31c3.47,3.2,7.97,5.06,12.69,5.26C27.93,11.36,23.43,9.5,18.72,9.31
				L18.72,9.31z"/>
		</g>
		<g id="Grupo_323_1_" transform="translate(14.483)">
			<path id="Caminho_333_1_" class="st1" d="M23.32,38.52l-0.24-0.25c-8.12-8.13-8.12-21.3,0-29.43l0.24-0.25l0.24,0.25
				c8.11,8.13,8.11,21.3,0,29.43L23.32,38.52z M23.32,9.58c-7.52,7.8-7.52,20.15,0,27.95c3.63-3.74,5.65-8.74,5.64-13.95
				c0-1.9-0.26-3.79-0.78-5.62l0,0C27.26,14.81,25.6,11.94,23.32,9.58z"/>
		</g>
		<g id="Grupo_324_1_" transform="translate(19.977 23.105)">
			<path id="Caminho_334_1_" class="st1" d="M17.83,15.27h-0.84l0.59-0.59c3.89-3.91,9.18-6.1,14.69-6.09h0.84l-0.59,0.59
				C28.63,13.09,23.34,15.28,17.83,15.27z M31.39,9.31c-4.71,0.2-9.2,2.06-12.67,5.25C23.42,14.36,27.91,12.5,31.39,9.31L31.39,9.31
				z"/>
		</g>
	</g>
	<g id="Grupo_331_1_" transform="translate(208.356)">
		<g id="Grupo_326_1_" transform="translate(0 8.622)">
			<path id="Caminho_335_1_" class="st1" d="M37.56,29.65c-3.76-3.78-8.88-5.9-14.21-5.89H23.2l-0.1-0.1
				c-1.19-1.19-2.24-2.51-3.11-3.95c-1.97-3.25-3-6.97-3-10.77V8.59h0.35c5.53,0.01,10.82,2.2,14.73,6.11l0.1,0.1v0.14
				c-0.02,5.33,2.1,10.45,5.88,14.21L37.56,29.65z M23.49,23.07c4.15,0.02,8.2,1.29,11.61,3.64c-2.35-3.42-3.61-7.47-3.63-11.61
				c-3.68-3.63-8.62-5.71-13.79-5.81C17.77,14.46,19.85,19.4,23.49,23.07L23.49,23.07z"/>
		</g>
		<g id="Grupo_327_1_" transform="translate(20.57 8.622)">
			<path id="Caminho_336_1_" class="st1" d="M17.48,29.65l-0.49-0.49c3.78-3.76,5.89-8.87,5.88-14.2v-0.14l0.1-0.1
				c1.35-1.35,2.87-2.51,4.53-3.45l0,0c3.11-1.76,6.63-2.68,10.2-2.68h0.35v0.35c0,5.53-2.2,10.83-6.12,14.73l-0.1,0.1h-0.14
				C26.35,23.76,21.24,25.88,17.48,29.65z M23.56,15.11c-0.02,4.15-1.29,8.19-3.64,11.61c3.42-2.35,7.46-3.62,11.61-3.64
				c3.65-3.67,5.73-8.61,5.82-13.79c-3.33,0.06-6.6,0.94-9.51,2.58l0,0C26.28,12.76,24.84,13.84,23.56,15.11z"/>
		</g>
		<g id="Grupo_328_1_" transform="translate(5.52 23.099)">
			<path id="Caminho_337_1_" class="st1" d="M33.12,15.28h-0.84c-5.52,0.01-10.81-2.18-14.7-6.09l-0.59-0.59h0.84
				c5.52-0.01,10.81,2.18,14.7,6.09L33.12,15.28z M18.71,9.31c3.47,3.2,7.97,5.06,12.69,5.26C27.93,11.37,23.43,9.5,18.71,9.31z"/>
		</g>
		<g id="Grupo_329_1_" transform="translate(14.484)">
			<path id="Caminho_338_1_" class="st1" d="M23.32,38.52l-0.24-0.25c-8.12-8.13-8.12-21.3,0-29.43l0.24-0.25l0.24,0.25
				c8.11,8.13,8.11,21.3,0,29.43L23.32,38.52z M23.32,9.58c-7.52,7.8-7.52,20.15,0,27.95c3.63-3.74,5.65-8.74,5.64-13.95
				c0-1.9-0.26-3.79-0.78-5.62l0,0C27.26,14.81,25.59,11.94,23.32,9.58z"/>
		</g>
		<g id="Grupo_330_1_" transform="translate(19.978 23.105)">
			<path id="Caminho_339_1_" class="st1" d="M17.83,15.27h-0.84l0.59-0.59c3.89-3.91,9.18-6.1,14.69-6.09h0.84l-0.59,0.59
				C28.63,13.09,23.34,15.28,17.83,15.27z M31.39,9.31c-4.71,0.2-9.2,2.06-12.67,5.25C23.42,14.36,27.91,12.5,31.39,9.31L31.39,9.31
				z"/>
		</g>
	</g>
	<g id="Grupo_337_1_" transform="translate(250.028)">
		<g id="Grupo_332_1_" transform="translate(0 8.622)">
			<path id="Caminho_340_1_" class="st1" d="M37.56,29.65c-3.76-3.78-8.88-5.9-14.21-5.89H23.2l-0.1-0.1
				c-1.19-1.19-2.24-2.51-3.11-3.95c-1.97-3.25-3-6.97-3-10.77V8.59h0.35c5.53,0.01,10.82,2.2,14.73,6.11l0.1,0.1v0.14
				c-0.01,5.33,2.1,10.45,5.88,14.21L37.56,29.65z M23.49,23.07c4.15,0.02,8.2,1.29,11.61,3.64c-2.35-3.42-3.62-7.47-3.63-11.61
				c-3.68-3.63-8.62-5.71-13.79-5.81C17.77,14.46,19.85,19.4,23.49,23.07L23.49,23.07z"/>
		</g>
		<g id="Grupo_333_1_" transform="translate(20.571 8.622)">
			<path id="Caminho_341_1_" class="st1" d="M17.48,29.65l-0.49-0.49c3.78-3.76,5.89-8.87,5.88-14.2v-0.14l0.1-0.1
				c1.35-1.35,2.87-2.51,4.53-3.45l0,0c3.11-1.76,6.63-2.68,10.2-2.68h0.35v0.35c0,5.53-2.2,10.83-6.13,14.73l-0.1,0.1h-0.14
				C26.35,23.76,21.24,25.88,17.48,29.65z M23.56,15.11c-0.02,4.15-1.29,8.19-3.64,11.61c3.41-2.35,7.46-3.61,11.6-3.64
				c3.65-3.67,5.73-8.61,5.82-13.79c-3.33,0.06-6.6,0.94-9.51,2.58l0,0C26.28,12.76,24.84,13.84,23.56,15.11z"/>
		</g>
		<g id="Grupo_334_1_" transform="translate(5.52 23.099)">
			<path id="Caminho_342_1_" class="st1" d="M33.12,15.28h-0.84c-5.52,0.01-10.81-2.18-14.7-6.09l-0.59-0.59h0.84
				c5.52-0.01,10.81,2.18,14.7,6.09L33.12,15.28z M18.71,9.31c3.47,3.2,7.97,5.06,12.69,5.26C27.93,11.37,23.43,9.5,18.71,9.31
				L18.71,9.31z"/>
		</g>
		<g id="Grupo_335_1_" transform="translate(14.484)">
			<path id="Caminho_343_1_" class="st1" d="M23.32,38.52l-0.24-0.25c-8.12-8.13-8.12-21.3,0-29.43l0.24-0.25l0.24,0.25
				c8.11,8.13,8.11,21.3,0,29.43L23.32,38.52z M23.32,9.58c-7.52,7.8-7.52,20.15,0,27.95c4.99-5.19,6.84-12.65,4.85-19.57l0,0
				C27.26,14.81,25.6,11.94,23.32,9.58z"/>
		</g>
		<g id="Grupo_336_1_" transform="translate(19.978 23.105)">
			<path id="Caminho_344_1_" class="st1" d="M17.83,15.27h-0.84l0.59-0.59c3.89-3.91,9.18-6.1,14.69-6.09h0.84l-0.6,0.59
				C28.62,13.09,23.34,15.28,17.83,15.27z M31.38,9.31c-4.71,0.2-9.2,2.06-12.68,5.25C23.42,14.36,27.91,12.5,31.38,9.31z"/>
		</g>
	</g>
	<g id="Grupo_343_1_" transform="translate(333.371 29.184)">
		<g id="Grupo_338_1_" transform="translate(20.568 0.245)">
			<path id="Caminho_345_1_" class="st1" d="M17.48,8.59c3.76,3.78,8.88,5.9,14.21,5.89h0.15l0.1,0.1c3.92,3.9,6.12,9.2,6.11,14.72
				v0.35H37.7c-5.53-0.01-10.82-2.2-14.73-6.11l-0.1-0.1v-0.14c0.02-5.33-2.1-10.45-5.88-14.21L17.48,8.59z M31.55,15.18
				c-4.15-0.02-8.2-1.29-11.61-3.64c2.35,3.42,3.61,7.47,3.63,11.61c1.17,1.15,2.47,2.15,3.88,2.99c3,1.79,6.42,2.76,9.91,2.82
				C37.27,23.79,35.19,18.85,31.55,15.18L31.55,15.18z"/>
		</g>
		<g id="Grupo_339_1_" transform="translate(0 0.245)">
			<path id="Caminho_346_1_" class="st1" d="M37.56,8.59l0.49,0.49c-3.78,3.76-5.89,8.87-5.88,14.2v0.14l-0.1,0.1
				c-1.34,1.35-2.87,2.51-4.53,3.45l0,0c-3.11,1.76-6.63,2.68-10.2,2.68h-0.35v-0.35c-0.01-5.53,2.2-10.83,6.12-14.73l0.1-0.1h0.14
				C28.69,14.49,33.8,12.37,37.56,8.59z M31.47,23.14c0.02-4.15,1.29-8.19,3.64-11.61c-3.41,2.35-7.46,3.62-11.6,3.64
				c-3.65,3.67-5.73,8.61-5.82,13.79c3.34-0.06,6.6-0.94,9.51-2.59l0,0C28.76,25.49,30.2,24.4,31.47,23.14z"/>
		</g>
		<g id="Grupo_340_1_" transform="translate(19.975 0.144)">
			<path id="Caminho_347_1_" class="st1" d="M16.99,8.59h0.84c5.52-0.01,10.81,2.18,14.7,6.09l0.59,0.59h-0.84
				c-5.52,0.01-10.81-2.18-14.7-6.09L16.99,8.59z M31.4,14.57c-3.47-3.2-7.97-5.06-12.69-5.26C22.18,12.51,26.68,14.37,31.4,14.57z"
				/>
		</g>
		<g id="Grupo_341_1_" transform="translate(14.483)">
			<path id="Caminho_348_1_" class="st1" d="M23.32,8.59l0.24,0.24c8.12,8.13,8.12,21.3,0,29.44l-0.24,0.24l-0.25-0.24
				c-8.11-8.14-8.11-21.3,0-29.44L23.32,8.59z M23.32,37.53c7.52-7.8,7.52-20.15,0-27.95c-4.99,5.19-6.84,12.65-4.85,19.57l0,0
				C19.38,32.3,21.04,35.18,23.32,37.53z"/>
		</g>
		<g id="Grupo_342_1_" transform="translate(5.528 0.144)">
			<path id="Caminho_349_1_" class="st1" d="M32.27,8.59h0.84l-0.59,0.59c-3.89,3.91-9.18,6.1-14.69,6.09h-0.84l0.6-0.59
				C21.48,10.77,26.76,8.58,32.27,8.59z M18.71,14.56c4.71-0.2,9.2-2.06,12.68-5.25C26.68,9.5,22.19,11.36,18.71,14.56L18.71,14.56z
				"/>
		</g>
	</g>
	<g id="Grupo_349_1_" transform="translate(291.699 29.184)">
		<g id="Grupo_344_1_" transform="translate(20.569 0.245)">
			<path id="Caminho_350_1_" class="st1" d="M17.48,8.59c3.76,3.78,8.88,5.9,14.21,5.89h0.15l0.1,0.1c1.19,1.19,2.24,2.51,3.11,3.95
				c1.97,3.25,3,6.97,3,10.77v0.35H37.7c-5.53-0.01-10.82-2.2-14.73-6.11l-0.1-0.1v-0.14c0.02-5.33-2.1-10.45-5.88-14.21L17.48,8.59
				z M31.55,15.18c-4.15-0.02-8.2-1.29-11.61-3.64c2.35,3.42,3.62,7.47,3.63,11.61c1.17,1.15,2.47,2.15,3.88,2.99
				c3,1.79,6.42,2.76,9.91,2.82C37.27,23.79,35.19,18.85,31.55,15.18L31.55,15.18z"/>
		</g>
		<g id="Grupo_345_1_" transform="translate(0 0.245)">
			<path id="Caminho_351_1_" class="st1" d="M37.56,8.59l0.49,0.49c-3.78,3.76-5.89,8.87-5.88,14.2v0.14l-0.1,0.1
				c-1.34,1.35-2.87,2.51-4.53,3.45l0,0c-3.11,1.76-6.63,2.68-10.2,2.68h-0.35v-0.35c-0.01-5.53,2.2-10.83,6.12-14.73l0.1-0.1h0.14
				C28.69,14.49,33.8,12.37,37.56,8.59z M31.47,23.14c0.02-4.15,1.29-8.19,3.64-11.61c-3.42,2.35-7.46,3.62-11.61,3.64
				c-3.65,3.67-5.73,8.61-5.82,13.79c3.34-0.06,6.6-0.94,9.51-2.59l0,0C28.76,25.49,30.2,24.4,31.47,23.14z"/>
		</g>
		<g id="Grupo_346_1_" transform="translate(19.975 0.144)">
			<path id="Caminho_352_1_" class="st1" d="M16.99,8.59h0.84c5.52-0.01,10.81,2.18,14.7,6.09l0.59,0.59h-0.84
				c-5.52,0.01-10.81-2.18-14.7-6.09L16.99,8.59z M31.4,14.57c-3.47-3.2-7.97-5.06-12.69-5.26C22.18,12.51,26.68,14.37,31.4,14.57z"
				/>
		</g>
		<g id="Grupo_347_1_" transform="translate(14.483)">
			<path id="Caminho_353_1_" class="st1" d="M23.32,8.59l0.24,0.24c8.12,8.13,8.12,21.3,0,29.44l-0.24,0.24l-0.24-0.24
				c-8.12-8.13-8.12-21.3,0-29.44L23.32,8.59z M23.32,37.53c7.52-7.8,7.52-20.15,0-27.95c-4.99,5.19-6.84,12.65-4.85,19.57l0,0
				C19.38,32.3,21.04,35.18,23.32,37.53z"/>
		</g>
		<g id="Grupo_348_1_" transform="translate(5.528 0.144)">
			<path id="Caminho_354_1_" class="st1" d="M32.27,8.59h0.84l-0.59,0.59c-3.89,3.91-9.18,6.1-14.69,6.09h-0.84l0.6-0.59
				C21.48,10.77,26.76,8.58,32.27,8.59z M18.72,14.56c4.71-0.2,9.2-2.06,12.67-5.25C26.68,9.5,22.19,11.36,18.72,14.56L18.72,14.56z
				"/>
		</g>
	</g>
	<g id="Grupo_355_1_" transform="translate(291.699 0.014)">
		<g id="Grupo_350_1_" transform="translate(0 8.622)">
			<path id="Caminho_355_1_" class="st1" d="M37.56,29.65c-3.76-3.78-8.88-5.9-14.21-5.89H23.2l-0.1-0.1
				c-1.19-1.19-2.24-2.51-3.11-3.95c-1.97-3.25-3-6.97-3-10.77V8.59h0.35c5.53,0,10.82,2.2,14.73,6.11l0.1,0.1v0.14
				c-0.02,5.33,2.1,10.45,5.88,14.21L37.56,29.65z M23.49,23.07c4.15,0.02,8.2,1.29,11.61,3.64c-2.35-3.42-3.61-7.47-3.63-11.61
				c-3.68-3.63-8.62-5.71-13.79-5.81C17.77,14.46,19.85,19.4,23.49,23.07L23.49,23.07z"/>
		</g>
		<g id="Grupo_351_1_" transform="translate(20.569 8.622)">
			<path id="Caminho_356_1_" class="st1" d="M17.48,29.65l-0.49-0.49c3.78-3.76,5.89-8.87,5.88-14.2v-0.15l0.1-0.1
				c1.34-1.35,2.87-2.51,4.53-3.45l0,0c3.11-1.76,6.63-2.68,10.2-2.68h0.35v0.35c0.01,5.53-2.2,10.83-6.12,14.73l-0.1,0.1h-0.14
				C26.35,23.76,21.24,25.88,17.48,29.65z M23.56,15.11c-0.02,4.15-1.28,8.19-3.63,11.61c3.41-2.35,7.46-3.61,11.6-3.64
				c3.65-3.67,5.73-8.61,5.82-13.79c-3.34,0.06-6.6,0.94-9.51,2.58l0,0C26.28,12.76,24.84,13.85,23.56,15.11z"/>
		</g>
		<g id="Grupo_352_1_" transform="translate(5.52 23.098)">
			<path id="Caminho_357_1_" class="st1" d="M33.12,15.28h-0.84c-5.52,0.01-10.81-2.18-14.7-6.09l-0.59-0.59h0.84
				c5.52-0.01,10.81,2.18,14.7,6.09L33.12,15.28z M18.71,9.3c3.47,3.2,7.97,5.06,12.69,5.26C27.93,11.36,23.43,9.5,18.71,9.3
				L18.71,9.3z"/>
		</g>
		<g id="Grupo_353_1_" transform="translate(14.483)">
			<path id="Caminho_358_1_" class="st1" d="M23.32,38.52l-0.24-0.24c-8.12-8.13-8.12-21.3,0-29.44l0.24-0.25l0.25,0.25
				c8.11,8.13,8.11,21.3,0,29.44L23.32,38.52z M23.32,9.58c-7.51,7.8-7.51,20.15,0,27.95c4.99-5.19,6.84-12.65,4.85-19.57l0,0
				C27.26,14.81,25.6,11.94,23.32,9.58z"/>
		</g>
		<g id="Grupo_354_1_" transform="translate(19.977 23.105)">
			<path id="Caminho_359_1_" class="st1" d="M17.82,15.27h-0.84l0.59-0.59c3.89-3.91,9.18-6.1,14.69-6.09h0.84l-0.6,0.59
				C28.62,13.09,23.34,15.28,17.82,15.27z M31.38,9.31c-4.71,0.2-9.2,2.06-12.67,5.25C23.42,14.36,27.91,12.5,31.38,9.31L31.38,9.31
				z"/>
		</g>
	</g>
	<g id="Grupo_361_1_" transform="translate(333.371 0.014)">
		<g id="Grupo_356_1_" transform="translate(0 8.622)">
			<path id="Caminho_360_1_" class="st1" d="M37.56,29.65c-3.76-3.78-8.88-5.9-14.21-5.89H23.2l-0.1-0.1
				c-1.19-1.19-2.24-2.51-3.11-3.95c-1.97-3.25-3-6.97-3-10.77V8.59h0.35c5.53,0,10.82,2.2,14.73,6.11l0.1,0.1v0.14
				c-0.02,5.33,2.1,10.45,5.88,14.21L37.56,29.65z M23.49,23.07c4.15,0.02,8.2,1.29,11.61,3.64c-2.35-3.42-3.61-7.47-3.63-11.61
				c-3.68-3.63-8.62-5.71-13.79-5.81C17.77,14.46,19.85,19.4,23.49,23.07L23.49,23.07z"/>
		</g>
		<g id="Grupo_357_1_" transform="translate(20.569 8.622)">
			<path id="Caminho_361_1_" class="st1" d="M17.48,29.65l-0.49-0.49c3.78-3.76,5.89-8.87,5.88-14.2v-0.15l0.1-0.1
				c1.34-1.35,2.87-2.51,4.53-3.45l0,0c3.11-1.76,6.63-2.68,10.2-2.68h0.35v0.35c0,5.53-2.2,10.83-6.12,14.73l-0.1,0.1h-0.14
				C26.35,23.76,21.24,25.88,17.48,29.65z M23.56,15.11c-0.02,4.15-1.29,8.19-3.64,11.61c3.42-2.35,7.46-3.62,11.61-3.64
				c3.65-3.67,5.73-8.61,5.82-13.79c-3.34,0.06-6.6,0.94-9.51,2.58l0,0C26.28,12.76,24.84,13.84,23.56,15.11z"/>
		</g>
		<g id="Grupo_358_1_" transform="translate(5.519 23.098)">
			<path id="Caminho_362_1_" class="st1" d="M33.12,15.28h-0.84c-5.52,0.01-10.81-2.18-14.7-6.09l-0.59-0.59h0.84
				c5.52-0.01,10.81,2.18,14.7,6.09L33.12,15.28z M18.71,9.3c3.47,3.2,7.97,5.06,12.69,5.26C27.93,11.36,23.43,9.5,18.71,9.3
				L18.71,9.3z"/>
		</g>
		<g id="Grupo_359_1_" transform="translate(14.483)">
			<path id="Caminho_363_1_" class="st1" d="M23.32,38.52l-0.24-0.24c-8.12-8.13-8.12-21.3,0-29.44l0.24-0.25l0.24,0.25
				c8.12,8.13,8.12,21.3,0,29.44L23.32,38.52z M23.32,9.58c-7.51,7.8-7.51,20.15,0,27.95c4.99-5.19,6.84-12.65,4.85-19.57l0,0
				C27.26,14.81,25.6,11.94,23.32,9.58z"/>
		</g>
		<g id="Grupo_360_1_" transform="translate(19.977 23.105)">
			<path id="Caminho_364_1_" class="st1" d="M17.83,15.27h-0.84l0.59-0.59c3.89-3.91,9.18-6.1,14.69-6.09h0.84l-0.59,0.59
				C28.63,13.09,23.34,15.28,17.83,15.27z M31.39,9.31c-4.71,0.2-9.2,2.06-12.67,5.25C23.42,14.36,27.91,12.5,31.39,9.31L31.39,9.31
				z"/>
		</g>
	</g>
</g>
</svg>
