<?xml version="1.0" encoding="utf-8"?>
<!-- Generator: Adobe Illustrator 25.0.1, SVG Export Plug-In . SVG Version: 6.00 Build 0)  -->
<svg version="1.1" id="Camada_1" xmlns="http://www.w3.org/2000/svg" xmlns:xlink="http://www.w3.org/1999/xlink" x="0px" y="0px"
	 viewBox="0 0 619.69 136.31" style="enable-background:new 0 0 619.69 136.31;" xml:space="preserve">
<style type="text/css">
	.st0{fill:#38675D;}
	.st1{fill:#FDA377;}
	.st2{fill:#4D8D7F;}
	.st3{fill:#FFFFFF;}
	.st4{fill:#FFC9B2;}
	.st5{fill:none;}
	.st6{fill:#083B30;}
</style>
<g id="Grupo_362" transform="translate(-975.037 -110.394)">
	<g id="Grupo_259" transform="translate(1359.217 155.217)">
		<g id="Grupo_254" transform="translate(31.606 0.377)">
			<path id="Caminho_275" class="st2" d="M21.83,26.08c5.78,5.81,13.64,9.07,21.83,9.05h0.23l0.16,0.15
				c1.83,1.83,3.44,3.86,4.78,6.07c3.02,4.99,4.62,10.72,4.61,16.55v0.53H52.9c-8.49-0.01-16.63-3.39-22.63-9.39l-0.16-0.16v-0.22
				c0.02-8.19-3.23-16.06-9.04-21.84L21.83,26.08z M43.44,36.19c-6.38-0.03-12.6-1.97-17.85-5.59c3.61,5.25,5.56,11.47,5.58,17.84
				c5.66,5.58,13.24,8.77,21.19,8.92c-0.09-5.46-1.63-10.79-4.45-15.46C46.65,39.83,45.15,37.91,43.44,36.19z"/>
		</g>
		<g id="Grupo_255" transform="translate(0 0.377)">
			<path id="Caminho_276" class="st2" d="M52.69,26.08l0.75,0.75c-5.8,5.78-9.06,13.63-9.04,21.82v0.22l-0.16,0.16
				c-2.07,2.07-4.41,3.86-6.96,5.29l0,0c-4.78,2.7-10.18,4.12-15.67,4.11h-0.53V57.9c-0.01-8.5,3.38-16.65,9.41-22.63l0.16-0.15
				h0.22C39.05,35.13,46.91,31.88,52.69,26.08z M43.34,48.43c0.03-6.37,1.98-12.58,5.59-17.83c-5.25,3.61-11.47,5.56-17.84,5.59
				c-5.61,5.64-8.81,13.23-8.94,21.18c5.12-0.09,10.15-1.45,14.61-3.97l0,0C39.16,52.04,41.37,50.37,43.34,48.43L43.34,48.43z"/>
		</g>
		<g id="Grupo_256" transform="translate(30.695 0.22)">
			<path id="Caminho_277" class="st2" d="M21.07,26.08h1.29c8.48-0.02,16.61,3.35,22.59,9.36l0.91,0.91h-1.29
				c-8.48,0.02-16.61-3.35-22.59-9.36L21.07,26.08z M43.21,35.25c-5.34-4.91-12.24-7.78-19.49-8.08
				C29.06,32.09,35.97,34.95,43.21,35.25L43.21,35.25z"/>
		</g>
		<g id="Grupo_257" transform="translate(22.256)">
			<path id="Caminho_278" class="st2" d="M30.8,26.08l0.38,0.38c12.48,12.49,12.48,32.74,0,45.23l-0.38,0.38l-0.38-0.38
				c-12.47-12.5-12.47-32.73,0-45.23L30.8,26.08z M30.8,70.54c11.55-11.99,11.55-30.96,0-42.95c-7.67,7.98-10.51,19.44-7.45,30.07
				l0,0C24.75,62.5,27.31,66.92,30.8,70.54L30.8,70.54z"/>
		</g>
		<g id="Grupo_258" transform="translate(8.496 0.22)">
			<path id="Caminho_279" class="st2" d="M44.56,26.08h1.29l-0.91,0.91c-5.98,6-14.1,9.37-22.57,9.35h-1.29l0.92-0.91
				C27.97,29.42,36.09,26.06,44.56,26.08z M23.73,35.24c7.24-0.3,14.14-3.16,19.48-8.07C35.96,27.47,29.06,30.33,23.73,35.24
				L23.73,35.24z"/>
		</g>
	</g>
	<g id="Grupo_265" transform="translate(1295.187 155.217)">
		<g id="Grupo_260" transform="translate(31.606 0.377)">
			<path id="Caminho_280" class="st2" d="M21.83,26.08c5.78,5.81,13.64,9.07,21.83,9.05h0.22l0.16,0.15
				c1.83,1.83,3.43,3.86,4.78,6.07c3.02,4.99,4.62,10.72,4.61,16.55v0.53H52.9c-8.49-0.01-16.63-3.39-22.63-9.39l-0.16-0.16v-0.22
				c0.02-8.19-3.23-16.06-9.04-21.84L21.83,26.08z M43.44,36.19c-6.38-0.03-12.6-1.97-17.85-5.59c3.61,5.25,5.56,11.47,5.58,17.84
				c5.66,5.58,13.24,8.77,21.18,8.92C52.24,49.42,49.04,41.83,43.44,36.19z"/>
		</g>
		<g id="Grupo_261" transform="translate(0 0.377)">
			<path id="Caminho_281" class="st2" d="M52.68,26.08l0.76,0.75c-5.8,5.78-9.06,13.63-9.04,21.82v0.22l-0.16,0.16
				c-2.07,2.07-4.41,3.86-6.96,5.29l0,0c-4.78,2.7-10.18,4.12-15.67,4.11h-0.53V57.9c-0.01-8.5,3.38-16.65,9.41-22.63l0.16-0.15
				h0.22C39.05,35.13,46.91,31.88,52.68,26.08z M43.33,48.43c0.03-6.37,1.98-12.58,5.58-17.83c-5.25,3.61-11.46,5.56-17.83,5.59
				c-5.61,5.64-8.81,13.23-8.94,21.18c5.12-0.09,10.15-1.45,14.61-3.97l0,0C39.16,52.04,41.37,50.37,43.33,48.43z"/>
		</g>
		<g id="Grupo_262" transform="translate(30.695 0.22)">
			<path id="Caminho_282" class="st2" d="M21.08,26.08h1.29c8.48-0.02,16.61,3.35,22.59,9.36l0.91,0.91h-1.29
				C36.1,36.37,27.96,33,21.99,26.99L21.08,26.08z M43.22,35.25c-5.34-4.91-12.24-7.78-19.49-8.08
				C29.06,32.09,35.97,34.95,43.22,35.25L43.22,35.25z"/>
		</g>
		<g id="Grupo_263" transform="translate(22.256)">
			<path id="Caminho_283" class="st2" d="M30.8,26.08l0.38,0.38c12.48,12.5,12.48,32.73,0,45.23l-0.38,0.38l-0.38-0.38
				c-12.47-12.5-12.47-32.73,0-45.23L30.8,26.08z M30.8,70.54c11.55-11.99,11.55-30.96,0-42.95c-7.67,7.98-10.51,19.44-7.45,30.07
				l0,0C24.74,62.5,27.3,66.92,30.8,70.54L30.8,70.54z"/>
		</g>
		<g id="Grupo_264" transform="translate(8.496 0.22)">
			<path id="Caminho_284" class="st2" d="M44.56,26.08h1.29l-0.91,0.91c-5.98,6-14.1,9.37-22.57,9.35h-1.29l0.92-0.91
				C27.97,29.42,36.09,26.06,44.56,26.08z M23.73,35.24c7.24-0.3,14.14-3.16,19.48-8.07C35.96,27.47,29.06,30.33,23.73,35.24
				L23.73,35.24z"/>
		</g>
	</g>
	<g id="Grupo_271" transform="translate(1231.158 155.217)">
		<g id="Grupo_266" transform="translate(31.604 0.377)">
			<path id="Caminho_285" class="st2" d="M21.83,26.08c5.78,5.81,13.64,9.07,21.83,9.05h0.23l0.16,0.15
				c1.83,1.83,3.43,3.86,4.78,6.07c3.02,4.99,4.62,10.72,4.61,16.55v0.53H52.9c-8.49-0.01-16.63-3.39-22.63-9.39l-0.16-0.16v-0.22
				c0.02-8.19-3.23-16.06-9.04-21.84L21.83,26.08z M43.44,36.19c-6.38-0.03-12.59-1.97-17.84-5.59c3.61,5.25,5.55,11.47,5.58,17.84
				c5.66,5.58,13.24,8.77,21.19,8.92C52.24,49.42,49.04,41.83,43.44,36.19L43.44,36.19z"/>
		</g>
		<g id="Grupo_267" transform="translate(0 0.377)">
			<path id="Caminho_286" class="st2" d="M52.68,26.08l0.76,0.75c-5.8,5.78-9.06,13.63-9.04,21.82v0.22l-0.16,0.16
				c-2.07,2.08-4.41,3.86-6.96,5.29l0,0c-4.78,2.7-10.18,4.12-15.67,4.11h-0.53V57.9c-0.01-8.5,3.38-16.65,9.41-22.63l0.16-0.15
				h0.22C39.05,35.13,46.9,31.88,52.68,26.08z M43.33,48.43c0.03-6.37,1.98-12.58,5.58-17.83c-5.25,3.61-11.46,5.56-17.83,5.59
				c-5.61,5.64-8.81,13.23-8.94,21.18c5.12-0.09,10.15-1.45,14.61-3.97l0,0C39.16,52.04,41.37,50.37,43.33,48.43z"/>
		</g>
		<g id="Grupo_268" transform="translate(30.693 0.22)">
			<path id="Caminho_287" class="st2" d="M21.08,26.08h1.29c8.48-0.02,16.61,3.35,22.59,9.36l0.91,0.91h-1.29
				C36.1,36.37,27.96,33,21.99,26.99L21.08,26.08z M43.22,35.25c-5.34-4.91-12.24-7.78-19.49-8.08
				C29.06,32.09,35.97,34.95,43.22,35.25L43.22,35.25z"/>
		</g>
		<g id="Grupo_269" transform="translate(22.254)">
			<path id="Caminho_288" class="st2" d="M30.8,26.08l0.38,0.38c12.48,12.5,12.48,32.73,0,45.23l-0.38,0.38l-0.38-0.38
				c-12.47-12.5-12.47-32.73,0-45.23L30.8,26.08z M30.8,70.54c11.55-11.99,11.55-30.96,0-42.95c-7.67,7.98-10.51,19.44-7.45,30.07
				l0,0C24.75,62.5,27.31,66.92,30.8,70.54L30.8,70.54z"/>
		</g>
		<g id="Grupo_270" transform="translate(8.495 0.22)">
			<path id="Caminho_289" class="st2" d="M44.56,26.08h1.29l-0.91,0.91c-5.98,6-14.1,9.37-22.57,9.35h-1.29l0.92-0.91
				C27.97,29.42,36.09,26.06,44.56,26.08z M23.73,35.24c7.24-0.3,14.14-3.16,19.48-8.07C35.96,27.47,29.06,30.33,23.73,35.24
				L23.73,35.24z"/>
		</g>
	</g>
	<g id="Grupo_277" transform="translate(1167.128 155.217)">
		<g id="Grupo_272" transform="translate(31.604 0.377)">
			<path id="Caminho_290" class="st2" d="M21.83,26.08c5.78,5.81,13.64,9.07,21.83,9.05h0.22l0.16,0.15
				c1.83,1.83,3.44,3.86,4.78,6.07c3.02,4.99,4.62,10.72,4.61,16.55v0.53H52.9c-8.49-0.01-16.63-3.39-22.63-9.39l-0.16-0.16v-0.22
				c0.02-8.19-3.23-16.06-9.04-21.84L21.83,26.08z M43.44,36.19c-6.38-0.03-12.59-1.97-17.84-5.59c3.61,5.25,5.55,11.47,5.58,17.84
				c5.66,5.58,13.24,8.77,21.19,8.92C52.24,49.42,49.04,41.83,43.44,36.19L43.44,36.19z"/>
		</g>
		<g id="Grupo_273" transform="translate(0 0.377)">
			<path id="Caminho_291" class="st2" d="M52.68,26.08l0.76,0.75c-5.8,5.78-9.06,13.63-9.04,21.82v0.22l-0.16,0.16
				c-2.07,2.08-4.41,3.86-6.96,5.29l0,0c-4.78,2.7-10.18,4.12-15.67,4.11h-0.53V57.9c-0.01-8.5,3.38-16.65,9.41-22.63l0.16-0.15
				h0.22C39.05,35.13,46.9,31.88,52.68,26.08z M43.33,48.43c0.03-6.37,1.98-12.58,5.58-17.83c-5.25,3.61-11.46,5.56-17.83,5.59
				c-5.61,5.64-8.81,13.23-8.94,21.18c5.12-0.09,10.15-1.45,14.61-3.97l0,0C39.16,52.04,41.37,50.37,43.33,48.43z"/>
		</g>
		<g id="Grupo_274" transform="translate(30.693 0.22)">
			<path id="Caminho_292" class="st2" d="M21.08,26.08h1.29c8.48-0.02,16.61,3.35,22.59,9.36l0.91,0.91h-1.29
				C36.1,36.37,27.96,33,21.99,26.99L21.08,26.08z M43.22,35.25c-5.34-4.91-12.24-7.78-19.49-8.08
				C29.06,32.09,35.97,34.95,43.22,35.25L43.22,35.25z"/>
		</g>
		<g id="Grupo_275" transform="translate(22.254)">
			<path id="Caminho_293" class="st2" d="M30.8,26.08l0.38,0.38c12.48,12.5,12.48,32.73,0,45.23l-0.38,0.38l-0.38-0.38
				c-12.47-12.5-12.47-32.73,0-45.23L30.8,26.08z M30.8,70.54c11.55-11.99,11.55-30.96,0-42.95c-7.67,7.98-10.51,19.44-7.46,30.07
				l0,0C24.75,62.5,27.31,66.92,30.8,70.54L30.8,70.54z"/>
		</g>
		<g id="Grupo_276" transform="translate(8.495 0.22)">
			<path id="Caminho_294" class="st2" d="M44.56,26.08h1.29l-0.91,0.91c-5.98,6-14.1,9.37-22.57,9.35h-1.29l0.91-0.91
				C27.97,29.42,36.09,26.06,44.56,26.08z M23.73,35.24c7.24-0.3,14.14-3.16,19.47-8.07C35.96,27.47,29.06,30.33,23.73,35.24
				L23.73,35.24z"/>
		</g>
	</g>
	<g id="Grupo_283" transform="translate(1103.098 155.217)">
		<g id="Grupo_278" transform="translate(31.606 0.377)">
			<path id="Caminho_295" class="st2" d="M21.83,26.08c5.78,5.81,13.64,9.07,21.83,9.05h0.23l0.16,0.15
				c1.83,1.83,3.44,3.86,4.78,6.07c3.02,4.99,4.62,10.72,4.61,16.55v0.53H52.9c-8.49-0.01-16.63-3.39-22.63-9.39l-0.16-0.16v-0.22
				c0.02-8.19-3.23-16.06-9.04-21.84L21.83,26.08z M43.44,36.19c-6.38-0.03-12.59-1.97-17.84-5.59c3.61,5.25,5.55,11.47,5.58,17.84
				c5.66,5.58,13.24,8.77,21.19,8.92C52.24,49.42,49.04,41.83,43.44,36.19L43.44,36.19z"/>
		</g>
		<g id="Grupo_279" transform="translate(0 0.377)">
			<path id="Caminho_296" class="st2" d="M52.68,26.08l0.75,0.75c-5.8,5.78-9.06,13.63-9.04,21.82v0.22l-0.16,0.16
				c-2.07,2.08-4.41,3.86-6.96,5.29l0,0c-4.78,2.7-10.18,4.12-15.67,4.11h-0.53V57.9c-0.01-8.5,3.38-16.65,9.41-22.63l0.16-0.15
				h0.22C39.05,35.13,46.9,31.88,52.68,26.08z M43.33,48.43c0.03-6.37,1.98-12.58,5.59-17.83c-5.25,3.61-11.46,5.56-17.83,5.59
				c-5.6,5.64-8.81,13.23-8.94,21.18c5.12-0.09,10.15-1.45,14.61-3.97l0,0C39.16,52.04,41.37,50.37,43.33,48.43L43.33,48.43z"/>
		</g>
		<g id="Grupo_280" transform="translate(30.695 0.22)">
			<path id="Caminho_297" class="st2" d="M21.08,26.08h1.29c8.48-0.02,16.61,3.35,22.59,9.36l0.91,0.91h-1.3
				C36.1,36.37,27.96,33,21.99,26.99L21.08,26.08z M43.22,35.25c-5.34-4.91-12.25-7.78-19.5-8.08
				C29.06,32.09,35.97,34.95,43.22,35.25L43.22,35.25z"/>
		</g>
		<g id="Grupo_281" transform="translate(22.254)">
			<path id="Caminho_298" class="st2" d="M30.8,26.08l0.38,0.38c12.48,12.5,12.48,32.74,0,45.23l-0.38,0.38l-0.38-0.38
				c-12.47-12.5-12.47-32.73,0-45.23L30.8,26.08z M30.8,70.54c11.55-11.99,11.55-30.96,0-42.95c-7.67,7.98-10.51,19.44-7.46,30.07
				l0,0C24.75,62.5,27.31,66.92,30.8,70.54L30.8,70.54z"/>
		</g>
		<g id="Grupo_282" transform="translate(8.495 0.22)">
			<path id="Caminho_299" class="st2" d="M44.56,26.08h1.29l-0.91,0.91c-5.98,6-14.1,9.37-22.57,9.35h-1.29l0.92-0.91
				C27.97,29.42,36.09,26.06,44.56,26.08z M23.73,35.24c7.24-0.3,14.14-3.16,19.47-8.07C35.96,27.47,29.06,30.33,23.73,35.24
				L23.73,35.24z"/>
		</g>
	</g>
	<g id="Grupo_289" transform="translate(1039.067 155.217)">
		<g id="Grupo_284" transform="translate(31.606 0.377)">
			<path id="Caminho_300" class="st2" d="M21.83,26.08c5.78,5.81,13.64,9.07,21.83,9.05h0.22l0.16,0.15
				c1.83,1.83,3.44,3.86,4.78,6.07c3.02,4.99,4.62,10.72,4.61,16.55v0.53H52.9c-8.49-0.01-16.63-3.39-22.63-9.39l-0.16-0.16v-0.22
				c0.02-8.19-3.23-16.06-9.04-21.84L21.83,26.08z M43.44,36.19c-6.38-0.03-12.59-1.97-17.84-5.59c3.61,5.25,5.55,11.47,5.58,17.84
				c5.66,5.58,13.24,8.77,21.19,8.92C52.24,49.42,49.04,41.83,43.44,36.19L43.44,36.19z"/>
		</g>
		<g id="Grupo_285" transform="translate(0 0.377)">
			<path id="Caminho_301" class="st2" d="M52.68,26.08l0.75,0.75c-5.8,5.78-9.06,13.63-9.04,21.82v0.22l-0.16,0.16
				c-2.07,2.07-4.41,3.86-6.96,5.29l0,0c-4.78,2.7-10.18,4.12-15.67,4.11h-0.53V57.9c-0.01-8.5,3.38-16.65,9.41-22.63l0.16-0.15
				h0.22C39.05,35.13,46.9,31.88,52.68,26.08z M43.33,48.43c0.03-6.37,1.98-12.58,5.59-17.83c-5.25,3.61-11.46,5.56-17.83,5.59
				c-5.6,5.64-8.81,13.23-8.94,21.18c5.12-0.09,10.15-1.45,14.61-3.97l0,0C39.16,52.04,41.37,50.37,43.33,48.43L43.33,48.43z"/>
		</g>
		<g id="Grupo_286" transform="translate(30.695 0.22)">
			<path id="Caminho_302" class="st2" d="M21.08,26.08h1.29c8.48-0.02,16.61,3.35,22.59,9.36l0.91,0.91h-1.29
				C36.1,36.37,27.96,33,21.99,26.99L21.08,26.08z M43.22,35.25c-5.34-4.92-12.25-7.78-19.5-8.08
				C29.05,32.09,35.97,34.95,43.22,35.25L43.22,35.25z"/>
		</g>
		<g id="Grupo_287" transform="translate(22.254)">
			<path id="Caminho_303" class="st2" d="M30.8,26.08l0.38,0.38c12.48,12.5,12.48,32.73,0,45.23l-0.38,0.38l-0.38-0.38
				c-12.47-12.5-12.47-32.73,0-45.23L30.8,26.08z M30.8,70.54c11.55-11.99,11.55-30.96,0-42.95c-7.67,7.98-10.51,19.44-7.46,30.07
				l0,0C24.75,62.5,27.31,66.92,30.8,70.54L30.8,70.54z"/>
		</g>
		<g id="Grupo_288" transform="translate(8.496 0.22)">
			<path id="Caminho_304" class="st2" d="M44.56,26.08h1.29l-0.91,0.91c-5.98,6-14.1,9.37-22.57,9.35h-1.29l0.91-0.91
				C27.96,29.42,36.09,26.06,44.56,26.08z M23.73,35.24c7.24-0.3,14.14-3.16,19.47-8.07C35.96,27.47,29.06,30.33,23.73,35.24
				L23.73,35.24z"/>
		</g>
	</g>
	<g id="Grupo_295" transform="translate(975.037 155.217)">
		<g id="Grupo_290" transform="translate(31.606 0.377)">
			<path id="Caminho_305" class="st2" d="M21.83,26.08c5.78,5.81,13.64,9.07,21.83,9.05h0.22l0.16,0.15
				c1.83,1.83,3.44,3.86,4.78,6.07c3.02,4.99,4.62,10.72,4.61,16.55v0.53H52.9c-8.49-0.01-16.63-3.39-22.63-9.39l-0.16-0.16v-0.22
				c0.02-8.19-3.23-16.06-9.04-21.84L21.83,26.08z M43.44,36.19c-6.38-0.03-12.59-1.97-17.84-5.59c3.61,5.25,5.55,11.47,5.58,17.84
				c5.66,5.58,13.24,8.77,21.19,8.92C52.24,49.42,49.04,41.83,43.44,36.19z"/>
		</g>
		<g id="Grupo_291" transform="translate(0 0.377)">
			<path id="Caminho_306" class="st2" d="M52.68,26.08l0.75,0.75c-5.8,5.78-9.06,13.63-9.04,21.82v0.22l-0.16,0.16
				c-2.07,2.07-4.41,3.86-6.96,5.29l0,0c-4.78,2.7-10.18,4.12-15.67,4.11h-0.53V57.9c-0.01-8.5,3.38-16.65,9.41-22.63l0.16-0.15
				h0.22C39.05,35.13,46.91,31.88,52.68,26.08z M43.33,48.43c0.03-6.37,1.98-12.58,5.59-17.83c-5.25,3.61-11.46,5.56-17.83,5.59
				c-5.6,5.64-8.81,13.23-8.94,21.18c5.12-0.09,10.14-1.45,14.61-3.97l0,0C39.16,52.04,41.37,50.37,43.33,48.43z"/>
		</g>
		<g id="Grupo_292" transform="translate(30.695 0.22)">
			<path id="Caminho_307" class="st2" d="M21.08,26.08h1.29c8.48-0.02,16.61,3.35,22.59,9.36l0.91,0.91h-1.29
				C36.1,36.37,27.96,33,21.99,26.99L21.08,26.08z M43.22,35.25c-5.34-4.91-12.24-7.78-19.49-8.08
				C29.06,32.09,35.97,34.95,43.22,35.25L43.22,35.25z"/>
		</g>
		<g id="Grupo_293" transform="translate(22.256)">
			<path id="Caminho_308" class="st2" d="M30.8,26.08l0.38,0.38c12.48,12.49,12.48,32.74,0,45.23l-0.38,0.38l-0.38-0.38
				c-12.47-12.5-12.47-32.73,0-45.23L30.8,26.08z M30.8,70.54c11.55-11.99,11.55-30.96,0-42.95c-5.57,5.74-8.68,13.43-8.66,21.44
				c-0.01,2.92,0.4,5.83,1.2,8.64l0,0C24.74,62.5,27.3,66.92,30.8,70.54L30.8,70.54z"/>
		</g>
		<g id="Grupo_294" transform="translate(8.496 0.22)">
			<path id="Caminho_309" class="st2" d="M44.56,26.08h1.29l-0.91,0.91c-5.98,6-14.1,9.37-22.57,9.35h-1.29l0.91-0.91
				C27.97,29.42,36.09,26.06,44.56,26.08z M23.73,35.24c7.24-0.3,14.14-3.16,19.47-8.07C35.96,27.47,29.06,30.33,23.73,35.24
				L23.73,35.24z"/>
		</g>
	</g>
	<g id="Grupo_301" transform="translate(975.037 110.394)">
		<g id="Grupo_296" transform="translate(0 13.248)">
			<path id="Caminho_310" class="st2" d="M52.68,58.44c-5.78-5.81-13.64-9.07-21.83-9.05h-0.22l-0.16-0.15
				c-1.83-1.82-3.44-3.86-4.78-6.07c-3.02-4.99-4.62-10.72-4.61-16.55v-0.53h0.53c8.49,0.01,16.63,3.39,22.63,9.39l0.16,0.16v0.22
				c-0.02,8.19,3.23,16.06,9.04,21.83L52.68,58.44z M31.07,48.32c6.38,0.03,12.6,1.98,17.85,5.59c-3.61-5.25-5.56-11.47-5.58-17.84
				c-5.66-5.58-13.24-8.77-21.18-8.92C22.27,35.09,25.47,42.68,31.07,48.32L31.07,48.32z"/>
		</g>
		<g id="Grupo_297" transform="translate(31.606 13.248)">
			<path id="Caminho_311" class="st2" d="M21.83,58.44l-0.76-0.75c5.8-5.78,9.06-13.63,9.04-21.82v-0.22l0.16-0.16
				c2.07-2.07,4.41-3.86,6.96-5.29l0,0c4.78-2.7,10.18-4.12,15.67-4.11h0.53v0.53c0.01,8.5-3.38,16.65-9.41,22.63l-0.16,0.15h-0.22
				C35.46,49.38,27.61,52.63,21.83,58.44z M31.18,36.09c-0.03,6.37-1.98,12.58-5.59,17.83c5.25-3.61,11.46-5.56,17.83-5.59
				c5.61-5.64,8.81-13.23,8.94-21.18c-5.12,0.09-10.15,1.45-14.61,3.97l0,0C35.35,32.47,33.14,34.14,31.18,36.09L31.18,36.09z"/>
		</g>
		<g id="Grupo_298" transform="translate(8.482 35.493)">
			<path id="Caminho_312" class="st2" d="M45.87,36.35h-1.29C36.1,36.37,27.97,33,21.99,26.99l-0.91-0.91h1.29
				c8.48-0.02,16.61,3.35,22.59,9.36L45.87,36.35z M23.72,27.17c5.34,4.92,12.24,7.78,19.49,8.08
				C37.88,30.33,30.97,27.47,23.72,27.17z"/>
		</g>
		<g id="Grupo_299" transform="translate(22.256)">
			<path id="Caminho_313" class="st2" d="M30.8,72.06l-0.38-0.38c-12.48-12.5-12.48-32.73,0-45.23l0.38-0.38l0.38,0.38
				c12.47,12.5,12.47,32.73,0,45.23L30.8,72.06z M30.8,27.59c-11.55,11.99-11.55,30.96,0,42.95c7.67-7.98,10.51-19.44,7.45-30.07
				l0,0C36.86,35.64,34.3,31.21,30.8,27.59L30.8,27.59z"/>
		</g>
		<g id="Grupo_300" transform="translate(30.695 35.502)">
			<path id="Caminho_314" class="st2" d="M22.36,36.34h-1.29l0.91-0.91c5.98-6,14.1-9.37,22.57-9.35h1.29l-0.91,0.91
				C38.96,32.99,30.83,36.36,22.36,36.34z M43.2,27.18c-7.24,0.3-14.14,3.16-19.48,8.07C30.96,34.94,37.86,32.08,43.2,27.18
				L43.2,27.18z"/>
		</g>
	</g>
	<g id="Grupo_307" transform="translate(1039.067 110.394)">
		<g id="Grupo_302" transform="translate(0 13.248)">
			<path id="Caminho_315" class="st2" d="M52.68,58.44c-5.78-5.81-13.64-9.07-21.83-9.05h-0.22l-0.16-0.15
				c-1.83-1.82-3.44-3.86-4.78-6.07c-3.02-4.99-4.61-10.72-4.61-16.55v-0.53h0.53c8.49,0.01,16.63,3.39,22.63,9.39l0.16,0.16v0.22
				c-0.02,8.19,3.23,16.06,9.04,21.83L52.68,58.44z M31.07,48.32c6.38,0.03,12.59,1.97,17.84,5.59c-3.61-5.25-5.55-11.47-5.58-17.84
				c-5.66-5.58-13.24-8.77-21.18-8.92C22.27,35.09,25.47,42.68,31.07,48.32L31.07,48.32z"/>
		</g>
		<g id="Grupo_303" transform="translate(31.606 13.248)">
			<path id="Caminho_316" class="st2" d="M21.83,58.44l-0.76-0.75c5.8-5.78,9.06-13.63,9.04-21.82v-0.22l0.16-0.16
				c2.07-2.08,4.41-3.86,6.96-5.29l0,0c4.78-2.7,10.18-4.12,15.67-4.11h0.53v0.53c0.01,8.5-3.38,16.65-9.41,22.63l-0.16,0.15h-0.22
				C35.46,49.38,27.61,52.63,21.83,58.44z M31.18,36.09c-0.03,6.37-1.98,12.58-5.58,17.83c5.25-3.61,11.46-5.56,17.83-5.59
				c5.61-5.64,8.81-13.23,8.94-21.18c-5.12,0.09-10.15,1.45-14.61,3.97l0,0C35.35,32.47,33.14,34.14,31.18,36.09L31.18,36.09z"/>
		</g>
		<g id="Grupo_304" transform="translate(8.482 35.493)">
			<path id="Caminho_317" class="st2" d="M45.87,36.35h-1.29C36.1,36.37,27.97,33,21.99,26.99l-0.91-0.91h1.29
				c8.48-0.02,16.61,3.35,22.59,9.36L45.87,36.35z M23.72,27.17c5.34,4.92,12.24,7.78,19.49,8.08
				C37.88,30.33,30.97,27.47,23.72,27.17L23.72,27.17z"/>
		</g>
		<g id="Grupo_305" transform="translate(22.254)">
			<path id="Caminho_318" class="st2" d="M30.8,72.06l-0.38-0.38c-12.48-12.5-12.48-32.73,0-45.23l0.38-0.38l0.38,0.38
				c12.47,12.5,12.47,32.73,0,45.23L30.8,72.06z M30.8,27.59c-11.55,11.99-11.55,30.96,0,42.95c7.67-7.98,10.51-19.44,7.46-30.07
				l0,0C36.86,35.63,34.3,31.21,30.8,27.59L30.8,27.59z"/>
		</g>
		<g id="Grupo_306" transform="translate(30.695 35.502)">
			<path id="Caminho_319" class="st2" d="M22.36,36.34h-1.29l0.91-0.91c5.98-6,14.1-9.37,22.57-9.35h1.29l-0.92,0.91
				C38.96,32.99,30.83,36.36,22.36,36.34z M43.2,27.18c-7.24,0.3-14.14,3.16-19.48,8.07C30.97,34.94,37.86,32.08,43.2,27.18
				L43.2,27.18z"/>
		</g>
	</g>
	<g id="Grupo_313" transform="translate(1103.098 110.394)">
		<g id="Grupo_308" transform="translate(0 13.248)">
			<path id="Caminho_320" class="st2" d="M52.68,58.44c-5.78-5.81-13.64-9.07-21.83-9.05h-0.22l-0.16-0.15
				c-1.83-1.82-3.44-3.86-4.78-6.07c-3.02-4.99-4.62-10.72-4.61-16.55v-0.53h0.53c8.49,0.01,16.63,3.39,22.63,9.39l0.16,0.16v0.22
				c-0.02,8.19,3.23,16.06,9.04,21.83L52.68,58.44z M31.07,48.32c6.38,0.03,12.59,1.97,17.84,5.59c-3.61-5.25-5.55-11.47-5.58-17.84
				c-5.66-5.58-13.24-8.77-21.18-8.92C22.27,35.09,25.47,42.68,31.07,48.32L31.07,48.32z"/>
		</g>
		<g id="Grupo_309" transform="translate(31.606 13.248)">
			<path id="Caminho_321" class="st2" d="M21.83,58.44l-0.76-0.75c5.8-5.78,9.06-13.63,9.04-21.82v-0.22l0.16-0.16
				c2.07-2.08,4.41-3.86,6.96-5.29l0,0c4.78-2.7,10.18-4.12,15.67-4.11h0.53v0.53c0.01,8.5-3.38,16.65-9.41,22.63l-0.16,0.15h-0.22
				C35.46,49.38,27.61,52.63,21.83,58.44z M31.18,36.09c-0.03,6.37-1.98,12.58-5.58,17.83c5.25-3.61,11.46-5.56,17.83-5.59
				c5.6-5.64,8.81-13.23,8.94-21.18c-5.12,0.09-10.15,1.45-14.61,3.97l0,0C35.35,32.47,33.14,34.14,31.18,36.09L31.18,36.09z"/>
		</g>
		<g id="Grupo_310" transform="translate(8.482 35.493)">
			<path id="Caminho_322" class="st2" d="M45.87,36.35h-1.29C36.1,36.37,27.97,33,21.99,26.99l-0.91-0.91h1.29
				c8.48-0.02,16.61,3.35,22.59,9.36L45.87,36.35z M23.72,27.17c5.34,4.92,12.25,7.78,19.5,8.08
				C37.89,30.33,30.98,27.47,23.72,27.17L23.72,27.17z"/>
		</g>
		<g id="Grupo_311" transform="translate(22.254)">
			<path id="Caminho_323" class="st2" d="M30.8,72.06l-0.38-0.38c-12.48-12.49-12.48-32.73,0-45.23l0.38-0.38l0.38,0.38
				c12.47,12.5,12.47,32.73,0,45.23L30.8,72.06z M30.8,27.59c-11.55,11.99-11.55,30.96,0,42.95c7.67-7.98,10.51-19.44,7.46-30.07
				l0,0C36.86,35.63,34.3,31.21,30.8,27.59L30.8,27.59z"/>
		</g>
		<g id="Grupo_312" transform="translate(30.695 35.502)">
			<path id="Caminho_324" class="st2" d="M22.36,36.34h-1.29l0.91-0.91c5.98-6,14.1-9.37,22.57-9.35h1.29l-0.92,0.91
				C38.96,32.99,30.83,36.36,22.36,36.34z M43.2,27.18c-7.24,0.3-14.14,3.16-19.47,8.07C30.96,34.94,37.86,32.08,43.2,27.18
				L43.2,27.18z"/>
		</g>
	</g>
	<g id="Grupo_319" transform="translate(1167.128 110.394)">
		<g id="Grupo_314" transform="translate(0 13.248)">
			<path id="Caminho_325" class="st2" d="M52.68,58.44c-5.78-5.81-13.64-9.07-21.83-9.05h-0.22l-0.16-0.15
				c-1.83-1.83-3.44-3.86-4.78-6.07c-3.02-4.99-4.62-10.72-4.61-16.55v-0.53h0.53c8.49,0.01,16.63,3.39,22.63,9.39l0.16,0.16v0.22
				c-0.02,8.19,3.23,16.06,9.04,21.83L52.68,58.44z M31.07,48.32c6.38,0.03,12.59,1.97,17.84,5.59c-3.61-5.25-5.55-11.47-5.58-17.84
				c-5.66-5.58-13.24-8.77-21.19-8.92C22.27,35.09,25.47,42.68,31.07,48.32L31.07,48.32z"/>
		</g>
		<g id="Grupo_315" transform="translate(31.606 13.248)">
			<path id="Caminho_326" class="st2" d="M21.83,58.44l-0.75-0.75c5.8-5.78,9.06-13.63,9.04-21.82v-0.22l0.16-0.16
				c2.07-2.08,4.41-3.86,6.96-5.29l0,0c4.78-2.7,10.18-4.12,15.67-4.11h0.53v0.53c0.01,8.5-3.38,16.65-9.41,22.63l-0.16,0.15h-0.22
				C35.46,49.38,27.61,52.63,21.83,58.44z M31.18,36.09c-0.03,6.37-1.98,12.58-5.59,17.83c5.25-3.61,11.46-5.56,17.83-5.59
				c5.6-5.64,8.81-13.23,8.94-21.18c-5.12,0.09-10.15,1.45-14.61,3.97l0,0C35.35,32.47,33.14,34.14,31.18,36.09L31.18,36.09z"/>
		</g>
		<g id="Grupo_316" transform="translate(8.48 35.493)">
			<path id="Caminho_327" class="st2" d="M45.87,36.35h-1.29C36.1,36.37,27.97,33,21.99,26.99l-0.91-0.91h1.29
				c8.48-0.02,16.61,3.35,22.59,9.36L45.87,36.35z M23.73,27.17c5.34,4.92,12.25,7.78,19.5,8.08
				C37.89,30.33,30.98,27.47,23.73,27.17L23.73,27.17z"/>
		</g>
		<g id="Grupo_317" transform="translate(22.254)">
			<path id="Caminho_328" class="st2" d="M30.8,72.06l-0.38-0.38c-12.48-12.5-12.48-32.73,0-45.23l0.38-0.38l0.38,0.38
				c12.47,12.5,12.47,32.73,0,45.23L30.8,72.06z M30.8,27.59c-11.55,11.99-11.55,30.96,0,42.95c7.67-7.98,10.51-19.44,7.46-30.07
				l0,0C36.86,35.63,34.3,31.21,30.8,27.59L30.8,27.59z"/>
		</g>
		<g id="Grupo_318" transform="translate(30.695 35.502)">
			<path id="Caminho_329" class="st2" d="M22.36,36.34h-1.29l0.91-0.91c5.98-6,14.1-9.37,22.57-9.35h1.29l-0.92,0.91
				C38.96,32.99,30.83,36.36,22.36,36.34z M43.2,27.18c-7.24,0.3-14.14,3.16-19.47,8.07C30.96,34.94,37.86,32.08,43.2,27.18
				L43.2,27.18z"/>
		</g>
	</g>
	<g id="Grupo_325" transform="translate(1231.158 110.394)">
		<g id="Grupo_320" transform="translate(0 13.248)">
			<path id="Caminho_330" class="st2" d="M52.68,58.44c-5.78-5.81-13.64-9.07-21.83-9.05h-0.23l-0.16-0.15
				c-1.83-1.82-3.44-3.86-4.78-6.07c-3.02-4.99-4.62-10.72-4.61-16.55v-0.53h0.53c8.49,0.01,16.63,3.39,22.63,9.39l0.16,0.16v0.22
				c-0.02,8.19,3.23,16.06,9.04,21.83L52.68,58.44z M31.07,48.32c6.38,0.03,12.59,1.97,17.84,5.59c-3.61-5.25-5.55-11.47-5.58-17.84
				c-5.66-5.58-13.24-8.77-21.19-8.92C22.27,35.09,25.47,42.68,31.07,48.32L31.07,48.32z"/>
		</g>
		<g id="Grupo_321" transform="translate(31.606 13.248)">
			<path id="Caminho_331" class="st2" d="M21.83,58.44l-0.75-0.75c5.8-5.78,9.06-13.63,9.04-21.82v-0.22l0.16-0.16
				c2.07-2.07,4.41-3.86,6.96-5.29l0,0c4.78-2.7,10.18-4.12,15.67-4.11h0.53v0.53c0.01,8.5-3.38,16.65-9.41,22.63l-0.16,0.15h-0.22
				C35.46,49.38,27.61,52.63,21.83,58.44z M31.18,36.09c-0.03,6.37-1.98,12.58-5.59,17.83c5.25-3.61,11.46-5.56,17.83-5.59
				c5.6-5.64,8.81-13.23,8.94-21.18c-5.12,0.09-10.15,1.45-14.61,3.97l0,0C35.35,32.47,33.14,34.14,31.18,36.09L31.18,36.09z"/>
		</g>
		<g id="Grupo_322" transform="translate(8.48 35.493)">
			<path id="Caminho_332" class="st2" d="M45.87,36.35h-1.29C36.1,36.37,27.97,33,21.99,26.99l-0.91-0.91h1.29
				c8.48-0.02,16.61,3.35,22.59,9.36L45.87,36.35z M23.72,27.17c5.34,4.92,12.24,7.78,19.49,8.08
				C37.88,30.33,30.98,27.47,23.72,27.17L23.72,27.17z"/>
		</g>
		<g id="Grupo_323" transform="translate(22.254)">
			<path id="Caminho_333" class="st2" d="M30.8,72.06l-0.38-0.38c-12.48-12.5-12.48-32.73,0-45.23l0.38-0.38l0.38,0.38
				c12.47,12.5,12.47,32.73,0,45.23L30.8,72.06z M30.8,27.59c-11.55,11.99-11.55,30.96,0,42.95c5.57-5.74,8.68-13.43,8.66-21.44
				c0.01-2.92-0.4-5.83-1.2-8.64l0,0C36.86,35.63,34.3,31.21,30.8,27.59L30.8,27.59z"/>
		</g>
		<g id="Grupo_324" transform="translate(30.695 35.502)">
			<path id="Caminho_334" class="st2" d="M22.36,36.34h-1.29l0.91-0.91c5.98-6,14.1-9.37,22.57-9.35h1.29l-0.91,0.91
				C38.96,32.99,30.83,36.36,22.36,36.34z M43.2,27.18c-7.24,0.3-14.14,3.16-19.47,8.07C30.96,34.94,37.86,32.08,43.2,27.18
				L43.2,27.18z"/>
		</g>
	</g>
	<g id="Grupo_331" transform="translate(1295.187 110.394)">
		<g id="Grupo_326" transform="translate(0 13.248)">
			<path id="Caminho_335" class="st2" d="M52.68,58.44c-5.78-5.81-13.64-9.07-21.83-9.05h-0.22l-0.16-0.15
				c-1.83-1.82-3.44-3.86-4.78-6.07c-3.02-4.99-4.62-10.72-4.61-16.55v-0.53h0.53c8.49,0.01,16.63,3.39,22.63,9.39l0.16,0.16v0.22
				c-0.02,8.19,3.23,16.06,9.04,21.83L52.68,58.44z M31.07,48.32c6.38,0.03,12.59,1.97,17.84,5.59c-3.61-5.25-5.55-11.47-5.58-17.84
				c-5.66-5.58-13.24-8.77-21.19-8.92C22.27,35.09,25.47,42.68,31.07,48.32L31.07,48.32z"/>
		</g>
		<g id="Grupo_327" transform="translate(31.608 13.248)">
			<path id="Caminho_336" class="st2" d="M21.83,58.44l-0.75-0.75c5.8-5.78,9.06-13.63,9.04-21.82v-0.22l0.16-0.16
				c2.07-2.07,4.41-3.86,6.96-5.29l0,0c4.78-2.7,10.18-4.12,15.67-4.11h0.53v0.53c0.01,8.5-3.38,16.64-9.41,22.63l-0.16,0.15h-0.22
				C35.46,49.38,27.61,52.63,21.83,58.44z M31.18,36.09c-0.03,6.37-1.98,12.58-5.59,17.83c5.25-3.61,11.46-5.56,17.83-5.59
				c5.6-5.64,8.81-13.23,8.94-21.18c-5.12,0.09-10.15,1.45-14.61,3.97l0,0C35.35,32.47,33.14,34.14,31.18,36.09L31.18,36.09z"/>
		</g>
		<g id="Grupo_328" transform="translate(8.481 35.493)">
			<path id="Caminho_337" class="st2" d="M45.87,36.35h-1.29C36.1,36.37,27.97,33,21.99,26.99l-0.91-0.91h1.29
				c8.48-0.02,16.61,3.35,22.59,9.36L45.87,36.35z M23.72,27.17c5.34,4.92,12.24,7.78,19.49,8.08
				C37.88,30.33,30.98,27.47,23.72,27.17L23.72,27.17z"/>
		</g>
		<g id="Grupo_329" transform="translate(22.256)">
			<path id="Caminho_338" class="st2" d="M30.8,72.06l-0.38-0.38c-12.48-12.49-12.48-32.74,0-45.23l0.38-0.38l0.38,0.38
				c12.47,12.5,12.47,32.73,0,45.23L30.8,72.06z M30.8,27.59c-11.55,11.99-11.55,30.96,0,42.95c5.57-5.74,8.68-13.43,8.66-21.44
				c0.01-2.92-0.4-5.83-1.2-8.64l0,0C36.86,35.63,34.3,31.21,30.8,27.59L30.8,27.59z"/>
		</g>
		<g id="Grupo_330" transform="translate(30.697 35.502)">
			<path id="Caminho_339" class="st2" d="M22.36,36.34h-1.29l0.91-0.91c5.98-6,14.1-9.37,22.57-9.35h1.29l-0.91,0.91
				C38.96,32.99,30.83,36.36,22.36,36.34z M43.2,27.18c-7.24,0.3-14.14,3.16-19.47,8.07C30.96,34.94,37.86,32.08,43.2,27.18
				L43.2,27.18z"/>
		</g>
	</g>
	<g id="Grupo_337" transform="translate(1359.217 110.394)">
		<g id="Grupo_332" transform="translate(0 13.248)">
			<path id="Caminho_340" class="st2" d="M52.69,58.44c-5.78-5.81-13.64-9.07-21.83-9.05h-0.22l-0.16-0.15
				c-1.83-1.82-3.44-3.86-4.78-6.07c-3.02-4.99-4.62-10.72-4.61-16.55v-0.53h0.53c8.49,0.01,16.63,3.39,22.63,9.39l0.16,0.16v0.22
				c-0.02,8.19,3.23,16.06,9.04,21.83L52.69,58.44z M31.07,48.32c6.38,0.03,12.59,1.97,17.84,5.59c-3.61-5.25-5.56-11.47-5.58-17.84
				c-5.66-5.58-13.24-8.77-21.19-8.92C22.27,35.09,25.47,42.68,31.07,48.32L31.07,48.32z"/>
		</g>
		<g id="Grupo_333" transform="translate(31.608 13.248)">
			<path id="Caminho_341" class="st2" d="M21.83,58.44l-0.75-0.75c5.8-5.78,9.06-13.63,9.04-21.82v-0.22l0.16-0.16
				c2.07-2.07,4.41-3.86,6.96-5.29l0,0c4.78-2.7,10.18-4.12,15.67-4.11h0.53v0.53c0.01,8.5-3.38,16.65-9.41,22.63l-0.16,0.15h-0.22
				C35.46,49.38,27.61,52.63,21.83,58.44z M31.18,36.09c-0.03,6.37-1.98,12.58-5.59,17.83c5.25-3.61,11.46-5.56,17.83-5.59
				c5.61-5.64,8.81-13.23,8.94-21.18c-5.12,0.09-10.15,1.45-14.61,3.97l0,0C35.35,32.47,33.14,34.14,31.18,36.09L31.18,36.09z"/>
		</g>
		<g id="Grupo_334" transform="translate(8.482 35.493)">
			<path id="Caminho_342" class="st2" d="M45.87,36.35h-1.29C36.1,36.37,27.97,33,21.99,26.99l-0.91-0.91h1.29
				c8.48-0.02,16.61,3.35,22.59,9.36L45.87,36.35z M23.72,27.17c5.34,4.92,12.24,7.78,19.49,8.08
				C37.88,30.33,30.97,27.47,23.72,27.17z"/>
		</g>
		<g id="Grupo_335" transform="translate(22.256)">
			<path id="Caminho_343" class="st2" d="M30.8,72.06l-0.38-0.38c-12.48-12.49-12.48-32.74,0-45.23l0.38-0.38l0.38,0.38
				c12.47,12.5,12.47,32.73,0,45.23L30.8,72.06z M30.8,27.59c-11.55,11.99-11.55,30.96,0,42.95c7.67-7.98,10.51-19.44,7.45-30.07
				l0,0C36.86,35.63,34.3,31.21,30.8,27.59L30.8,27.59z"/>
		</g>
		<g id="Grupo_336" transform="translate(30.697 35.502)">
			<path id="Caminho_344" class="st2" d="M22.36,36.34h-1.29l0.91-0.91c5.98-6,14.1-9.37,22.57-9.35h1.29l-0.92,0.91
				C38.96,32.99,30.83,36.36,22.36,36.34z M43.2,27.18c-7.24,0.3-14.14,3.16-19.48,8.07C30.96,34.94,37.86,32.08,43.2,27.18
				L43.2,27.18z"/>
		</g>
	</g>
	<g id="Grupo_343" transform="translate(1487.278 155.237)">
		<g id="Grupo_338" transform="translate(31.604 0.377)">
			<path id="Caminho_345" class="st2" d="M21.83,26.08c5.78,5.81,13.64,9.07,21.83,9.05h0.22l0.16,0.16
				c1.83,1.82,3.44,3.86,4.78,6.07c3.02,4.99,4.62,10.72,4.61,16.55v0.53H52.9c-8.49-0.01-16.63-3.39-22.63-9.39l-0.16-0.15v-0.22
				c0.02-8.19-3.23-16.06-9.04-21.84L21.83,26.08z M43.44,36.19c-6.38-0.03-12.59-1.98-17.84-5.59c3.61,5.25,5.55,11.47,5.58,17.84
				c1.79,1.77,3.79,3.31,5.95,4.59c4.61,2.75,9.86,4.24,15.23,4.33C52.24,49.42,49.04,41.83,43.44,36.19L43.44,36.19z"/>
		</g>
		<g id="Grupo_339" transform="translate(0 0.377)">
			<path id="Caminho_346" class="st2" d="M52.68,26.08l0.76,0.76c-5.8,5.78-9.06,13.63-9.04,21.82v0.22l-0.16,0.15
				c-2.07,2.08-4.41,3.86-6.96,5.3l0,0c-4.78,2.7-10.18,4.12-15.67,4.11h-0.53V57.9c-0.01-8.5,3.38-16.65,9.41-22.63l0.16-0.16h0.22
				C39.05,35.13,46.9,31.88,52.68,26.08z M43.33,48.43c0.03-6.37,1.98-12.58,5.58-17.83c-5.25,3.61-11.46,5.56-17.83,5.59
				c-5.61,5.64-8.81,13.23-8.94,21.19c5.12-0.09,10.15-1.45,14.61-3.97l0,0C39.16,52.04,41.37,50.37,43.33,48.43L43.33,48.43z"/>
		</g>
		<g id="Grupo_340" transform="translate(30.693 0.222)">
			<path id="Caminho_347" class="st2" d="M21.08,26.08h1.29c8.48-0.02,16.61,3.35,22.59,9.36l0.91,0.91h-1.29
				C36.1,36.37,27.96,33,21.99,26.99L21.08,26.08z M43.22,35.25c-5.34-4.92-12.24-7.78-19.49-8.08
				C29.06,32.09,35.97,34.95,43.22,35.25L43.22,35.25z"/>
		</g>
		<g id="Grupo_341" transform="translate(22.254)">
			<path id="Caminho_348" class="st2" d="M30.8,26.08l0.38,0.38c12.48,12.5,12.48,32.74,0,45.23l-0.38,0.38l-0.38-0.38
				c-12.47-12.5-12.47-32.73,0-45.23L30.8,26.08z M30.8,70.55c11.55-11.99,11.55-30.96,0-42.95c-7.67,7.98-10.51,19.44-7.46,30.07
				l0,0C24.75,62.5,27.31,66.92,30.8,70.55L30.8,70.55z"/>
		</g>
		<g id="Grupo_342" transform="translate(8.495 0.222)">
			<path id="Caminho_349" class="st2" d="M44.56,26.08h1.29l-0.91,0.91c-5.98,6-14.1,9.37-22.57,9.35h-1.29l0.92-0.91
				C27.97,29.42,36.09,26.06,44.56,26.08z M23.73,35.24c7.24-0.3,14.14-3.16,19.48-8.07C35.96,27.47,29.06,30.33,23.73,35.24
				L23.73,35.24z"/>
		</g>
	</g>
	<g id="Grupo_349" transform="translate(1423.248 155.237)">
		<g id="Grupo_344" transform="translate(31.606 0.377)">
			<path id="Caminho_350" class="st2" d="M21.83,26.08c5.78,5.81,13.64,9.07,21.83,9.05h0.22l0.16,0.16
				c1.83,1.82,3.44,3.86,4.78,6.07c3.02,4.99,4.62,10.72,4.61,16.55v0.53H52.9c-8.49-0.01-16.63-3.39-22.63-9.39l-0.16-0.15v-0.22
				c0.02-8.19-3.23-16.06-9.04-21.84L21.83,26.08z M43.44,36.19c-6.38-0.03-12.59-1.98-17.84-5.59c3.61,5.25,5.56,11.47,5.58,17.84
				c1.79,1.77,3.79,3.31,5.95,4.59c4.61,2.75,9.86,4.24,15.23,4.33C52.24,49.42,49.04,41.83,43.44,36.19L43.44,36.19z"/>
		</g>
		<g id="Grupo_345" transform="translate(0 0.377)">
			<path id="Caminho_351" class="st2" d="M52.68,26.08l0.75,0.76c-5.8,5.78-9.06,13.63-9.04,21.82v0.22l-0.16,0.15
				c-2.07,2.08-4.41,3.86-6.96,5.3l0,0c-4.78,2.7-10.18,4.12-15.67,4.11h-0.53V57.9c-0.01-8.5,3.38-16.65,9.41-22.63l0.16-0.16h0.22
				C39.05,35.13,46.91,31.88,52.68,26.08z M43.33,48.43c0.03-6.37,1.98-12.58,5.59-17.83c-5.25,3.61-11.46,5.56-17.83,5.59
				c-5.6,5.64-8.81,13.23-8.94,21.19c5.12-0.09,10.15-1.45,14.61-3.97l0,0C39.16,52.04,41.37,50.37,43.33,48.43L43.33,48.43z"/>
		</g>
		<g id="Grupo_346" transform="translate(30.693 0.222)">
			<path id="Caminho_352" class="st2" d="M21.08,26.08h1.29c8.48-0.02,16.61,3.35,22.59,9.36l0.91,0.91h-1.3
				C36.1,36.37,27.96,33,21.99,26.99L21.08,26.08z M43.22,35.25c-5.34-4.92-12.25-7.78-19.5-8.08
				C29.06,32.09,35.97,34.95,43.22,35.25L43.22,35.25z"/>
		</g>
		<g id="Grupo_347" transform="translate(22.254)">
			<path id="Caminho_353" class="st2" d="M30.8,26.08l0.38,0.38c12.48,12.5,12.48,32.74,0,45.23l-0.38,0.38l-0.38-0.38
				c-12.47-12.5-12.47-32.73,0-45.23L30.8,26.08z M30.8,70.55c11.55-11.99,11.55-30.96,0-42.95c-7.67,7.98-10.51,19.44-7.46,30.07
				l0,0C24.75,62.5,27.31,66.92,30.8,70.55L30.8,70.55z"/>
		</g>
		<g id="Grupo_348" transform="translate(8.494 0.222)">
			<path id="Caminho_354" class="st2" d="M44.56,26.08h1.29l-0.91,0.91c-5.98,6-14.1,9.37-22.57,9.35h-1.29l0.92-0.91
				C27.97,29.42,36.09,26.06,44.56,26.08z M23.73,35.24c7.24-0.3,14.14-3.16,19.47-8.07C35.96,27.47,29.06,30.33,23.73,35.24z"/>
		</g>
	</g>
	<g id="Grupo_355" transform="translate(1423.248 110.416)">
		<g id="Grupo_350" transform="translate(0 13.248)">
			<path id="Caminho_355" class="st2" d="M52.68,58.44c-5.78-5.81-13.64-9.07-21.83-9.05h-0.22l-0.16-0.15
				c-1.83-1.83-3.44-3.86-4.78-6.07c-3.02-4.99-4.62-10.72-4.61-16.55v-0.53h0.53c8.49,0.01,16.63,3.39,22.63,9.39l0.16,0.16v0.22
				c-0.02,8.19,3.23,16.06,9.04,21.84L52.68,58.44z M31.07,48.32c6.38,0.03,12.59,1.98,17.84,5.59c-3.61-5.25-5.55-11.47-5.58-17.84
				c-5.66-5.58-13.24-8.77-21.19-8.92C22.27,35.09,25.47,42.68,31.07,48.32L31.07,48.32z"/>
		</g>
		<g id="Grupo_351" transform="translate(31.606 13.248)">
			<path id="Caminho_356" class="st2" d="M21.83,58.44l-0.76-0.75c5.8-5.78,9.06-13.63,9.04-21.82v-0.22l0.16-0.16
				c2.07-2.08,4.41-3.86,6.96-5.3l0,0c4.78-2.7,10.18-4.12,15.67-4.11h0.53v0.53c0.01,8.5-3.38,16.65-9.41,22.64l-0.16,0.15h-0.22
				C35.46,49.38,27.61,52.63,21.83,58.44z M31.18,36.09c-0.03,6.37-1.98,12.58-5.58,17.83c5.25-3.61,11.46-5.56,17.83-5.59
				c5.6-5.64,8.81-13.23,8.94-21.18c-5.12,0.09-10.15,1.45-14.61,3.97l0,0C35.35,32.47,33.14,34.14,31.18,36.09L31.18,36.09z"/>
		</g>
		<g id="Grupo_352" transform="translate(8.481 35.491)">
			<path id="Caminho_357" class="st2" d="M45.87,36.35h-1.29C36.1,36.37,27.97,33,21.99,26.99l-0.91-0.91h1.29
				c8.48-0.02,16.61,3.35,22.59,9.36L45.87,36.35z M23.72,27.17c5.34,4.91,12.25,7.78,19.5,8.08
				C37.89,30.33,30.97,27.47,23.72,27.17L23.72,27.17z"/>
		</g>
		<g id="Grupo_353" transform="translate(22.254)">
			<path id="Caminho_358" class="st2" d="M30.8,72.06l-0.38-0.38c-12.48-12.5-12.48-32.74,0-45.23l0.38-0.38l0.38,0.38
				c12.47,12.5,12.47,32.73,0,45.23L30.8,72.06z M30.8,27.59c-11.55,11.99-11.55,30.97,0,42.96c7.67-7.98,10.51-19.44,7.46-30.07
				l0,0C36.86,35.63,34.3,31.21,30.8,27.59z"/>
		</g>
		<g id="Grupo_354" transform="translate(30.695 35.502)">
			<path id="Caminho_359" class="st2" d="M22.36,36.34h-1.29l0.91-0.91c5.98-6,14.1-9.37,22.57-9.35h1.29l-0.92,0.91
				C38.96,32.99,30.83,36.36,22.36,36.34z M43.2,27.17c-7.24,0.3-14.14,3.16-19.47,8.07C30.96,34.94,37.86,32.08,43.2,27.17z"/>
		</g>
	</g>
	<g id="Grupo_361" transform="translate(1487.278 110.416)">
		<g id="Grupo_356" transform="translate(0 13.248)">
			<path id="Caminho_360" class="st2" d="M52.68,58.44c-5.78-5.81-13.64-9.07-21.83-9.05h-0.22l-0.16-0.15
				c-1.83-1.83-3.44-3.86-4.78-6.07c-3.02-4.99-4.62-10.72-4.61-16.55v-0.53h0.53c8.49,0.01,16.63,3.38,22.63,9.39l0.16,0.16v0.22
				c-0.02,8.19,3.23,16.06,9.04,21.84L52.68,58.44z M31.07,48.32c6.38,0.03,12.59,1.98,17.84,5.59c-3.61-5.25-5.55-11.47-5.58-17.84
				c-5.66-5.58-13.24-8.77-21.19-8.92C22.27,35.09,25.47,42.68,31.07,48.32L31.07,48.32z"/>
		</g>
		<g id="Grupo_357" transform="translate(31.606 13.248)">
			<path id="Caminho_361" class="st2" d="M21.83,58.44l-0.75-0.75c5.8-5.78,9.06-13.63,9.04-21.82v-0.22l0.16-0.16
				c2.07-2.08,4.41-3.86,6.96-5.3l0,0c4.78-2.7,10.18-4.12,15.67-4.11h0.53v0.53c0.01,8.5-3.38,16.65-9.41,22.64l-0.16,0.15h-0.22
				C35.46,49.38,27.61,52.63,21.83,58.44z M31.18,36.09c-0.03,6.37-1.98,12.58-5.59,17.83c5.25-3.61,11.46-5.56,17.83-5.59
				c5.6-5.64,8.81-13.23,8.94-21.18c-5.12,0.09-10.15,1.45-14.61,3.97l0,0C35.35,32.47,33.14,34.14,31.18,36.09L31.18,36.09z"/>
		</g>
		<g id="Grupo_358" transform="translate(8.48 35.491)">
			<path id="Caminho_362" class="st2" d="M45.87,36.35h-1.29C36.1,36.37,27.97,33,21.99,26.99l-0.91-0.91h1.29
				c8.48-0.02,16.61,3.35,22.59,9.36L45.87,36.35z M23.72,27.17c5.34,4.91,12.25,7.78,19.5,8.08
				C37.89,30.33,30.98,27.47,23.72,27.17L23.72,27.17z"/>
		</g>
		<g id="Grupo_359" transform="translate(22.254)">
			<path id="Caminho_363" class="st2" d="M30.8,72.06l-0.38-0.38c-12.48-12.5-12.48-32.74,0-45.23l0.38-0.38l0.38,0.38
				c12.47,12.5,12.47,32.73,0,45.23L30.8,72.06z M30.8,27.59c-11.55,11.99-11.55,30.96,0,42.96c7.67-7.98,10.51-19.44,7.46-30.07
				l0,0C36.86,35.63,34.3,31.21,30.8,27.59z"/>
		</g>
		<g id="Grupo_360" transform="translate(30.695 35.502)">
			<path id="Caminho_364" class="st2" d="M22.36,36.34h-1.29l0.91-0.91c5.98-6,14.1-9.37,22.57-9.35h1.29l-0.91,0.91
				C38.96,32.99,30.83,36.36,22.36,36.34z M43.2,27.17c-7.24,0.3-14.14,3.16-19.47,8.07C30.96,34.94,37.86,32.08,43.2,27.17
				L43.2,27.17z"/>
		</g>
	</g>
</g>
</svg>
