<?xml version="1.0" encoding="utf-8"?>
<!-- Generator: Adobe Illustrator 25.0.1, SVG Export Plug-In . SVG Version: 6.00 Build 0)  -->
<svg version="1.1" id="Camada_1" xmlns="http://www.w3.org/2000/svg" xmlns:xlink="http://www.w3.org/1999/xlink" x="0px" y="0px"
	 viewBox="0 0 68.47 65.71" style="enable-background:new 0 0 68.47 65.71;" xml:space="preserve">
<style type="text/css">
	.st0{fill:#38675D;}
	.st1{fill:#FDA377;}
	.st2{fill:#4D8D7F;}
	.st3{fill:#FFFFFF;}
	.st4{fill:#FFC9B2;}
	.st5{fill:none;}
	.st6{fill:#083B30;}
</style>
<circle id="Elipse_42_1_" class="st1" cx="34.71" cy="32.16" r="26.5"/>
<path id="Caminho_889" class="st5" d="M18.33,15.84h33.22v33.22H18.33V15.84z"/>
<circle id="Elipse_45" class="st0" cx="39.89" cy="29.02" r="1.9"/>
<circle id="Elipse_46" class="st0" cx="29.98" cy="29.02" r="1.9"/>
<path id="Caminho_890" class="st5" d="M18.33,15.84h33.22v33.22H18.33V15.84z"/>
<circle id="Elipse_47" class="st0" cx="39.89" cy="29.02" r="1.9"/>
<circle id="Elipse_48_1_" class="st0" cx="29.98" cy="29.02" r="1.9"/>
<path id="Caminho_891" class="st0" d="M34.92,18.61c-7.64,0.01-13.83,6.21-13.83,13.85s6.21,13.83,13.85,13.83
	c7.64-0.01,13.83-6.2,13.83-13.84c0-7.64-6.19-13.84-13.83-13.84C34.94,18.61,34.93,18.61,34.92,18.61z M34.94,43.52
	c-6.11,0-11.07-4.96-11.07-11.07c0-6.11,4.96-11.07,11.07-11.07c6.11,0,11.07,4.96,11.07,11.07C46.01,38.56,41.06,43.52,34.94,43.52
	C34.94,43.52,34.94,43.52,34.94,43.52z M34.94,40.06c3.13,0,5.95-1.92,7.09-4.84h-2.31c-1.51,2.64-4.87,3.55-7.5,2.05
	c-0.85-0.49-1.56-1.19-2.05-2.05h-2.31C28.99,38.13,31.8,40.06,34.94,40.06z"/>
</svg>
